CooperHewittInterpol2-Medium.ufo
<glyph name="exclam" format="1">
  <advance width="234"/>
  <unicode hex="0021"/>
  <outline>
    <contour>
      <point x="174" y="114" type="line" smooth="yes"/>
      <point x="60" y="114" type="line" smooth="yes"/>
      <point x="60" y="0" type="line" smooth="yes"/>
      <point x="174" y="0" type="line" smooth="yes"/>
    </contour>
    <contour>
      <point x="55" y="780" type="line" smooth="yes"/>
      <point x="82" y="203" type="line" smooth="yes"/>
      <point x="152" y="203" type="line" smooth="yes"/>
      <point x="179" y="780" type="line" smooth="yes"/>
    </contour>
  </outline>
</glyph>
<glyph name="numbersign" format="1">
  <advance width="600"/>
  <unicode hex="0023"/>
  <outline>
    <contour>
      <point x="254" y="469" type="line" smooth="yes"/>
      <point x="379" y="469" type="line" smooth="yes"/>
      <point x="346" y="311" type="line" smooth="yes"/>
      <point x="221" y="311" type="line" smooth="yes"/>
    </contour>
    <contour>
      <point x="83" y="469" type="line" smooth="yes"/>
      <point x="163" y="469" type="line" smooth="yes"/>
      <point x="130" y="311" type="line" smooth="yes"/>
      <point x="30" y="311" type="line" smooth="yes"/>
      <point x="30" y="220" type="line" smooth="yes"/>
      <point x="111" y="220" type="line" smooth="yes"/>
      <point x="65" y="0" type="line" smooth="yes"/>
      <point x="156" y="0" type="line" smooth="yes"/>
      <point x="202" y="220" type="line" smooth="yes"/>
      <point x="327" y="220" type="line" smooth="yes"/>
      <point x="281" y="0" type="line" smooth="yes"/>
      <point x="372" y="0" type="line" smooth="yes"/>
      <point x="418" y="220" type="line" smooth="yes"/>
      <point x="517" y="220" type="line" smooth="yes"/>
      <point x="517" y="311" type="line" smooth="yes"/>
      <point x="437" y="311" type="line" smooth="yes"/>
      <point x="470" y="469" type="line" smooth="yes"/>
      <point x="570" y="469" type="line" smooth="yes"/>
      <point x="570" y="560" type="line" smooth="yes"/>
      <point x="489" y="560" type="line" smooth="yes"/>
      <point x="535" y="780" type="line" smooth="yes"/>
      <point x="444" y="780" type="line" smooth="yes"/>
      <point x="398" y="560" type="line" smooth="yes"/>
      <point x="273" y="560" type="line" smooth="yes"/>
      <point x="319" y="780" type="line" smooth="yes"/>
      <point x="228" y="780" type="line" smooth="yes"/>
      <point x="182" y="560" type="line" smooth="yes"/>
      <point x="83" y="560" type="line" smooth="yes"/>
    </contour>
  </outline>
</glyph>
<glyph name="dollar" format="1">
  <advance width="600"/>
  <unicode hex="0024"/>
  <outline>
    <contour>
      <point x="167" y="541" type="line" smooth="yes"/>
      <point x="167" y="546" type="line" smooth="yes"/>
      <point x="184" y="598" type="line" smooth="yes"/>
      <point x="231" y="631" type="line" smooth="yes"/>
      <point x="297" y="642" type="line" smooth="yes"/>
      <point x="301" y="642" type="line" smooth="yes"/>
      <point x="306" y="642" type="line" smooth="yes"/>
      <point x="312" y="642" type="line" smooth="yes"/>
      <point x="317" y="641" type="line" smooth="yes"/>
      <point x="270" y="443" type="line" smooth="yes"/>
      <point x="209" y="464" type="line" smooth="yes"/>
      <point x="177" y="496" type="line" smooth="yes"/>
    </contour>
    <contour>
      <point x="308" y="138" type="line" smooth="yes"/>
      <point x="304" y="138" type="line" smooth="yes"/>
      <point x="296" y="138" type="line" smooth="yes"/>
      <point x="288" y="138" type="line" smooth="yes"/>
      <point x="280" y="139" type="line" smooth="yes"/>
      <point x="330" y="349" type="line" smooth="yes"/>
      <point x="392" y="329" type="line" smooth="yes"/>
      <point x="428" y="295" type="line" smooth="yes"/>
      <point x="440" y="247" type="line" smooth="yes"/>
      <point x="440" y="242" type="line" smooth="yes"/>
      <point x="423" y="186" type="line" smooth="yes"/>
      <point x="377" y="150" type="line" smooth="yes"/>
    </contour>
    <contour>
      <point x="448" y="840" type="line" smooth="yes"/>
      <point x="365" y="840" type="line" smooth="yes"/>
      <point x="338" y="727" type="line" smooth="yes"/>
      <point x="326" y="728" type="line" smooth="yes"/>
      <point x="313" y="729" type="line" smooth="yes"/>
      <point x="300" y="729" type="line" smooth="yes"/>
      <point x="175" y="706" type="line" smooth="yes"/>
      <point x="93" y="641" type="line" smooth="yes"/>
      <point x="63" y="540" type="line" smooth="yes"/>
      <point x="63" y="532" type="line" smooth="yes"/>
      <point x="82" y="451" type="line" smooth="yes"/>
      <point x="143" y="394" type="line" smooth="yes"/>
      <point x="250" y="361" type="line" smooth="yes"/>
      <point x="204" y="168" type="line" smooth="yes"/>
      <point x="179" y="196" type="line" smooth="yes"/>
      <point x="163" y="232" type="line" smooth="yes"/>
      <point x="158" y="276" type="line" smooth="yes"/>
      <point x="56" y="276" type="line" smooth="yes"/>
      <point x="56" y="270" type="line" smooth="yes"/>
      <point x="70" y="185" type="line" smooth="yes"/>
      <point x="112" y="119" type="line" smooth="yes"/>
      <point x="182" y="73" type="line" smooth="yes"/>
      <point x="150" y="-60" type="line" smooth="yes"/>
      <point x="233" y="-60" type="line" smooth="yes"/>
      <point x="260" y="54" type="line" smooth="yes"/>
      <point x="275" y="53" type="line" smooth="yes"/>
      <point x="290" y="52" type="line" smooth="yes"/>
      <point x="306" y="52" type="line" smooth="yes"/>
      <point x="436" y="76" type="line" smooth="yes"/>
      <point x="517" y="143" type="line" smooth="yes"/>
      <point x="545" y="247" type="line" smooth="yes"/>
      <point x="545" y="255" type="line" smooth="yes"/>
      <point x="523" y="343" type="line" smooth="yes"/>
      <point x="457" y="400" type="line" smooth="yes"/>
      <point x="350" y="431" type="line" smooth="yes"/>
      <point x="394" y="614" type="line" smooth="yes"/>
      <point x="417" y="585" type="line" smooth="yes"/>
      <point x="431" y="545" type="line" smooth="yes"/>
      <point x="436" y="495" type="line" smooth="yes"/>
      <point x="538" y="495" type="line" smooth="yes"/>
      <point x="538" y="510" type="line" smooth="yes"/>
      <point x="525" y="599" type="line" smooth="yes"/>
      <point x="485" y="666" type="line" smooth="yes"/>
      <point x="417" y="710" type="line" smooth="yes"/>
    </contour>
  </outline>
</glyph>
<glyph name="percent" format="1">
  <advance width="943"/>
  <unicode hex="0025"/>
  <outline>
    <contour>
      <point x="355" y="0" type="line" smooth="yes"/>
      <point x="656" y="725" type="line" smooth="yes"/>
      <point x="656" y="782" type="line" smooth="yes"/>
      <point x="610" y="768" type="line" smooth="yes"/>
      <point x="540" y="756" type="line" smooth="yes"/>
      <point x="461" y="750" type="line" smooth="yes"/>
      <point x="399" y="752" type="line" smooth="yes"/>
      <point x="343" y="759" type="line" smooth="yes"/>
      <point x="289" y="776" type="line" smooth="yes"/>
      <point x="264" y="785" type="line" smooth="yes"/>
      <point x="238" y="790" type="line" smooth="yes"/>
      <point x="210" y="792" type="line" smooth="yes"/>
      <point x="120" y="772" type="line" smooth="yes"/>
      <point x="58" y="712" type="line" smooth="yes"/>
      <point x="34" y="614" type="line" smooth="yes"/>
      <point x="34" y="603" type="line" smooth="yes"/>
      <point x="58" y="506" type="line" smooth="yes"/>
      <point x="120" y="446" type="line" smooth="yes"/>
      <point x="210" y="426" type="line" smooth="yes"/>
      <point x="299" y="446" type="line" smooth="yes"/>
      <point x="362" y="506" type="line" smooth="yes"/>
      <point x="385" y="603" type="line" smooth="yes"/>
      <point x="385" y="614" type="line" smooth="yes"/>
      <point x="384" y="634" type="line" smooth="yes"/>
      <point x="382" y="653" type="line" smooth="yes"/>
      <point x="378" y="671" type="line" smooth="yes"/>
      <point x="400" y="668" type="line" smooth="yes"/>
      <point x="422" y="667" type="line" smooth="yes"/>
      <point x="446" y="666" type="line" smooth="yes"/>
      <point x="493" y="669" type="line" smooth="yes"/>
      <point x="527" y="674" type="line" smooth="yes"/>
      <point x="545" y="678" type="line" smooth="yes"/>
      <point x="263" y="0" type="line" smooth="yes"/>
    </contour>
    <contour>
      <point x="637" y="163" type="line" smooth="yes"/>
      <point x="637" y="179" type="line" smooth="yes"/>
      <point x="650" y="230" type="line" smooth="yes"/>
      <point x="683" y="263" type="line" smooth="yes"/>
      <point x="730" y="274" type="line" smooth="yes"/>
      <point x="736" y="274" type="line" smooth="yes"/>
      <point x="783" y="263" type="line" smooth="yes"/>
      <point x="816" y="230" type="line" smooth="yes"/>
      <point x="829" y="179" type="line" smooth="yes"/>
      <point x="829" y="163" type="line" smooth="yes"/>
      <point x="816" y="112" type="line" smooth="yes"/>
      <point x="783" y="79" type="line" smooth="yes"/>
      <point x="736" y="68" type="line" smooth="yes"/>
      <point x="730" y="68" type="line" smooth="yes"/>
      <point x="683" y="79" type="line" smooth="yes"/>
      <point x="650" y="112" type="line" smooth="yes"/>
    </contour>
    <contour>
      <point x="306" y="617" type="line" smooth="yes"/>
      <point x="306" y="601" type="line" smooth="yes"/>
      <point x="293" y="550" type="line" smooth="yes"/>
      <point x="260" y="517" type="line" smooth="yes"/>
      <point x="213" y="506" type="line" smooth="yes"/>
      <point x="207" y="506" type="line" smooth="yes"/>
      <point x="159" y="517" type="line" smooth="yes"/>
      <point x="126" y="550" type="line" smooth="yes"/>
      <point x="114" y="601" type="line" smooth="yes"/>
      <point x="114" y="617" type="line" smooth="yes"/>
      <point x="126" y="668" type="line" smooth="yes"/>
      <point x="159" y="701" type="line" smooth="yes"/>
      <point x="207" y="712" type="line" smooth="yes"/>
      <point x="213" y="712" type="line" smooth="yes"/>
      <point x="260" y="701" type="line" smooth="yes"/>
      <point x="293" y="668" type="line" smooth="yes"/>
    </contour>
    <contour>
      <point x="558" y="177" type="line" smooth="yes"/>
      <point x="558" y="166" type="line" smooth="yes"/>
      <point x="581" y="68" type="line" smooth="yes"/>
      <point x="644" y="8" type="line" smooth="yes"/>
      <point x="733" y="-12" type="line" smooth="yes"/>
      <point x="822" y="8" type="line" smooth="yes"/>
      <point x="885" y="68" type="line" smooth="yes"/>
      <point x="908" y="166" type="line" smooth="yes"/>
      <point x="908" y="177" type="line" smooth="yes"/>
      <point x="885" y="274" type="line" smooth="yes"/>
      <point x="822" y="334" type="line" smooth="yes"/>
      <point x="733" y="354" type="line" smooth="yes"/>
      <point x="644" y="334" type="line" smooth="yes"/>
      <point x="581" y="274" type="line" smooth="yes"/>
    </contour>
  </outline>
</glyph>
<glyph name="ampersand" format="1">
  <advance width="671"/>
  <unicode hex="0026"/>
  <outline>
    <contour>
      <point x="171" y="621" type="line" smooth="yes"/>
      <point x="181" y="663" type="line" smooth="yes"/>
      <point x="211" y="692" type="line" smooth="yes"/>
      <point x="260" y="704" type="line" smooth="yes"/>
      <point x="267" y="704" type="line" smooth="yes"/>
      <point x="317" y="692" type="line" smooth="yes"/>
      <point x="347" y="663" type="line" smooth="yes"/>
      <point x="357" y="621" type="line" smooth="yes"/>
      <point x="357" y="613" type="line" smooth="yes"/>
      <point x="340" y="559" type="line" smooth="yes"/>
      <point x="295" y="515" type="line" smooth="yes"/>
      <point x="234" y="475" type="line" smooth="yes"/>
      <point x="202" y="517" type="line" smooth="yes"/>
      <point x="180" y="563" type="line" smooth="yes"/>
      <point x="171" y="613" type="line" smooth="yes"/>
    </contour>
    <contour>
      <point x="272" y="79" type="line" smooth="yes"/>
      <point x="196" y="96" type="line" smooth="yes"/>
      <point x="152" y="142" type="line" smooth="yes"/>
      <point x="137" y="213" type="line" smooth="yes"/>
      <point x="137" y="221" type="line" smooth="yes"/>
      <point x="147" y="274" type="line" smooth="yes"/>
      <point x="175" y="318" type="line" smooth="yes"/>
      <point x="215" y="355" type="line" smooth="yes"/>
      <point x="418" y="129" type="line" smooth="yes"/>
      <point x="375" y="101" type="line" smooth="yes"/>
      <point x="328" y="85" type="line" smooth="yes"/>
      <point x="277" y="79" type="line" smooth="yes"/>
    </contour>
    <contour>
      <point x="260" y="-12" type="line" smooth="yes"/>
      <point x="343" y="-4" type="line" smooth="yes"/>
      <point x="417" y="20" type="line" smooth="yes"/>
      <point x="480" y="60" type="line" smooth="yes"/>
      <point x="534" y="0" type="line" smooth="yes"/>
      <point x="660" y="0" type="line" smooth="yes"/>
      <point x="545" y="129" type="line" smooth="yes"/>
      <point x="586" y="204" type="line" smooth="yes"/>
      <point x="611" y="293" type="line" smooth="yes"/>
      <point x="620" y="393" type="line" smooth="yes"/>
      <point x="620" y="395" type="line" smooth="yes"/>
      <point x="514" y="395" type="line" smooth="yes"/>
      <point x="514" y="391" type="line" smooth="yes"/>
      <point x="509" y="320" type="line" smooth="yes"/>
      <point x="497" y="258" type="line" smooth="yes"/>
      <point x="476" y="206" type="line" smooth="yes"/>
      <point x="295" y="408" type="line" smooth="yes"/>
      <point x="374" y="460" type="line" smooth="yes"/>
      <point x="435" y="525" type="line" smooth="yes"/>
      <point x="460" y="613" type="line" smooth="yes"/>
      <point x="460" y="624" type="line" smooth="yes"/>
      <point x="439" y="709" type="line" smooth="yes"/>
      <point x="373" y="769" type="line" smooth="yes"/>
      <point x="264" y="792" type="line" smooth="yes"/>
      <point x="154" y="769" type="line" smooth="yes"/>
      <point x="89" y="709" type="line" smooth="yes"/>
      <point x="67" y="624" type="line" smooth="yes"/>
      <point x="67" y="613" type="line" smooth="yes"/>
      <point x="77" y="543" type="line" smooth="yes"/>
      <point x="107" y="483" type="line" smooth="yes"/>
      <point x="155" y="423" type="line" smooth="yes"/>
      <point x="95" y="371" type="line" smooth="yes"/>
      <point x="51" y="304" type="line" smooth="yes"/>
      <point x="34" y="216" type="line" smooth="yes"/>
      <point x="34" y="206" type="line" smooth="yes"/>
      <point x="61" y="89" type="line" smooth="yes"/>
      <point x="138" y="15" type="line" smooth="yes"/>
    </contour>
  </outline>
</glyph>
<glyph name="quotesingle" format="1">
  <advance width="234"/>
  <unicode hex="0027"/>
  <outline>
    <contour>
      <point x="61" y="780" type="line" smooth="yes"/>
      <point x="79" y="492" type="line" smooth="yes"/>
      <point x="155" y="492" type="line" smooth="yes"/>
      <point x="173" y="780" type="line" smooth="yes"/>
    </contour>
  </outline>
</glyph>
<glyph name="parenleft" format="1">
  <advance width="334"/>
  <unicode hex="0028"/>
  <outline>
    <contour>
      <point x="46" y="350" type="line" smooth="yes"/>
      <point x="67" y="152" type="line" smooth="yes"/>
      <point x="122" y="3" type="line" smooth="yes"/>
      <point x="198" y="-120" type="line" smooth="yes"/>
      <point x="305" y="-120" type="line" smooth="yes"/>
      <point x="225" y="12" type="line" smooth="yes"/>
      <point x="169" y="163" type="line" smooth="yes"/>
      <point x="148" y="350" type="line" smooth="yes"/>
      <point x="148" y="370" type="line" smooth="yes"/>
      <point x="169" y="557" type="line" smooth="yes"/>
      <point x="225" y="708" type="line" smooth="yes"/>
      <point x="305" y="840" type="line" smooth="yes"/>
      <point x="198" y="840" type="line" smooth="yes"/>
      <point x="122" y="717" type="line" smooth="yes"/>
      <point x="67" y="568" type="line" smooth="yes"/>
      <point x="46" y="370" type="line" smooth="yes"/>
    </contour>
  </outline>
</glyph>
<glyph name="parenright" format="1">
  <advance width="334"/>
  <unicode hex="0029"/>
  <outline>
    <contour>
      <point x="288" y="370" type="line" smooth="yes"/>
      <point x="267" y="568" type="line" smooth="yes"/>
      <point x="212" y="717" type="line" smooth="yes"/>
      <point x="136" y="840" type="line" smooth="yes"/>
      <point x="29" y="840" type="line" smooth="yes"/>
      <point x="109" y="708" type="line" smooth="yes"/>
      <point x="165" y="557" type="line" smooth="yes"/>
      <point x="186" y="370" type="line" smooth="yes"/>
      <point x="186" y="350" type="line" smooth="yes"/>
      <point x="165" y="163" type="line" smooth="yes"/>
      <point x="109" y="12" type="line" smooth="yes"/>
      <point x="29" y="-120" type="line" smooth="yes"/>
      <point x="136" y="-120" type="line" smooth="yes"/>
      <point x="212" y="3" type="line" smooth="yes"/>
      <point x="267" y="152" type="line" smooth="yes"/>
      <point x="288" y="350" type="line" smooth="yes"/>
    </contour>
  </outline>
</glyph>
<glyph name="zero" format="1">
  <advance width="600"/>
  <unicode hex="0030"/>
  <outline>
    <contour>
      <point x="441" y="551" type="line" smooth="yes"/>
      <point x="441" y="229" type="line" smooth="yes"/>
      <point x="428" y="150" type="line" smooth="yes"/>
      <point x="384" y="98" type="line" smooth="yes"/>
      <point x="303" y="79" type="line" smooth="yes"/>
      <point x="297" y="79" type="line" smooth="yes"/>
      <point x="216" y="98" type="line" smooth="yes"/>
      <point x="172" y="150" type="line" smooth="yes"/>
      <point x="159" y="229" type="line" smooth="yes"/>
      <point x="159" y="551" type="line" smooth="yes"/>
      <point x="172" y="630" type="line" smooth="yes"/>
      <point x="216" y="682" type="line" smooth="yes"/>
      <point x="297" y="701" type="line" smooth="yes"/>
      <point x="303" y="701" type="line" smooth="yes"/>
      <point x="384" y="682" type="line" smooth="yes"/>
      <point x="428" y="630" type="line" smooth="yes"/>
    </contour>
    <contour>
      <point x="544" y="223" type="line" smooth="yes"/>
      <point x="544" y="557" type="line" smooth="yes"/>
      <point x="519" y="678" type="line" smooth="yes"/>
      <point x="439" y="761" type="line" smooth="yes"/>
      <point x="300" y="792" type="line" smooth="yes"/>
      <point x="161" y="761" type="line" smooth="yes"/>
      <point x="81" y="678" type="line" smooth="yes"/>
      <point x="56" y="557" type="line" smooth="yes"/>
      <point x="56" y="223" type="line" smooth="yes"/>
      <point x="81" y="102" type="line" smooth="yes"/>
      <point x="161" y="19" type="line" smooth="yes"/>
      <point x="300" y="-12" type="line" smooth="yes"/>
      <point x="439" y="19" type="line" smooth="yes"/>
      <point x="519" y="102" type="line" smooth="yes"/>
    </contour>
  </outline>
</glyph>
<glyph name="two" format="1">
  <advance width="600"/>
  <unicode hex="0032"/>
  <outline>
    <contour>
      <point x="275" y="92" type="line" smooth="yes"/>
      <point x="203" y="91" type="line" smooth="yes"/>
      <point x="459" y="366" type="line" smooth="yes"/>
      <point x="511" y="430" type="line" smooth="yes"/>
      <point x="540" y="493" type="line" smooth="yes"/>
      <point x="548" y="567" type="line" smooth="yes"/>
      <point x="548" y="581" type="line" smooth="yes"/>
      <point x="521" y="687" type="line" smooth="yes"/>
      <point x="439" y="763" type="line" smooth="yes"/>
      <point x="300" y="792" type="line" smooth="yes"/>
      <point x="160" y="763" type="line" smooth="yes"/>
      <point x="78" y="679" type="line" smooth="yes"/>
      <point x="52" y="542" type="line" smooth="yes"/>
      <point x="52" y="520" type="line" smooth="yes"/>
      <point x="154" y="520" type="line" smooth="yes"/>
      <point x="170" y="625" type="line" smooth="yes"/>
      <point x="218" y="683" type="line" smooth="yes"/>
      <point x="296" y="701" type="line" smooth="yes"/>
      <point x="304" y="701" type="line" smooth="yes"/>
      <point x="378" y="685" type="line" smooth="yes"/>
      <point x="427" y="638" type="line" smooth="yes"/>
      <point x="445" y="563" type="line" smooth="yes"/>
      <point x="445" y="553" type="line" smooth="yes"/>
      <point x="438" y="506" type="line" smooth="yes"/>
      <point x="417" y="462" type="line" smooth="yes"/>
      <point x="376" y="413" type="line" smooth="yes"/>
      <point x="52" y="64" type="line" smooth="yes"/>
      <point x="52" y="0" type="line" smooth="yes"/>
      <point x="548" y="0" type="line" smooth="yes"/>
      <point x="548" y="92" type="line" smooth="yes"/>
    </contour>
  </outline>
</glyph>
<glyph name="three" format="1">
  <advance width="600"/>
  <unicode hex="0033"/>
  <outline>
    <contour>
      <point x="149" y="250" type="line" smooth="yes"/>
      <point x="47" y="250" type="line" smooth="yes"/>
      <point x="47" y="238" type="line" smooth="yes"/>
      <point x="74" y="104" type="line" smooth="yes"/>
      <point x="158" y="18" type="line" smooth="yes"/>
      <point x="300" y="-12" type="line" smooth="yes"/>
      <point x="437" y="18" type="line" smooth="yes"/>
      <point x="523" y="96" type="line" smooth="yes"/>
      <point x="553" y="203" type="line" smooth="yes"/>
      <point x="553" y="220" type="line" smooth="yes"/>
      <point x="538" y="301" type="line" smooth="yes"/>
      <point x="498" y="360" type="line" smooth="yes"/>
      <point x="440" y="398" type="line" smooth="yes"/>
      <point x="496" y="435" type="line" smooth="yes"/>
      <point x="534" y="491" type="line" smooth="yes"/>
      <point x="548" y="568" type="line" smooth="yes"/>
      <point x="548" y="585" type="line" smooth="yes"/>
      <point x="521" y="688" type="line" smooth="yes"/>
      <point x="439" y="763" type="line" smooth="yes"/>
      <point x="300" y="792" type="line" smooth="yes"/>
      <point x="160" y="763" type="line" smooth="yes"/>
      <point x="78" y="679" type="line" smooth="yes"/>
      <point x="52" y="542" type="line" smooth="yes"/>
      <point x="52" y="520" type="line" smooth="yes"/>
      <point x="154" y="520" type="line" smooth="yes"/>
      <point x="170" y="625" type="line" smooth="yes"/>
      <point x="217" y="683" type="line" smooth="yes"/>
      <point x="295" y="701" type="line" smooth="yes"/>
      <point x="305" y="701" type="line" smooth="yes"/>
      <point x="379" y="685" type="line" smooth="yes"/>
      <point x="427" y="641" type="line" smooth="yes"/>
      <point x="445" y="573" type="line" smooth="yes"/>
      <point x="445" y="565" type="line" smooth="yes"/>
      <point x="427" y="496" type="line" smooth="yes"/>
      <point x="379" y="456" type="line" smooth="yes"/>
      <point x="308" y="443" type="line" smooth="yes"/>
      <point x="200" y="443" type="line" smooth="yes"/>
      <point x="200" y="353" type="line" smooth="yes"/>
      <point x="312" y="353" type="line" smooth="yes"/>
      <point x="383" y="339" type="line" smooth="yes"/>
      <point x="432" y="296" type="line" smooth="yes"/>
      <point x="450" y="224" type="line" smooth="yes"/>
      <point x="450" y="211" type="line" smooth="yes"/>
      <point x="429" y="136" type="line" smooth="yes"/>
      <point x="376" y="93" type="line" smooth="yes"/>
      <point x="305" y="79" type="line" smooth="yes"/>
      <point x="295" y="79" type="line" smooth="yes"/>
      <point x="218" y="96" type="line" smooth="yes"/>
      <point x="167" y="152" type="line" smooth="yes"/>
    </contour>
  </outline>
</glyph>
<glyph name="four" format="1">
  <advance width="600"/>
  <unicode hex="0034"/>
  <outline>
    <contour>
      <point x="355" y="614" type="line" smooth="yes"/>
      <point x="353" y="527" type="line" smooth="yes"/>
      <point x="353" y="286" type="line" smooth="yes"/>
      <point x="218" y="286" type="line" smooth="yes"/>
      <point x="144" y="284" type="line" smooth="yes"/>
    </contour>
    <contour>
      <point x="455" y="0" type="line" smooth="yes"/>
      <point x="455" y="194" type="line" smooth="yes"/>
      <point x="569" y="194" type="line" smooth="yes"/>
      <point x="569" y="286" type="line" smooth="yes"/>
      <point x="455" y="286" type="line" smooth="yes"/>
      <point x="455" y="780" type="line" smooth="yes"/>
      <point x="358" y="780" type="line" smooth="yes"/>
      <point x="31" y="264" type="line" smooth="yes"/>
      <point x="31" y="194" type="line" smooth="yes"/>
      <point x="353" y="194" type="line" smooth="yes"/>
      <point x="353" y="0" type="line" smooth="yes"/>
    </contour>
  </outline>
</glyph>
<glyph name="five" format="1">
  <advance width="600"/>
  <unicode hex="0035"/>
  <outline>
    <contour>
      <point x="47" y="250" type="line" smooth="yes"/>
      <point x="47" y="238" type="line" smooth="yes"/>
      <point x="74" y="104" type="line" smooth="yes"/>
      <point x="158" y="18" type="line" smooth="yes"/>
      <point x="300" y="-12" type="line" smooth="yes"/>
      <point x="434" y="17" type="line" smooth="yes"/>
      <point x="521" y="101" type="line" smooth="yes"/>
      <point x="553" y="236" type="line" smooth="yes"/>
      <point x="553" y="251" type="line" smooth="yes"/>
      <point x="522" y="385" type="line" smooth="yes"/>
      <point x="435" y="469" type="line" smooth="yes"/>
      <point x="304" y="498" type="line" smooth="yes"/>
      <point x="246" y="493" type="line" smooth="yes"/>
      <point x="193" y="477" type="line" smooth="yes"/>
      <point x="148" y="453" type="line" smooth="yes"/>
      <point x="159" y="688" type="line" smooth="yes"/>
      <point x="543" y="688" type="line" smooth="yes"/>
      <point x="543" y="780" type="line" smooth="yes"/>
      <point x="71" y="780" type="line" smooth="yes"/>
      <point x="53" y="346" type="line" smooth="yes"/>
      <point x="139" y="317" type="line" smooth="yes"/>
      <point x="177" y="368" type="line" smooth="yes"/>
      <point x="232" y="398" type="line" smooth="yes"/>
      <point x="293" y="408" type="line" smooth="yes"/>
      <point x="301" y="408" type="line" smooth="yes"/>
      <point x="375" y="392" type="line" smooth="yes"/>
      <point x="429" y="341" type="line" smooth="yes"/>
      <point x="450" y="251" type="line" smooth="yes"/>
      <point x="450" y="236" type="line" smooth="yes"/>
      <point x="429" y="146" type="line" smooth="yes"/>
      <point x="376" y="95" type="line" smooth="yes"/>
      <point x="305" y="79" type="line" smooth="yes"/>
      <point x="295" y="79" type="line" smooth="yes"/>
      <point x="218" y="96" type="line" smooth="yes"/>
      <point x="167" y="152" type="line" smooth="yes"/>
      <point x="149" y="250" type="line" smooth="yes"/>
    </contour>
  </outline>
</glyph>
<glyph name="six" format="1">
  <advance width="600"/>
  <unicode hex="0036"/>
  <outline>
    <contour>
      <point x="305" y="399" type="line" smooth="yes"/>
      <point x="310" y="399" type="line" smooth="yes"/>
      <point x="385" y="382" type="line" smooth="yes"/>
      <point x="435" y="332" type="line" smooth="yes"/>
      <point x="453" y="249" type="line" smooth="yes"/>
      <point x="453" y="232" type="line" smooth="yes"/>
      <point x="434" y="149" type="line" smooth="yes"/>
      <point x="383" y="98" type="line" smooth="yes"/>
      <point x="306" y="80" type="line" smooth="yes"/>
      <point x="300" y="80" type="line" smooth="yes"/>
      <point x="225" y="101" type="line" smooth="yes"/>
      <point x="171" y="162" type="line" smooth="yes"/>
      <point x="151" y="260" type="line" smooth="yes"/>
      <point x="151" y="305" type="line" smooth="yes"/>
      <point x="189" y="355" type="line" smooth="yes"/>
      <point x="242" y="388" type="line" smooth="yes"/>
    </contour>
    <contour>
      <point x="519" y="792" type="line" smooth="yes"/>
      <point x="384" y="777" type="line" smooth="yes"/>
      <point x="260" y="728" type="line" smooth="yes"/>
      <point x="159" y="636" type="line" smooth="yes"/>
      <point x="94" y="521" type="line" smooth="yes"/>
      <point x="59" y="401" type="line" smooth="yes"/>
      <point x="49" y="278" type="line" smooth="yes"/>
      <point x="49" y="267" type="line" smooth="yes"/>
      <point x="81" y="117" type="line" smooth="yes"/>
      <point x="169" y="21" type="line" smooth="yes"/>
      <point x="303" y="-12" type="line" smooth="yes"/>
      <point x="438" y="16" type="line" smooth="yes"/>
      <point x="525" y="100" type="line" smooth="yes"/>
      <point x="556" y="235" type="line" smooth="yes"/>
      <point x="556" y="245" type="line" smooth="yes"/>
      <point x="526" y="380" type="line" smooth="yes"/>
      <point x="446" y="463" type="line" smooth="yes"/>
      <point x="327" y="491" type="line" smooth="yes"/>
      <point x="265" y="483" type="line" smooth="yes"/>
      <point x="213" y="462" type="line" smooth="yes"/>
      <point x="170" y="430" type="line" smooth="yes"/>
      <point x="187" y="482" type="line" smooth="yes"/>
      <point x="210" y="531" type="line" smooth="yes"/>
      <point x="240" y="577" type="line" smooth="yes"/>
      <point x="319" y="648" type="line" smooth="yes"/>
      <point x="414" y="687" type="line" smooth="yes"/>
      <point x="519" y="699" type="line" smooth="yes"/>
    </contour>
  </outline>
</glyph>
<glyph name="eight" format="1">
  <advance width="600"/>
  <unicode hex="0038"/>
  <outline>
    <contour>
      <point x="305" y="701" type="line" smooth="yes"/>
      <point x="379" y="685" type="line" smooth="yes"/>
      <point x="427" y="642" type="line" smooth="yes"/>
      <point x="445" y="575" type="line" smooth="yes"/>
      <point x="445" y="566" type="line" smooth="yes"/>
      <point x="427" y="497" type="line" smooth="yes"/>
      <point x="379" y="456" type="line" smooth="yes"/>
      <point x="308" y="443" type="line" smooth="yes"/>
      <point x="292" y="443" type="line" smooth="yes"/>
      <point x="221" y="456" type="line" smooth="yes"/>
      <point x="173" y="497" type="line" smooth="yes"/>
      <point x="155" y="566" type="line" smooth="yes"/>
      <point x="155" y="575" type="line" smooth="yes"/>
      <point x="173" y="642" type="line" smooth="yes"/>
      <point x="221" y="685" type="line" smooth="yes"/>
      <point x="295" y="701" type="line" smooth="yes"/>
    </contour>
    <contour>
      <point x="288" y="353" type="line" smooth="yes"/>
      <point x="312" y="353" type="line" smooth="yes"/>
      <point x="383" y="338" type="line" smooth="yes"/>
      <point x="432" y="295" type="line" smooth="yes"/>
      <point x="450" y="222" type="line" smooth="yes"/>
      <point x="450" y="209" type="line" smooth="yes"/>
      <point x="429" y="135" type="line" smooth="yes"/>
      <point x="376" y="92" type="line" smooth="yes"/>
      <point x="305" y="79" type="line" smooth="yes"/>
      <point x="295" y="79" type="line" smooth="yes"/>
      <point x="224" y="92" type="line" smooth="yes"/>
      <point x="171" y="135" type="line" smooth="yes"/>
      <point x="150" y="209" type="line" smooth="yes"/>
      <point x="150" y="222" type="line" smooth="yes"/>
      <point x="168" y="295" type="line" smooth="yes"/>
      <point x="217" y="338" type="line" smooth="yes"/>
    </contour>
    <contour>
      <point x="300" y="-12" type="line" smooth="yes"/>
      <point x="437" y="18" type="line" smooth="yes"/>
      <point x="523" y="95" type="line" smooth="yes"/>
      <point x="553" y="201" type="line" smooth="yes"/>
      <point x="553" y="218" type="line" smooth="yes"/>
      <point x="538" y="300" type="line" smooth="yes"/>
      <point x="497" y="359" type="line" smooth="yes"/>
      <point x="439" y="398" type="line" smooth="yes"/>
      <point x="495" y="435" type="line" smooth="yes"/>
      <point x="534" y="492" type="line" smooth="yes"/>
      <point x="548" y="570" type="line" smooth="yes"/>
      <point x="548" y="587" type="line" smooth="yes"/>
      <point x="521" y="689" type="line" smooth="yes"/>
      <point x="439" y="764" type="line" smooth="yes"/>
      <point x="300" y="792" type="line" smooth="yes"/>
      <point x="161" y="764" type="line" smooth="yes"/>
      <point x="79" y="689" type="line" smooth="yes"/>
      <point x="52" y="587" type="line" smooth="yes"/>
      <point x="52" y="570" type="line" smooth="yes"/>
      <point x="66" y="492" type="line" smooth="yes"/>
      <point x="105" y="435" type="line" smooth="yes"/>
      <point x="161" y="398" type="line" smooth="yes"/>
      <point x="102" y="359" type="line" smooth="yes"/>
      <point x="62" y="300" type="line" smooth="yes"/>
      <point x="47" y="218" type="line" smooth="yes"/>
      <point x="47" y="201" type="line" smooth="yes"/>
      <point x="77" y="95" type="line" smooth="yes"/>
      <point x="163" y="18" type="line" smooth="yes"/>
    </contour>
  </outline>
</glyph>
<glyph name="nine" format="1">
  <advance width="600"/>
  <unicode hex="0039"/>
  <outline>
    <contour>
      <point x="295" y="381" type="line" smooth="yes"/>
      <point x="290" y="381" type="line" smooth="yes"/>
      <point x="215" y="398" type="line" smooth="yes"/>
      <point x="165" y="448" type="line" smooth="yes"/>
      <point x="147" y="531" type="line" smooth="yes"/>
      <point x="147" y="548" type="line" smooth="yes"/>
      <point x="166" y="631" type="line" smooth="yes"/>
      <point x="217" y="682" type="line" smooth="yes"/>
      <point x="294" y="700" type="line" smooth="yes"/>
      <point x="300" y="700" type="line" smooth="yes"/>
      <point x="375" y="679" type="line" smooth="yes"/>
      <point x="429" y="618" type="line" smooth="yes"/>
      <point x="449" y="520" type="line" smooth="yes"/>
      <point x="449" y="510" type="line" smooth="yes"/>
      <point x="449" y="498" type="line" smooth="yes"/>
      <point x="449" y="486" type="line" smooth="yes"/>
      <point x="448" y="474" type="line" smooth="yes"/>
      <point x="410" y="425" type="line" smooth="yes"/>
      <point x="357" y="392" type="line" smooth="yes"/>
    </contour>
    <contour>
      <point x="81" y="-12" type="line" smooth="yes"/>
      <point x="216" y="3" type="line" smooth="yes"/>
      <point x="340" y="52" type="line" smooth="yes"/>
      <point x="441" y="144" type="line" smooth="yes"/>
      <point x="506" y="259" type="line" smooth="yes"/>
      <point x="541" y="379" type="line" smooth="yes"/>
      <point x="551" y="502" type="line" smooth="yes"/>
      <point x="551" y="513" type="line" smooth="yes"/>
      <point x="519" y="663" type="line" smooth="yes"/>
      <point x="431" y="759" type="line" smooth="yes"/>
      <point x="297" y="792" type="line" smooth="yes"/>
      <point x="162" y="764" type="line" smooth="yes"/>
      <point x="75" y="680" type="line" smooth="yes"/>
      <point x="44" y="545" type="line" smooth="yes"/>
      <point x="44" y="535" type="line" smooth="yes"/>
      <point x="74" y="400" type="line" smooth="yes"/>
      <point x="154" y="317" type="line" smooth="yes"/>
      <point x="273" y="289" type="line" smooth="yes"/>
      <point x="334" y="297" type="line" smooth="yes"/>
      <point x="387" y="317" type="line" smooth="yes"/>
      <point x="430" y="349" type="line" smooth="yes"/>
      <point x="413" y="297" type="line" smooth="yes"/>
      <point x="390" y="248" type="line" smooth="yes"/>
      <point x="360" y="203" type="line" smooth="yes"/>
      <point x="281" y="132" type="line" smooth="yes"/>
      <point x="186" y="93" type="line" smooth="yes"/>
      <point x="81" y="81" type="line" smooth="yes"/>
    </contour>
  </outline>
</glyph>
<glyph name="semicolon" format="1">
  <advance width="234"/>
  <unicode hex="003B"/>
  <outline>
    <contour>
      <point x="174" y="447" type="line" smooth="yes"/>
      <point x="60" y="447" type="line" smooth="yes"/>
      <point x="60" y="333" type="line" smooth="yes"/>
      <point x="174" y="333" type="line" smooth="yes"/>
    </contour>
    <contour>
      <point x="174" y="114" type="line" smooth="yes"/>
      <point x="60" y="114" type="line" smooth="yes"/>
      <point x="60" y="0" type="line" smooth="yes"/>
      <point x="118" y="0" type="line" smooth="yes"/>
      <point x="106" y="-41" type="line" smooth="yes"/>
      <point x="80" y="-64" type="line" smooth="yes"/>
      <point x="42" y="-71" type="line" smooth="yes"/>
      <point x="42" y="-127" type="line" smooth="yes"/>
      <point x="115" y="-110" type="line" smooth="yes"/>
      <point x="159" y="-60" type="line" smooth="yes"/>
      <point x="174" y="24" type="line" smooth="yes"/>
    </contour>
  </outline>
</glyph>
<glyph name="less" format="1">
  <advance width="600"/>
  <unicode hex="003C"/>
  <outline>
    <contour>
      <point x="46" y="440" type="line" smooth="yes"/>
      <point x="46" y="340" type="line" smooth="yes"/>
      <point x="554" y="115" type="line" smooth="yes"/>
      <point x="554" y="217" type="line" smooth="yes"/>
      <point x="150" y="390" type="line" smooth="yes"/>
      <point x="554" y="563" type="line" smooth="yes"/>
      <point x="554" y="665" type="line" smooth="yes"/>
    </contour>
  </outline>
</glyph>
<glyph name="question" format="1">
  <advance width="470"/>
  <unicode hex="003F"/>
  <outline>
    <contour>
      <point x="290" y="114" type="line" smooth="yes"/>
      <point x="176" y="114" type="line" smooth="yes"/>
      <point x="176" y="0" type="line" smooth="yes"/>
      <point x="290" y="0" type="line" smooth="yes"/>
    </contour>
    <contour>
      <point x="239" y="701" type="line" smooth="yes"/>
      <point x="301" y="686" type="line" smooth="yes"/>
      <point x="333" y="643" type="line" smooth="yes"/>
      <point x="342" y="580" type="line" smooth="yes"/>
      <point x="302" y="470" type="line" smooth="yes"/>
      <point x="231" y="361" type="line" smooth="yes"/>
      <point x="198" y="203" type="line" smooth="yes"/>
      <point x="267" y="203" type="line" smooth="yes"/>
      <point x="318" y="345" type="line" smooth="yes"/>
      <point x="401" y="441" type="line" smooth="yes"/>
      <point x="445" y="586" type="line" smooth="yes"/>
      <point x="425" y="691" type="line" smooth="yes"/>
      <point x="360" y="764" type="line" smooth="yes"/>
      <point x="239" y="792" type="line" smooth="yes"/>
      <point x="110" y="758" type="line" smooth="yes"/>
      <point x="44" y="663" type="line" smooth="yes"/>
      <point x="25" y="522" type="line" smooth="yes"/>
      <point x="25" y="509" type="line" smooth="yes"/>
      <point x="127" y="509" type="line" smooth="yes"/>
      <point x="137" y="613" type="line" smooth="yes"/>
      <point x="171" y="678" type="line" smooth="yes"/>
    </contour>
  </outline>
</glyph>
<glyph name="at" format="1">
  <advance width="971"/>
  <unicode hex="0040"/>
  <outline>
    <contour>
      <point x="585" y="391" type="line" smooth="yes"/>
      <point x="585" y="199" type="line" smooth="yes"/>
      <point x="560" y="168" type="line" smooth="yes"/>
      <point x="522" y="141" type="line" smooth="yes"/>
      <point x="470" y="130" type="line" smooth="yes"/>
      <point x="401" y="150" type="line" smooth="yes"/>
      <point x="362" y="203" type="line" smooth="yes"/>
      <point x="349" y="282" type="line" smooth="yes"/>
      <point x="349" y="308" type="line" smooth="yes"/>
      <point x="362" y="387" type="line" smooth="yes"/>
      <point x="401" y="440" type="line" smooth="yes"/>
      <point x="470" y="460" type="line" smooth="yes"/>
      <point x="522" y="449" type="line" smooth="yes"/>
      <point x="560" y="422" type="line" smooth="yes"/>
    </contour>
    <contour>
      <point x="506" y="-140" type="line" smooth="yes"/>
      <point x="297" y="-93" type="line" smooth="yes"/>
      <point x="157" y="44" type="line" smooth="yes"/>
      <point x="105" y="270" type="line" smooth="yes"/>
      <point x="105" y="310" type="line" smooth="yes"/>
      <point x="156" y="533" type="line" smooth="yes"/>
      <point x="295" y="672" type="line" smooth="yes"/>
      <point x="501" y="720" type="line" smooth="yes"/>
      <point x="507" y="720" type="line" smooth="yes"/>
      <point x="680" y="689" type="line" smooth="yes"/>
      <point x="812" y="585" type="line" smooth="yes"/>
      <point x="864" y="392" type="line" smooth="yes"/>
      <point x="864" y="362" type="line" smooth="yes"/>
      <point x="842" y="220" type="line" smooth="yes"/>
      <point x="779" y="151" type="line" smooth="yes"/>
      <point x="676" y="131" type="line" smooth="yes"/>
      <point x="676" y="387" type="line" smooth="yes"/>
      <point x="684" y="530" type="line" smooth="yes"/>
      <point x="605" y="530" type="line" smooth="yes"/>
      <point x="594" y="461" type="line" smooth="yes"/>
      <point x="559" y="502" type="line" smooth="yes"/>
      <point x="510" y="531" type="line" smooth="yes"/>
      <point x="445" y="542" type="line" smooth="yes"/>
      <point x="336" y="510" type="line" smooth="yes"/>
      <point x="273" y="425" type="line" smooth="yes"/>
      <point x="253" y="308" type="line" smooth="yes"/>
      <point x="253" y="282" type="line" smooth="yes"/>
      <point x="273" y="165" type="line" smooth="yes"/>
      <point x="336" y="80" type="line" smooth="yes"/>
      <point x="445" y="48" type="line" smooth="yes"/>
      <point x="510" y="59" type="line" smooth="yes"/>
      <point x="559" y="87" type="line" smooth="yes"/>
      <point x="594" y="128" type="line" smooth="yes"/>
      <point x="605" y="60" type="line" smooth="yes"/>
      <point x="671" y="60" type="line" smooth="yes"/>
      <point x="810" y="85" type="line" smooth="yes"/>
      <point x="905" y="177" type="line" smooth="yes"/>
      <point x="941" y="362" type="line" smooth="yes"/>
      <point x="941" y="392" type="line" smooth="yes"/>
      <point x="880" y="618" type="line" smooth="yes"/>
      <point x="722" y="750" type="line" smooth="yes"/>
      <point x="504" y="792" type="line" smooth="yes"/>
      <point x="258" y="735" type="line" smooth="yes"/>
      <point x="92" y="571" type="line" smooth="yes"/>
      <point x="31" y="310" type="line" smooth="yes"/>
      <point x="31" y="270" type="line" smooth="yes"/>
      <point x="92" y="9" type="line" smooth="yes"/>
      <point x="260" y="-155" type="line" smooth="yes"/>
      <point x="509" y="-212" type="line" smooth="yes"/>
      <point x="630" y="-202" type="line" smooth="yes"/>
      <point x="756" y="-166" type="line" smooth="yes"/>
      <point x="883" y="-90" type="line" smooth="yes"/>
      <point x="841" y="-34" type="line" smooth="yes"/>
      <point x="738" y="-94" type="line" smooth="yes"/>
      <point x="629" y="-129" type="line" smooth="yes"/>
      <point x="512" y="-140" type="line" smooth="yes"/>
    </contour>
  </outline>
</glyph>
<glyph name="A" format="1">
  <advance width="621"/>
  <unicode hex="0041"/>
  <outline>
    <contour>
      <point x="311" y="669" type="line" smooth="yes"/>
      <point x="413" y="280" type="line" smooth="yes"/>
      <point x="209" y="280" type="line" smooth="yes"/>
    </contour>
    <contour>
      <point x="238" y="786" type="line" smooth="yes"/>
      <point x="23" y="0" type="line" smooth="yes"/>
      <point x="136" y="0" type="line" smooth="yes"/>
      <point x="185" y="188" type="line" smooth="yes"/>
      <point x="437" y="188" type="line" smooth="yes"/>
      <point x="486" y="0" type="line" smooth="yes"/>
      <point x="598" y="0" type="line" smooth="yes"/>
      <point x="383" y="786" type="line" smooth="yes"/>
    </contour>
  </outline>
</glyph>
<glyph name="D" format="1">
  <advance width="647"/>
  <unicode hex="0044"/>
  <outline>
    <contour>
      <point x="171" y="92" type="line" smooth="yes"/>
      <point x="171" y="688" type="line" smooth="yes"/>
      <point x="279" y="688" type="line" smooth="yes"/>
      <point x="398" y="660" type="line" smooth="yes"/>
      <point x="467" y="570" type="line" smooth="yes"/>
      <point x="490" y="410" type="line" smooth="yes"/>
      <point x="490" y="370" type="line" smooth="yes"/>
      <point x="467" y="210" type="line" smooth="yes"/>
      <point x="398" y="120" type="line" smooth="yes"/>
      <point x="279" y="92" type="line" smooth="yes"/>
    </contour>
    <contour>
      <point x="597" y="370" type="line" smooth="yes"/>
      <point x="597" y="410" type="line" smooth="yes"/>
      <point x="562" y="626" type="line" smooth="yes"/>
      <point x="458" y="744" type="line" smooth="yes"/>
      <point x="286" y="780" type="line" smooth="yes"/>
      <point x="67" y="780" type="line" smooth="yes"/>
      <point x="67" y="0" type="line" smooth="yes"/>
      <point x="286" y="0" type="line" smooth="yes"/>
      <point x="458" y="36" type="line" smooth="yes"/>
      <point x="562" y="154" type="line" smooth="yes"/>
    </contour>
  </outline>
</glyph>
<glyph name="F" format="1">
  <advance width="526"/>
  <unicode hex="0046"/>
  <outline>
    <contour>
      <point x="67" y="780" type="line" smooth="yes"/>
      <point x="67" y="0" type="line" smooth="yes"/>
      <point x="171" y="0" type="line" smooth="yes"/>
      <point x="171" y="352" type="line" smooth="yes"/>
      <point x="456" y="352" type="line" smooth="yes"/>
      <point x="456" y="444" type="line" smooth="yes"/>
      <point x="171" y="444" type="line" smooth="yes"/>
      <point x="171" y="688" type="line" smooth="yes"/>
      <point x="506" y="688" type="line" smooth="yes"/>
      <point x="506" y="780" type="line" smooth="yes"/>
    </contour>
  </outline>
</glyph>
<glyph name="J" format="1">
  <advance width="510"/>
  <unicode hex="004A"/>
  <outline>
    <contour>
      <point x="344" y="780" type="line" smooth="yes"/>
      <point x="344" y="254" type="line" smooth="yes"/>
      <point x="333" y="156" type="line" smooth="yes"/>
      <point x="299" y="99" type="line" smooth="yes"/>
      <point x="234" y="80" type="line" smooth="yes"/>
      <point x="170" y="99" type="line" smooth="yes"/>
      <point x="135" y="158" type="line" smooth="yes"/>
      <point x="125" y="259" type="line" smooth="yes"/>
      <point x="27" y="259" type="line" smooth="yes"/>
      <point x="27" y="240" type="line" smooth="yes"/>
      <point x="47" y="104" type="line" smooth="yes"/>
      <point x="113" y="18" type="line" smooth="yes"/>
      <point x="237" y="-12" type="line" smooth="yes"/>
      <point x="359" y="18" type="line" smooth="yes"/>
      <point x="427" y="104" type="line" smooth="yes"/>
      <point x="448" y="239" type="line" smooth="yes"/>
      <point x="448" y="780" type="line" smooth="yes"/>
    </contour>
  </outline>
</glyph>
<glyph name="L" format="1">
  <advance width="501"/>
  <unicode hex="004C"/>
  <outline>
    <contour>
      <point x="486" y="0" type="line" smooth="yes"/>
      <point x="486" y="92" type="line" smooth="yes"/>
      <point x="171" y="92" type="line" smooth="yes"/>
      <point x="171" y="780" type="line" smooth="yes"/>
      <point x="67" y="780" type="line" smooth="yes"/>
      <point x="67" y="0" type="line" smooth="yes"/>
    </contour>
  </outline>
</glyph>
<glyph name="Q" format="1">
  <advance width="657"/>
  <unicode hex="0051"/>
  <outline>
    <contour>
      <point x="366" y="239" type="line" smooth="yes"/>
      <point x="283" y="239" type="line" smooth="yes"/>
      <point x="343" y="80" type="line" smooth="yes"/>
      <point x="325" y="80" type="line" smooth="yes"/>
      <point x="228" y="111" type="line" smooth="yes"/>
      <point x="174" y="207" type="line" smooth="yes"/>
      <point x="157" y="370" type="line" smooth="yes"/>
      <point x="157" y="410" type="line" smooth="yes"/>
      <point x="174" y="573" type="line" smooth="yes"/>
      <point x="228" y="669" type="line" smooth="yes"/>
      <point x="325" y="700" type="line" smooth="yes"/>
      <point x="332" y="700" type="line" smooth="yes"/>
      <point x="429" y="669" type="line" smooth="yes"/>
      <point x="483" y="573" type="line" smooth="yes"/>
      <point x="500" y="410" type="line" smooth="yes"/>
      <point x="500" y="370" type="line" smooth="yes"/>
      <point x="492" y="247" type="line" smooth="yes"/>
      <point x="465" y="158" type="line" smooth="yes"/>
      <point x="419" y="103" type="line" smooth="yes"/>
    </contour>
    <contour>
      <point x="329" y="-12" type="line" smooth="yes"/>
      <point x="345" y="-12" type="line" smooth="yes"/>
      <point x="361" y="-11" type="line" smooth="yes"/>
      <point x="376" y="-9" type="line" smooth="yes"/>
      <point x="411" y="-100" type="line" smooth="yes"/>
      <point x="498" y="-100" type="line" smooth="yes"/>
      <point x="455" y="11" type="line" smooth="yes"/>
      <point x="540" y="80" type="line" smooth="yes"/>
      <point x="590" y="198" type="line" smooth="yes"/>
      <point x="607" y="370" type="line" smooth="yes"/>
      <point x="607" y="410" type="line" smooth="yes"/>
      <point x="576" y="629" type="line" smooth="yes"/>
      <point x="484" y="753" type="line" smooth="yes"/>
      <point x="329" y="792" type="line" smooth="yes"/>
      <point x="173" y="753" type="line" smooth="yes"/>
      <point x="81" y="629" type="line" smooth="yes"/>
      <point x="50" y="410" type="line" smooth="yes"/>
      <point x="50" y="370" type="line" smooth="yes"/>
      <point x="81" y="151" type="line" smooth="yes"/>
      <point x="173" y="27" type="line" smooth="yes"/>
    </contour>
  </outline>
</glyph>
<glyph name="R" format="1">
  <advance width="598"/>
  <unicode hex="0052"/>
  <outline>
    <contour>
      <point x="171" y="395" type="line" smooth="yes"/>
      <point x="171" y="688" type="line" smooth="yes"/>
      <point x="301" y="688" type="line" smooth="yes"/>
      <point x="364" y="678" type="line" smooth="yes"/>
      <point x="419" y="637" type="line" smooth="yes"/>
      <point x="442" y="548" type="line" smooth="yes"/>
      <point x="442" y="535" type="line" smooth="yes"/>
      <point x="419" y="446" type="line" smooth="yes"/>
      <point x="364" y="405" type="line" smooth="yes"/>
      <point x="301" y="395" type="line" smooth="yes"/>
    </contour>
    <contour>
      <point x="171" y="304" type="line" smooth="yes"/>
      <point x="317" y="304" type="line" smooth="yes"/>
      <point x="435" y="0" type="line" smooth="yes"/>
      <point x="548" y="0" type="line" smooth="yes"/>
      <point x="418" y="322" type="line" smooth="yes"/>
      <point x="484" y="360" type="line" smooth="yes"/>
      <point x="530" y="428" type="line" smooth="yes"/>
      <point x="548" y="532" type="line" smooth="yes"/>
      <point x="548" y="552" type="line" smooth="yes"/>
      <point x="509" y="695" type="line" smooth="yes"/>
      <point x="415" y="763" type="line" smooth="yes"/>
      <point x="298" y="780" type="line" smooth="yes"/>
      <point x="67" y="780" type="line" smooth="yes"/>
      <point x="67" y="0" type="line" smooth="yes"/>
      <point x="171" y="0" type="line" smooth="yes"/>
    </contour>
  </outline>
</glyph>
<glyph name="bracketright" format="1">
  <advance width="334"/>
  <unicode hex="005D"/>
  <outline>
    <contour>
      <point x="271" y="-120" type="line" smooth="yes"/>
      <point x="271" y="840" type="line" smooth="yes"/>
      <point x="39" y="840" type="line" smooth="yes"/>
      <point x="39" y="749" type="line" smooth="yes"/>
      <point x="169" y="749" type="line" smooth="yes"/>
      <point x="169" y="-29" type="line" smooth="yes"/>
      <point x="39" y="-29" type="line" smooth="yes"/>
      <point x="39" y="-120" type="line" smooth="yes"/>
    </contour>
  </outline>
</glyph>
<glyph name="b" format="1">
  <advance width="550"/>
  <unicode hex="0062"/>
  <outline>
    <contour>
      <point x="161" y="383" type="line" smooth="yes"/>
      <point x="186" y="414" type="line" smooth="yes"/>
      <point x="226" y="442" type="line" smooth="yes"/>
      <point x="281" y="454" type="line" smooth="yes"/>
      <point x="352" y="433" type="line" smooth="yes"/>
      <point x="394" y="372" type="line" smooth="yes"/>
      <point x="407" y="279" type="line" smooth="yes"/>
      <point x="407" y="251" type="line" smooth="yes"/>
      <point x="394" y="158" type="line" smooth="yes"/>
      <point x="352" y="97" type="line" smooth="yes"/>
      <point x="281" y="76" type="line" smooth="yes"/>
      <point x="226" y="88" type="line" smooth="yes"/>
      <point x="186" y="116" type="line" smooth="yes"/>
      <point x="161" y="147" type="line" smooth="yes"/>
    </contour>
    <contour>
      <point x="161" y="800" type="line" smooth="yes"/>
      <point x="61" y="800" type="line" smooth="yes"/>
      <point x="61" y="150" type="line" smooth="yes"/>
      <point x="54" y="0" type="line" smooth="yes"/>
      <point x="141" y="0" type="line" smooth="yes"/>
      <point x="151" y="69" type="line" smooth="yes"/>
      <point x="186" y="28" type="line" smooth="yes"/>
      <point x="238" y="-1" type="line" smooth="yes"/>
      <point x="307" y="-12" type="line" smooth="yes"/>
      <point x="424" y="23" type="line" smooth="yes"/>
      <point x="488" y="117" type="line" smooth="yes"/>
      <point x="508" y="251" type="line" smooth="yes"/>
      <point x="508" y="279" type="line" smooth="yes"/>
      <point x="488" y="413" type="line" smooth="yes"/>
      <point x="424" y="507" type="line" smooth="yes"/>
      <point x="307" y="542" type="line" smooth="yes"/>
      <point x="244" y="533" type="line" smooth="yes"/>
      <point x="196" y="509" type="line" smooth="yes"/>
      <point x="161" y="474" type="line" smooth="yes"/>
    </contour>
  </outline>
</glyph>
<glyph name="f" format="1">
  <advance width="391"/>
  <unicode hex="0066"/>
  <outline>
    <contour>
      <point x="210" y="629" type="line" smooth="yes"/>
      <point x="221" y="688" type="line" smooth="yes"/>
      <point x="252" y="716" type="line" smooth="yes"/>
      <point x="303" y="724" type="line" smooth="yes"/>
      <point x="325" y="723" type="line" smooth="yes"/>
      <point x="345" y="719" type="line" smooth="yes"/>
      <point x="358" y="716" type="line" smooth="yes"/>
      <point x="358" y="800" type="line" smooth="yes"/>
      <point x="344" y="805" type="line" smooth="yes"/>
      <point x="318" y="810" type="line" smooth="yes"/>
      <point x="280" y="812" type="line" smooth="yes"/>
      <point x="191" y="795" type="line" smooth="yes"/>
      <point x="132" y="741" type="line" smooth="yes"/>
      <point x="110" y="640" type="line" smooth="yes"/>
      <point x="110" y="530" type="line" smooth="yes"/>
      <point x="27" y="530" type="line" smooth="yes"/>
      <point x="27" y="441" type="line" smooth="yes"/>
      <point x="110" y="441" type="line" smooth="yes"/>
      <point x="110" y="0" type="line" smooth="yes"/>
      <point x="210" y="0" type="line" smooth="yes"/>
      <point x="210" y="441" type="line" smooth="yes"/>
      <point x="348" y="441" type="line" smooth="yes"/>
      <point x="348" y="530" type="line" smooth="yes"/>
      <point x="210" y="530" type="line" smooth="yes"/>
    </contour>
  </outline>
</glyph>
<glyph name="h" format="1">
  <advance width="545"/>
  <unicode hex="0068"/>
  <outline>
    <contour>
      <point x="162" y="800" type="line" smooth="yes"/>
      <point x="62" y="800" type="line" smooth="yes"/>
      <point x="62" y="0" type="line" smooth="yes"/>
      <point x="162" y="0" type="line" smooth="yes"/>
      <point x="162" y="383" type="line" smooth="yes"/>
      <point x="187" y="414" type="line" smooth="yes"/>
      <point x="229" y="442" type="line" smooth="yes"/>
      <point x="290" y="454" type="line" smooth="yes"/>
      <point x="345" y="442" type="line" smooth="yes"/>
      <point x="379" y="407" type="line" smooth="yes"/>
      <point x="390" y="351" type="line" smooth="yes"/>
      <point x="390" y="0" type="line" smooth="yes"/>
      <point x="489" y="0" type="line" smooth="yes"/>
      <point x="489" y="367" type="line" smooth="yes"/>
      <point x="472" y="456" type="line" smooth="yes"/>
      <point x="418" y="518" type="line" smooth="yes"/>
      <point x="327" y="542" type="line" smooth="yes"/>
      <point x="256" y="533" type="line" smooth="yes"/>
      <point x="202" y="508" type="line" smooth="yes"/>
      <point x="162" y="471" type="line" smooth="yes"/>
    </contour>
  </outline>
</glyph>
<glyph name="j" format="1">
  <advance width="234"/>
  <unicode hex="006A"/>
  <outline>
    <contour>
      <point x="174" y="754" type="line" smooth="yes"/>
      <point x="60" y="754" type="line" smooth="yes"/>
      <point x="60" y="640" type="line" smooth="yes"/>
      <point x="174" y="640" type="line" smooth="yes"/>
    </contour>
    <contour>
      <point x="67" y="-29" type="line" smooth="yes"/>
      <point x="56" y="-88" type="line" smooth="yes"/>
      <point x="24" y="-116" type="line" smooth="yes"/>
      <point x="-27" y="-124" type="line" smooth="yes"/>
      <point x="-49" y="-123" type="line" smooth="yes"/>
      <point x="-69" y="-119" type="line" smooth="yes"/>
      <point x="-81" y="-116" type="line" smooth="yes"/>
      <point x="-81" y="-200" type="line" smooth="yes"/>
      <point x="-67" y="-205" type="line" smooth="yes"/>
      <point x="-41" y="-210" type="line" smooth="yes"/>
      <point x="-3" y="-212" type="line" smooth="yes"/>
      <point x="85" y="-195" type="line" smooth="yes"/>
      <point x="145" y="-141" type="line" smooth="yes"/>
      <point x="167" y="-40" type="line" smooth="yes"/>
      <point x="167" y="530" type="line" smooth="yes"/>
      <point x="67" y="530" type="line" smooth="yes"/>
    </contour>
  </outline>
</glyph>
<glyph name="k" format="1">
  <advance width="522"/>
  <unicode hex="006B"/>
  <outline>
    <contour>
      <point x="60" y="0" type="line" smooth="yes"/>
      <point x="160" y="0" type="line" smooth="yes"/>
      <point x="160" y="153" type="line" smooth="yes"/>
      <point x="249" y="253" type="line" smooth="yes"/>
      <point x="382" y="0" type="line" smooth="yes"/>
      <point x="498" y="0" type="line" smooth="yes"/>
      <point x="318" y="330" type="line" smooth="yes"/>
      <point x="498" y="530" type="line" smooth="yes"/>
      <point x="376" y="530" type="line" smooth="yes"/>
      <point x="160" y="283" type="line" smooth="yes"/>
      <point x="160" y="800" type="line" smooth="yes"/>
      <point x="60" y="800" type="line" smooth="yes"/>
    </contour>
  </outline>
</glyph>
<glyph name="m" format="1">
  <advance width="825"/>
  <unicode hex="006D"/>
  <outline>
    <contour>
      <point x="768" y="0" type="line" smooth="yes"/>
      <point x="768" y="377" type="line" smooth="yes"/>
      <point x="751" y="464" type="line" smooth="yes"/>
      <point x="701" y="521" type="line" smooth="yes"/>
      <point x="617" y="542" type="line" smooth="yes"/>
      <point x="544" y="530" type="line" smooth="yes"/>
      <point x="489" y="500" type="line" smooth="yes"/>
      <point x="451" y="456" type="line" smooth="yes"/>
      <point x="422" y="502" type="line" smooth="yes"/>
      <point x="376" y="532" type="line" smooth="yes"/>
      <point x="314" y="542" type="line" smooth="yes"/>
      <point x="243" y="531" type="line" smooth="yes"/>
      <point x="190" y="502" type="line" smooth="yes"/>
      <point x="152" y="461" type="line" smooth="yes"/>
      <point x="141" y="530" type="line" smooth="yes"/>
      <point x="55" y="530" type="line" smooth="yes"/>
      <point x="62" y="380" type="line" smooth="yes"/>
      <point x="62" y="0" type="line" smooth="yes"/>
      <point x="162" y="0" type="line" smooth="yes"/>
      <point x="162" y="385" type="line" smooth="yes"/>
      <point x="186" y="416" type="line" smooth="yes"/>
      <point x="223" y="443" type="line" smooth="yes"/>
      <point x="277" y="454" type="line" smooth="yes"/>
      <point x="324" y="445" type="line" smooth="yes"/>
      <point x="354" y="416" type="line" smooth="yes"/>
      <point x="365" y="362" type="line" smooth="yes"/>
      <point x="365" y="0" type="line" smooth="yes"/>
      <point x="465" y="0" type="line" smooth="yes"/>
      <point x="465" y="385" type="line" smooth="yes"/>
      <point x="489" y="416" type="line" smooth="yes"/>
      <point x="526" y="443" type="line" smooth="yes"/>
      <point x="580" y="454" type="line" smooth="yes"/>
      <point x="628" y="445" type="line" smooth="yes"/>
      <point x="658" y="416" type="line" smooth="yes"/>
      <point x="669" y="362" type="line" smooth="yes"/>
      <point x="669" y="0" type="line" smooth="yes"/>
    </contour>
  </outline>
</glyph>
<glyph name="q" format="1">
  <advance width="553"/>
  <unicode hex="0071"/>
  <outline>
    <contour>
      <point x="390" y="147" type="line" smooth="yes"/>
      <point x="365" y="116" type="line" smooth="yes"/>
      <point x="325" y="88" type="line" smooth="yes"/>
      <point x="270" y="76" type="line" smooth="yes"/>
      <point x="199" y="97" type="line" smooth="yes"/>
      <point x="158" y="158" type="line" smooth="yes"/>
      <point x="145" y="251" type="line" smooth="yes"/>
      <point x="145" y="279" type="line" smooth="yes"/>
      <point x="158" y="372" type="line" smooth="yes"/>
      <point x="199" y="433" type="line" smooth="yes"/>
      <point x="270" y="454" type="line" smooth="yes"/>
      <point x="325" y="442" type="line" smooth="yes"/>
      <point x="365" y="414" type="line" smooth="yes"/>
      <point x="390" y="383" type="line" smooth="yes"/>
    </contour>
    <contour>
      <point x="390" y="-200" type="line" smooth="yes"/>
      <point x="490" y="-200" type="line" smooth="yes"/>
      <point x="490" y="380" type="line" smooth="yes"/>
      <point x="497" y="530" type="line" smooth="yes"/>
      <point x="410" y="530" type="line" smooth="yes"/>
      <point x="399" y="461" type="line" smooth="yes"/>
      <point x="364" y="502" type="line" smooth="yes"/>
      <point x="313" y="531" type="line" smooth="yes"/>
      <point x="245" y="542" type="line" smooth="yes"/>
      <point x="128" y="507" type="line" smooth="yes"/>
      <point x="64" y="413" type="line" smooth="yes"/>
      <point x="44" y="279" type="line" smooth="yes"/>
      <point x="44" y="251" type="line" smooth="yes"/>
      <point x="64" y="117" type="line" smooth="yes"/>
      <point x="128" y="23" type="line" smooth="yes"/>
      <point x="245" y="-12" type="line" smooth="yes"/>
      <point x="307" y="-3" type="line" smooth="yes"/>
      <point x="354" y="20" type="line" smooth="yes"/>
      <point x="390" y="54" type="line" smooth="yes"/>
    </contour>
  </outline>
</glyph>
<glyph name="r" format="1">
  <advance width="350"/>
  <unicode hex="0072"/>
  <outline>
    <contour>
      <point x="297" y="542" type="line" smooth="yes"/>
      <point x="236" y="531" type="line" smooth="yes"/>
      <point x="187" y="503" type="line" smooth="yes"/>
      <point x="151" y="462" type="line" smooth="yes"/>
      <point x="141" y="530" type="line" smooth="yes"/>
      <point x="55" y="530" type="line" smooth="yes"/>
      <point x="62" y="380" type="line" smooth="yes"/>
      <point x="62" y="0" type="line" smooth="yes"/>
      <point x="162" y="0" type="line" smooth="yes"/>
      <point x="162" y="377" type="line" smooth="yes"/>
      <point x="188" y="408" type="line" smooth="yes"/>
      <point x="231" y="434" type="line" smooth="yes"/>
      <point x="294" y="445" type="line" smooth="yes"/>
      <point x="312" y="445" type="line" smooth="yes"/>
      <point x="312" y="541" type="line" smooth="yes"/>
      <point x="309" y="541" type="line" smooth="yes"/>
      <point x="303" y="542" type="line" smooth="yes"/>
    </contour>
  </outline>
</glyph>
<glyph name="braceleft" format="1">
  <advance width="334"/>
  <unicode hex="007B"/>
  <outline>
    <contour>
      <point x="296" y="840" type="line" smooth="yes"/>
      <point x="274" y="840" type="line" smooth="yes"/>
      <point x="190" y="826" type="line" smooth="yes"/>
      <point x="129" y="779" type="line" smooth="yes"/>
      <point x="106" y="687" type="line" smooth="yes"/>
      <point x="106" y="491" type="line" smooth="yes"/>
      <point x="97" y="439" type="line" smooth="yes"/>
      <point x="70" y="413" type="line" smooth="yes"/>
      <point x="25" y="406" type="line" smooth="yes"/>
      <point x="25" y="314" type="line" smooth="yes"/>
      <point x="70" y="307" type="line" smooth="yes"/>
      <point x="97" y="281" type="line" smooth="yes"/>
      <point x="106" y="229" type="line" smooth="yes"/>
      <point x="106" y="33" type="line" smooth="yes"/>
      <point x="129" y="-59" type="line" smooth="yes"/>
      <point x="190" y="-106" type="line" smooth="yes"/>
      <point x="274" y="-120" type="line" smooth="yes"/>
      <point x="296" y="-120" type="line" smooth="yes"/>
      <point x="296" y="-29" type="line" smooth="yes"/>
      <point x="248" y="-21" type="line" smooth="yes"/>
      <point x="218" y="10" type="line" smooth="yes"/>
      <point x="208" y="68" type="line" smooth="yes"/>
      <point x="208" y="253" type="line" smooth="yes"/>
      <point x="201" y="301" type="line" smooth="yes"/>
      <point x="182" y="336" type="line" smooth="yes"/>
      <point x="152" y="360" type="line" smooth="yes"/>
      <point x="182" y="384" type="line" smooth="yes"/>
      <point x="201" y="419" type="line" smooth="yes"/>
      <point x="208" y="467" type="line" smooth="yes"/>
      <point x="208" y="652" type="line" smooth="yes"/>
      <point x="218" y="710" type="line" smooth="yes"/>
      <point x="248" y="741" type="line" smooth="yes"/>
      <point x="296" y="749" type="line" smooth="yes"/>
    </contour>
  </outline>
</glyph>
<glyph name="braceright" format="1">
  <advance width="334"/>
  <unicode hex="007D"/>
  <outline>
    <contour>
      <point x="39" y="-120" type="line" smooth="yes"/>
      <point x="60" y="-120" type="line" smooth="yes"/>
      <point x="144" y="-106" type="line" smooth="yes"/>
      <point x="205" y="-59" type="line" smooth="yes"/>
      <point x="228" y="33" type="line" smooth="yes"/>
      <point x="228" y="229" type="line" smooth="yes"/>
      <point x="237" y="281" type="line" smooth="yes"/>
      <point x="264" y="307" type="line" smooth="yes"/>
      <point x="310" y="314" type="line" smooth="yes"/>
      <point x="310" y="406" type="line" smooth="yes"/>
      <point x="264" y="413" type="line" smooth="yes"/>
      <point x="237" y="439" type="line" smooth="yes"/>
      <point x="228" y="491" type="line" smooth="yes"/>
      <point x="228" y="687" type="line" smooth="yes"/>
      <point x="205" y="779" type="line" smooth="yes"/>
      <point x="144" y="826" type="line" smooth="yes"/>
      <point x="60" y="840" type="line" smooth="yes"/>
      <point x="39" y="840" type="line" smooth="yes"/>
      <point x="39" y="749" type="line" smooth="yes"/>
      <point x="86" y="741" type="line" smooth="yes"/>
      <point x="116" y="710" type="line" smooth="yes"/>
      <point x="126" y="652" type="line" smooth="yes"/>
      <point x="126" y="467" type="line" smooth="yes"/>
      <point x="133" y="419" type="line" smooth="yes"/>
      <point x="152" y="384" type="line" smooth="yes"/>
      <point x="182" y="360" type="line" smooth="yes"/>
      <point x="152" y="336" type="line" smooth="yes"/>
      <point x="133" y="301" type="line" smooth="yes"/>
      <point x="126" y="253" type="line" smooth="yes"/>
      <point x="126" y="68" type="line" smooth="yes"/>
      <point x="116" y="10" type="line" smooth="yes"/>
      <point x="86" y="-21" type="line" smooth="yes"/>
      <point x="39" y="-29" type="line" smooth="yes"/>
    </contour>
  </outline>
</glyph>
<glyph name="asciitilde" format="1">
  <advance width="600"/>
  <unicode hex="007E"/>
  <outline>
    <contour>
      <point x="179" y="462" type="line" smooth="yes"/>
      <point x="116" y="449" type="line" smooth="yes"/>
      <point x="68" y="418" type="line" smooth="yes"/>
      <point x="34" y="380" type="line" smooth="yes"/>
      <point x="86" y="327" type="line" smooth="yes"/>
      <point x="109" y="351" type="line" smooth="yes"/>
      <point x="141" y="372" type="line" smooth="yes"/>
      <point x="181" y="381" type="line" smooth="yes"/>
      <point x="257" y="363" type="line" smooth="yes"/>
      <point x="330" y="330" type="line" smooth="yes"/>
      <point x="421" y="312" type="line" smooth="yes"/>
      <point x="484" y="325" type="line" smooth="yes"/>
      <point x="532" y="355" type="line" smooth="yes"/>
      <point x="566" y="394" type="line" smooth="yes"/>
      <point x="514" y="446" type="line" smooth="yes"/>
      <point x="491" y="423" type="line" smooth="yes"/>
      <point x="459" y="402" type="line" smooth="yes"/>
      <point x="419" y="393" type="line" smooth="yes"/>
      <point x="343" y="411" type="line" smooth="yes"/>
      <point x="270" y="444" type="line" smooth="yes"/>
    </contour>
  </outline>
</glyph>
<glyph name="exclamdown" format="1">
  <advance width="234"/>
  <unicode hex="00A1"/>
  <outline>
    <contour>
      <point x="174" y="530" type="line" smooth="yes"/>
      <point x="60" y="530" type="line" smooth="yes"/>
      <point x="60" y="416" type="line" smooth="yes"/>
      <point x="174" y="416" type="line" smooth="yes"/>
    </contour>
    <contour>
      <point x="179" y="-200" type="line" smooth="yes"/>
      <point x="152" y="327" type="line" smooth="yes"/>
      <point x="82" y="327" type="line" smooth="yes"/>
      <point x="55" y="-200" type="line" smooth="yes"/>
    </contour>
  </outline>
</glyph>
<glyph name="cent" format="1">
  <advance width="600"/>
  <unicode hex="00A2"/>
  <outline>
    <contour>
      <point x="158" y="375" type="line" smooth="yes"/>
      <point x="158" y="406" type="line" smooth="yes"/>
      <point x="174" y="533" type="line" smooth="yes"/>
      <point x="225" y="611" type="line" smooth="yes"/>
      <point x="311" y="637" type="line" smooth="yes"/>
      <point x="313" y="637" type="line" smooth="yes"/>
      <point x="206" y="188" type="line" smooth="yes"/>
      <point x="179" y="234" type="line" smooth="yes"/>
      <point x="163" y="296" type="line" smooth="yes"/>
    </contour>
    <contour>
      <point x="444" y="840" type="line" smooth="yes"/>
      <point x="362" y="840" type="line" smooth="yes"/>
      <point x="335" y="728" type="line" smooth="yes"/>
      <point x="327" y="729" type="line" smooth="yes"/>
      <point x="319" y="729" type="line" smooth="yes"/>
      <point x="311" y="729" type="line" smooth="yes"/>
      <point x="167" y="692" type="line" smooth="yes"/>
      <point x="82" y="583" type="line" smooth="yes"/>
      <point x="54" y="406" type="line" smooth="yes"/>
      <point x="54" y="375" type="line" smooth="yes"/>
      <point x="68" y="243" type="line" smooth="yes"/>
      <point x="110" y="145" type="line" smooth="yes"/>
      <point x="181" y="82" type="line" smooth="yes"/>
      <point x="147" y="-60" type="line" smooth="yes"/>
      <point x="229" y="-60" type="line" smooth="yes"/>
      <point x="257" y="57" type="line" smooth="yes"/>
      <point x="274" y="55" type="line" smooth="yes"/>
      <point x="292" y="53" type="line" smooth="yes"/>
      <point x="311" y="53" type="line" smooth="yes"/>
      <point x="443" y="80" type="line" smooth="yes"/>
      <point x="521" y="156" type="line" smooth="yes"/>
      <point x="546" y="272" type="line" smooth="yes"/>
      <point x="546" y="287" type="line" smooth="yes"/>
      <point x="445" y="287" type="line" smooth="yes"/>
      <point x="432" y="212" type="line" smooth="yes"/>
      <point x="390" y="163" type="line" smooth="yes"/>
      <point x="315" y="145" type="line" smooth="yes"/>
      <point x="311" y="145" type="line" smooth="yes"/>
      <point x="299" y="145" type="line" smooth="yes"/>
      <point x="288" y="146" type="line" smooth="yes"/>
      <point x="278" y="148" type="line" smooth="yes"/>
      <point x="391" y="618" type="line" smooth="yes"/>
      <point x="422" y="585" type="line" smooth="yes"/>
      <point x="439" y="537" type="line" smooth="yes"/>
      <point x="445" y="473" type="line" smooth="yes"/>
      <point x="546" y="473" type="line" smooth="yes"/>
      <point x="546" y="499" type="line" smooth="yes"/>
      <point x="532" y="595" type="line" smooth="yes"/>
      <point x="488" y="667" type="line" smooth="yes"/>
      <point x="414" y="713" type="line" smooth="yes"/>
    </contour>
  </outline>
</glyph>
<glyph name="sterling" format="1">
  <advance width="600"/>
  <unicode hex="00A3"/>
  <outline>
    <contour>
      <point x="326" y="701" type="line" smooth="yes"/>
      <point x="397" y="676" type="line" smooth="yes"/>
      <point x="436" y="607" type="line" smooth="yes"/>
      <point x="449" y="500" type="line" smooth="yes"/>
      <point x="551" y="500" type="line" smooth="yes"/>
      <point x="551" y="514" type="line" smooth="yes"/>
      <point x="530" y="661" type="line" smooth="yes"/>
      <point x="458" y="757" type="line" smooth="yes"/>
      <point x="326" y="792" type="line" smooth="yes"/>
      <point x="201" y="763" type="line" smooth="yes"/>
      <point x="131" y="687" type="line" smooth="yes"/>
      <point x="108" y="579" type="line" smooth="yes"/>
      <point x="111" y="524" type="line" smooth="yes"/>
      <point x="117" y="472" type="line" smooth="yes"/>
      <point x="128" y="423" type="line" smooth="yes"/>
      <point x="51" y="423" type="line" smooth="yes"/>
      <point x="51" y="332" type="line" smooth="yes"/>
      <point x="154" y="332" type="line" smooth="yes"/>
      <point x="178" y="256" type="line" smooth="yes"/>
      <point x="199" y="176" type="line" smooth="yes"/>
      <point x="212" y="92" type="line" smooth="yes"/>
      <point x="51" y="92" type="line" smooth="yes"/>
      <point x="51" y="0" type="line" smooth="yes"/>
      <point x="549" y="0" type="line" smooth="yes"/>
      <point x="549" y="92" type="line" smooth="yes"/>
      <point x="302" y="92" type="line" smooth="yes"/>
      <point x="293" y="177" type="line" smooth="yes"/>
      <point x="277" y="257" type="line" smooth="yes"/>
      <point x="258" y="332" type="line" smooth="yes"/>
      <point x="426" y="332" type="line" smooth="yes"/>
      <point x="426" y="423" type="line" smooth="yes"/>
      <point x="234" y="423" type="line" smooth="yes"/>
      <point x="222" y="474" type="line" smooth="yes"/>
      <point x="214" y="523" type="line" smooth="yes"/>
      <point x="211" y="570" type="line" smooth="yes"/>
      <point x="223" y="639" type="line" smooth="yes"/>
      <point x="261" y="685" type="line" smooth="yes"/>
    </contour>
  </outline>
</glyph>
<glyph name="section" format="1">
  <advance width="526"/>
  <unicode hex="00A7"/>
  <outline>
    <contour>
      <point x="385" y="390" type="line" smooth="yes"/>
      <point x="372" y="344" type="line" smooth="yes"/>
      <point x="333" y="314" type="line" smooth="yes"/>
      <point x="269" y="303" type="line" smooth="yes"/>
      <point x="253" y="303" type="line" smooth="yes"/>
      <point x="188" y="316" type="line" smooth="yes"/>
      <point x="152" y="343" type="line" smooth="yes"/>
      <point x="140" y="390" type="line" smooth="yes"/>
      <point x="153" y="436" type="line" smooth="yes"/>
      <point x="192" y="466" type="line" smooth="yes"/>
      <point x="257" y="477" type="line" smooth="yes"/>
      <point x="273" y="477" type="line" smooth="yes"/>
      <point x="337" y="464" type="line" smooth="yes"/>
      <point x="374" y="437" type="line" smooth="yes"/>
    </contour>
    <contour>
      <point x="488" y="391" type="line" smooth="yes"/>
      <point x="488" y="397" type="line" smooth="yes"/>
      <point x="465" y="482" type="line" smooth="yes"/>
      <point x="398" y="530" type="line" smooth="yes"/>
      <point x="287" y="551" type="line" smooth="yes"/>
      <point x="214" y="566" type="line" smooth="yes"/>
      <point x="178" y="594" type="line" smooth="yes"/>
      <point x="169" y="634" type="line" smooth="yes"/>
      <point x="182" y="676" type="line" smooth="yes"/>
      <point x="218" y="702" type="line" smooth="yes"/>
      <point x="275" y="711" type="line" smooth="yes"/>
      <point x="339" y="698" type="line" smooth="yes"/>
      <point x="372" y="663" type="line" smooth="yes"/>
      <point x="382" y="608" type="line" smooth="yes"/>
      <point x="482" y="608" type="line" smooth="yes"/>
      <point x="482" y="612" type="line" smooth="yes"/>
      <point x="461" y="707" type="line" smooth="yes"/>
      <point x="395" y="769" type="line" smooth="yes"/>
      <point x="275" y="792" type="line" smooth="yes"/>
      <point x="166" y="773" type="line" smooth="yes"/>
      <point x="94" y="720" type="line" smooth="yes"/>
      <point x="68" y="633" type="line" smooth="yes"/>
      <point x="68" y="626" type="line" smooth="yes"/>
      <point x="73" y="582" type="line" smooth="yes"/>
      <point x="90" y="546" type="line" smooth="yes"/>
      <point x="119" y="517" type="line" smooth="yes"/>
      <point x="74" y="486" type="line" smooth="yes"/>
      <point x="47" y="443" type="line" smooth="yes"/>
      <point x="38" y="389" type="line" smooth="yes"/>
      <point x="38" y="383" type="line" smooth="yes"/>
      <point x="61" y="298" type="line" smooth="yes"/>
      <point x="128" y="250" type="line" smooth="yes"/>
      <point x="239" y="229" type="line" smooth="yes"/>
      <point x="312" y="214" type="line" smooth="yes"/>
      <point x="347" y="186" type="line" smooth="yes"/>
      <point x="356" y="146" type="line" smooth="yes"/>
      <point x="343" y="104" type="line" smooth="yes"/>
      <point x="308" y="78" type="line" smooth="yes"/>
      <point x="251" y="69" type="line" smooth="yes"/>
      <point x="187" y="82" type="line" smooth="yes"/>
      <point x="153" y="117" type="line" smooth="yes"/>
      <point x="143" y="172" type="line" smooth="yes"/>
      <point x="44" y="172" type="line" smooth="yes"/>
      <point x="44" y="168" type="line" smooth="yes"/>
      <point x="65" y="73" type="line" smooth="yes"/>
      <point x="131" y="11" type="line" smooth="yes"/>
      <point x="251" y="-12" type="line" smooth="yes"/>
      <point x="360" y="7" type="line" smooth="yes"/>
      <point x="431" y="60" type="line" smooth="yes"/>
      <point x="457" y="147" type="line" smooth="yes"/>
      <point x="457" y="154" type="line" smooth="yes"/>
      <point x="452" y="197" type="line" smooth="yes"/>
      <point x="436" y="233" type="line" smooth="yes"/>
      <point x="407" y="263" type="line" smooth="yes"/>
      <point x="452" y="294" type="line" smooth="yes"/>
      <point x="479" y="336" type="line" smooth="yes"/>
    </contour>
  </outline>
</glyph>
<glyph name="copyright" format="1">
  <advance width="920"/>
  <unicode hex="00A9"/>
  <outline>
    <contour>
      <point x="462" y="226" type="line" smooth="yes"/>
      <point x="392" y="248" type="line" smooth="yes"/>
      <point x="355" y="303" type="line" smooth="yes"/>
      <point x="343" y="377" type="line" smooth="yes"/>
      <point x="343" y="403" type="line" smooth="yes"/>
      <point x="355" y="477" type="line" smooth="yes"/>
      <point x="392" y="532" type="line" smooth="yes"/>
      <point x="462" y="554" type="line" smooth="yes"/>
      <point x="524" y="540" type="line" smooth="yes"/>
      <point x="557" y="503" type="line" smooth="yes"/>
      <point x="567" y="454" type="line" smooth="yes"/>
      <point x="656" y="454" type="line" smooth="yes"/>
      <point x="656" y="472" type="line" smooth="yes"/>
      <point x="637" y="549" type="line" smooth="yes"/>
      <point x="573" y="611" type="line" smooth="yes"/>
      <point x="460" y="637" type="line" smooth="yes"/>
      <point x="338" y="603" type="line" smooth="yes"/>
      <point x="270" y="517" type="line" smooth="yes"/>
      <point x="249" y="403" type="line" smooth="yes"/>
      <point x="249" y="377" type="line" smooth="yes"/>
      <point x="270" y="263" type="line" smooth="yes"/>
      <point x="338" y="177" type="line" smooth="yes"/>
      <point x="460" y="143" type="line" smooth="yes"/>
      <point x="573" y="168" type="line" smooth="yes"/>
      <point x="637" y="228" type="line" smooth="yes"/>
      <point x="656" y="301" type="line" smooth="yes"/>
      <point x="656" y="317" type="line" smooth="yes"/>
      <point x="567" y="317" type="line" smooth="yes"/>
      <point x="558" y="275" type="line" smooth="yes"/>
      <point x="525" y="240" type="line" smooth="yes"/>
    </contour>
    <contour>
      <point x="106" y="390" type="line" smooth="yes"/>
      <point x="154" y="569" type="line" smooth="yes"/>
      <point x="281" y="696" type="line" smooth="yes"/>
      <point x="460" y="744" type="line" smooth="yes"/>
      <point x="639" y="696" type="line" smooth="yes"/>
      <point x="766" y="569" type="line" smooth="yes"/>
      <point x="814" y="390" type="line" smooth="yes"/>
      <point x="766" y="211" type="line" smooth="yes"/>
      <point x="639" y="84" type="line" smooth="yes"/>
      <point x="460" y="36" type="line" smooth="yes"/>
      <point x="281" y="84" type="line" smooth="yes"/>
      <point x="154" y="211" type="line" smooth="yes"/>
    </contour>
    <contour>
      <point x="58" y="390" type="line" smooth="yes"/>
      <point x="113" y="187" type="line" smooth="yes"/>
      <point x="257" y="43" type="line" smooth="yes"/>
      <point x="460" y="-12" type="line" smooth="yes"/>
      <point x="663" y="43" type="line" smooth="yes"/>
      <point x="807" y="187" type="line" smooth="yes"/>
      <point x="862" y="390" type="line" smooth="yes"/>
      <point x="807" y="593" type="line" smooth="yes"/>
      <point x="663" y="737" type="line" smooth="yes"/>
      <point x="460" y="792" type="line" smooth="yes"/>
      <point x="257" y="737" type="line" smooth="yes"/>
      <point x="113" y="593" type="line" smooth="yes"/>
    </contour>
  </outline>
</glyph>
<glyph name="ordfeminine" format="1">
  <advance width="403"/>
  <unicode hex="00AA"/>
  <outline>
    <contour>
      <point x="183" y="451" type="line" smooth="yes"/>
      <point x="148" y="459" type="line" smooth="yes"/>
      <point x="129" y="478" type="line" smooth="yes"/>
      <point x="123" y="504" type="line" smooth="yes"/>
      <point x="123" y="509" type="line" smooth="yes"/>
      <point x="130" y="538" type="line" smooth="yes"/>
      <point x="152" y="559" type="line" smooth="yes"/>
      <point x="187" y="570" type="line" smooth="yes"/>
      <point x="275" y="585" type="line" smooth="yes"/>
      <point x="275" y="495" type="line" smooth="yes"/>
      <point x="256" y="476" type="line" smooth="yes"/>
      <point x="226" y="458" type="line" smooth="yes"/>
    </contour>
    <contour>
      <point x="368" y="202" type="line" smooth="yes"/>
      <point x="368" y="279" type="line" smooth="yes"/>
      <point x="45" y="279" type="line" smooth="yes"/>
      <point x="45" y="202" type="line" smooth="yes"/>
    </contour>
    <contour>
      <point x="292" y="388" type="line" smooth="yes"/>
      <point x="370" y="388" type="line" smooth="yes"/>
      <point x="364" y="499" type="line" smooth="yes"/>
      <point x="364" y="643" type="line" smooth="yes"/>
      <point x="350" y="723" type="line" smooth="yes"/>
      <point x="301" y="774" type="line" smooth="yes"/>
      <point x="207" y="792" type="line" smooth="yes"/>
      <point x="111" y="772" type="line" smooth="yes"/>
      <point x="63" y="722" type="line" smooth="yes"/>
      <point x="50" y="659" type="line" smooth="yes"/>
      <point x="50" y="652" type="line" smooth="yes"/>
      <point x="134" y="652" type="line" smooth="yes"/>
      <point x="140" y="687" type="line" smooth="yes"/>
      <point x="161" y="713" type="line" smooth="yes"/>
      <point x="205" y="723" type="line" smooth="yes"/>
      <point x="247" y="714" type="line" smooth="yes"/>
      <point x="269" y="687" type="line" smooth="yes"/>
      <point x="275" y="643" type="line" smooth="yes"/>
      <point x="275" y="639" type="line" smooth="yes"/>
      <point x="172" y="624" type="line" smooth="yes"/>
      <point x="103" y="606" type="line" smooth="yes"/>
      <point x="54" y="568" type="line" smooth="yes"/>
      <point x="35" y="500" type="line" smooth="yes"/>
      <point x="35" y="492" type="line" smooth="yes"/>
      <point x="48" y="434" type="line" smooth="yes"/>
      <point x="86" y="394" type="line" smooth="yes"/>
      <point x="153" y="378" type="line" smooth="yes"/>
      <point x="209" y="385" type="line" smooth="yes"/>
      <point x="252" y="406" type="line" smooth="yes"/>
      <point x="284" y="436" type="line" smooth="yes"/>
    </contour>
  </outline>
</glyph>
<glyph name="degree" format="1">
  <advance width="400"/>
  <unicode hex="00B0"/>
  <outline>
    <contour>
      <point x="356" y="637" type="line" smooth="yes"/>
      <point x="335" y="720" type="line" smooth="yes"/>
      <point x="280" y="773" type="line" smooth="yes"/>
      <point x="200" y="792" type="line" smooth="yes"/>
      <point x="120" y="773" type="line" smooth="yes"/>
      <point x="65" y="720" type="line" smooth="yes"/>
      <point x="44" y="637" type="line" smooth="yes"/>
      <point x="44" y="632" type="line" smooth="yes"/>
      <point x="65" y="550" type="line" smooth="yes"/>
      <point x="120" y="497" type="line" smooth="yes"/>
      <point x="200" y="478" type="line" smooth="yes"/>
      <point x="280" y="497" type="line" smooth="yes"/>
      <point x="335" y="550" type="line" smooth="yes"/>
      <point x="356" y="632" type="line" smooth="yes"/>
    </contour>
    <contour>
      <point x="288" y="631" type="line" smooth="yes"/>
      <point x="276" y="586" type="line" smooth="yes"/>
      <point x="246" y="556" type="line" smooth="yes"/>
      <point x="203" y="546" type="line" smooth="yes"/>
      <point x="197" y="546" type="line" smooth="yes"/>
      <point x="154" y="556" type="line" smooth="yes"/>
      <point x="124" y="586" type="line" smooth="yes"/>
      <point x="112" y="631" type="line" smooth="yes"/>
      <point x="112" y="638" type="line" smooth="yes"/>
      <point x="124" y="684" type="line" smooth="yes"/>
      <point x="154" y="713" type="line" smooth="yes"/>
      <point x="197" y="723" type="line" smooth="yes"/>
      <point x="203" y="723" type="line" smooth="yes"/>
      <point x="246" y="713" type="line" smooth="yes"/>
      <point x="276" y="684" type="line" smooth="yes"/>
      <point x="288" y="638" type="line" smooth="yes"/>
    </contour>
  </outline>
</glyph>
<glyph name="plusminus" format="1">
  <advance width="600"/>
  <unicode hex="00B1"/>
  <outline>
    <contour>
      <point x="46" y="152" type="line" smooth="yes"/>
      <point x="554" y="152" type="line" smooth="yes"/>
      <point x="554" y="245" type="line" smooth="yes"/>
      <point x="46" y="245" type="line" smooth="yes"/>
    </contour>
    <contour>
      <point x="254" y="657" type="line" smooth="yes"/>
      <point x="254" y="529" type="line" smooth="yes"/>
      <point x="46" y="529" type="line" smooth="yes"/>
      <point x="46" y="436" type="line" smooth="yes"/>
      <point x="254" y="436" type="line" smooth="yes"/>
      <point x="254" y="309" type="line" smooth="yes"/>
      <point x="346" y="309" type="line" smooth="yes"/>
      <point x="346" y="436" type="line" smooth="yes"/>
      <point x="554" y="436" type="line" smooth="yes"/>
      <point x="554" y="529" type="line" smooth="yes"/>
      <point x="346" y="529" type="line" smooth="yes"/>
      <point x="346" y="657" type="line" smooth="yes"/>
    </contour>
  </outline>
</glyph>
<glyph name="twosuperior" format="1">
  <advance width="300"/>
  <unicode hex="00B2"/>
  <outline>
    <contour>
      <point x="279" y="463" type="line" smooth="yes"/>
      <point x="139" y="463" type="line" smooth="yes"/>
      <point x="235" y="568" type="line" smooth="yes"/>
      <point x="259" y="597" type="line" smooth="yes"/>
      <point x="274" y="629" type="line" smooth="yes"/>
      <point x="279" y="668" type="line" smooth="yes"/>
      <point x="279" y="678" type="line" smooth="yes"/>
      <point x="267" y="728" type="line" smooth="yes"/>
      <point x="226" y="769" type="line" smooth="yes"/>
      <point x="150" y="786" type="line" smooth="yes"/>
      <point x="77" y="772" type="line" smooth="yes"/>
      <point x="35" y="730" type="line" smooth="yes"/>
      <point x="21" y="660" type="line" smooth="yes"/>
      <point x="21" y="650" type="line" smooth="yes"/>
      <point x="105" y="650" type="line" smooth="yes"/>
      <point x="110" y="687" type="line" smooth="yes"/>
      <point x="125" y="707" type="line" smooth="yes"/>
      <point x="147" y="713" type="line" smooth="yes"/>
      <point x="152" y="713" type="line" smooth="yes"/>
      <point x="174" y="708" type="line" smooth="yes"/>
      <point x="189" y="691" type="line" smooth="yes"/>
      <point x="195" y="663" type="line" smooth="yes"/>
      <point x="195" y="658" type="line" smooth="yes"/>
      <point x="192" y="639" type="line" smooth="yes"/>
      <point x="184" y="623" type="line" smooth="yes"/>
      <point x="170" y="607" type="line" smooth="yes"/>
      <point x="21" y="443" type="line" smooth="yes"/>
      <point x="21" y="390" type="line" smooth="yes"/>
      <point x="279" y="390" type="line" smooth="yes"/>
    </contour>
  </outline>
</glyph>
<glyph name="paragraph" format="1">
  <advance width="526"/>
  <unicode hex="00B6"/>
  <outline>
    <contour>
      <point x="137" y="535" type="line" smooth="yes"/>
      <point x="137" y="548" type="line" smooth="yes"/>
      <point x="154" y="626" type="line" smooth="yes"/>
      <point x="196" y="669" type="line" smooth="yes"/>
      <point x="250" y="686" type="line" smooth="yes"/>
      <point x="250" y="396" type="line" smooth="yes"/>
      <point x="196" y="413" type="line" smooth="yes"/>
      <point x="154" y="456" type="line" smooth="yes"/>
    </contour>
    <contour>
      <point x="360" y="0" type="line" smooth="yes"/>
      <point x="464" y="0" type="line" smooth="yes"/>
      <point x="464" y="780" type="line" smooth="yes"/>
      <point x="282" y="780" type="line" smooth="yes"/>
      <point x="165" y="763" type="line" smooth="yes"/>
      <point x="70" y="695" type="line" smooth="yes"/>
      <point x="31" y="552" type="line" smooth="yes"/>
      <point x="31" y="532" type="line" smooth="yes"/>
      <point x="64" y="398" type="line" smooth="yes"/>
      <point x="145" y="329" type="line" smooth="yes"/>
      <point x="250" y="305" type="line" smooth="yes"/>
      <point x="250" y="0" type="line" smooth="yes"/>
      <point x="314" y="0" type="line" smooth="yes"/>
      <point x="314" y="688" type="line" smooth="yes"/>
      <point x="360" y="688" type="line" smooth="yes"/>
    </contour>
  </outline>
</glyph>
<glyph name="cedilla" format="1">
  <advance width="602"/>
  <unicode hex="00B8"/>
  <outline>
    <contour>
      <point x="156" y="-191" type="line" smooth="yes"/>
      <point x="180" y="-202" type="line" smooth="yes"/>
      <point x="214" y="-210" type="line" smooth="yes"/>
      <point x="253" y="-213" type="line" smooth="yes"/>
      <point x="311" y="-204" type="line" smooth="yes"/>
      <point x="349" y="-177" type="line" smooth="yes"/>
      <point x="362" y="-131" type="line" smooth="yes"/>
      <point x="347" y="-85" type="line" smooth="yes"/>
      <point x="310" y="-59" type="line" smooth="yes"/>
      <point x="260" y="-50" type="line" smooth="yes"/>
      <point x="279" y="0" type="line" smooth="yes"/>
      <point x="221" y="0" type="line" smooth="yes"/>
      <point x="192" y="-77" type="line" smooth="yes"/>
      <point x="209" y="-102" type="line" smooth="yes"/>
      <point x="214" y="-101" type="line" smooth="yes"/>
      <point x="226" y="-100" type="line" smooth="yes"/>
      <point x="241" y="-99" type="line" smooth="yes"/>
      <point x="272" y="-102" type="line" smooth="yes"/>
      <point x="291" y="-110" type="line" smooth="yes"/>
      <point x="298" y="-126" type="line" smooth="yes"/>
      <point x="292" y="-143" type="line" smooth="yes"/>
      <point x="274" y="-152" type="line" smooth="yes"/>
      <point x="244" y="-155" type="line" smooth="yes"/>
      <point x="218" y="-153" type="line" smooth="yes"/>
      <point x="193" y="-147" type="line" smooth="yes"/>
      <point x="174" y="-139" type="line" smooth="yes"/>
    </contour>
  </outline>
</glyph>
<glyph name="ordmasculine" format="1">
  <advance width="427"/>
  <unicode hex="00BA"/>
  <outline>
    <contour>
      <point x="45" y="202" type="line" smooth="yes"/>
      <point x="382" y="202" type="line" smooth="yes"/>
      <point x="382" y="279" type="line" smooth="yes"/>
      <point x="45" y="279" type="line" smooth="yes"/>
    </contour>
    <contour>
      <point x="126" y="574" type="line" smooth="yes"/>
      <point x="126" y="597" type="line" smooth="yes"/>
      <point x="135" y="660" type="line" smooth="yes"/>
      <point x="164" y="700" type="line" smooth="yes"/>
      <point x="213" y="715" type="line" smooth="yes"/>
      <point x="263" y="700" type="line" smooth="yes"/>
      <point x="292" y="660" type="line" smooth="yes"/>
      <point x="301" y="597" type="line" smooth="yes"/>
      <point x="301" y="574" type="line" smooth="yes"/>
      <point x="292" y="511" type="line" smooth="yes"/>
      <point x="263" y="470" type="line" smooth="yes"/>
      <point x="213" y="456" type="line" smooth="yes"/>
      <point x="164" y="470" type="line" smooth="yes"/>
      <point x="135" y="511" type="line" smooth="yes"/>
    </contour>
    <contour>
      <point x="390" y="574" type="line" smooth="yes"/>
      <point x="390" y="597" type="line" smooth="yes"/>
      <point x="371" y="697" type="line" smooth="yes"/>
      <point x="313" y="766" type="line" smooth="yes"/>
      <point x="213" y="792" type="line" smooth="yes"/>
      <point x="113" y="766" type="line" smooth="yes"/>
      <point x="56" y="697" type="line" smooth="yes"/>
      <point x="37" y="597" type="line" smooth="yes"/>
      <point x="37" y="574" type="line" smooth="yes"/>
      <point x="56" y="473" type="line" smooth="yes"/>
      <point x="113" y="404" type="line" smooth="yes"/>
      <point x="213" y="378" type="line" smooth="yes"/>
      <point x="313" y="404" type="line" smooth="yes"/>
      <point x="371" y="473" type="line" smooth="yes"/>
    </contour>
  </outline>
</glyph>
<glyph name="onehalf" format="1">
  <advance width="800"/>
  <unicode hex="00BD"/>
  <outline>
    <contour>
      <point x="286" y="390" type="line" smooth="yes"/>
      <point x="286" y="463" type="line" smooth="yes"/>
      <point x="202" y="463" type="line" smooth="yes"/>
      <point x="202" y="780" type="line" smooth="yes"/>
      <point x="139" y="780" type="line" smooth="yes"/>
      <point x="17" y="698" type="line" smooth="yes"/>
      <point x="59" y="637" type="line" smooth="yes"/>
      <point x="118" y="677" type="line" smooth="yes"/>
      <point x="118" y="463" type="line" smooth="yes"/>
      <point x="33" y="463" type="line" smooth="yes"/>
      <point x="33" y="390" type="line" smooth="yes"/>
    </contour>
    <contour>
      <point x="779" y="73" type="line" smooth="yes"/>
      <point x="639" y="73" type="line" smooth="yes"/>
      <point x="735" y="178" type="line" smooth="yes"/>
      <point x="759" y="207" type="line" smooth="yes"/>
      <point x="774" y="239" type="line" smooth="yes"/>
      <point x="779" y="278" type="line" smooth="yes"/>
      <point x="779" y="288" type="line" smooth="yes"/>
      <point x="767" y="338" type="line" smooth="yes"/>
      <point x="726" y="379" type="line" smooth="yes"/>
      <point x="650" y="396" type="line" smooth="yes"/>
      <point x="577" y="382" type="line" smooth="yes"/>
      <point x="535" y="340" type="line" smooth="yes"/>
      <point x="521" y="270" type="line" smooth="yes"/>
      <point x="521" y="260" type="line" smooth="yes"/>
      <point x="605" y="260" type="line" smooth="yes"/>
      <point x="610" y="297" type="line" smooth="yes"/>
      <point x="625" y="317" type="line" smooth="yes"/>
      <point x="647" y="323" type="line" smooth="yes"/>
      <point x="652" y="323" type="line" smooth="yes"/>
      <point x="674" y="318" type="line" smooth="yes"/>
      <point x="689" y="301" type="line" smooth="yes"/>
      <point x="695" y="273" type="line" smooth="yes"/>
      <point x="695" y="268" type="line" smooth="yes"/>
      <point x="692" y="249" type="line" smooth="yes"/>
      <point x="684" y="233" type="line" smooth="yes"/>
      <point x="670" y="217" type="line" smooth="yes"/>
      <point x="521" y="53" type="line" smooth="yes"/>
      <point x="521" y="0" type="line" smooth="yes"/>
      <point x="779" y="0" type="line" smooth="yes"/>
    </contour>
    <contour>
      <point x="164" y="0" type="line" smooth="yes"/>
      <point x="740" y="780" type="line" smooth="yes"/>
      <point x="636" y="780" type="line" smooth="yes"/>
      <point x="60" y="0" type="line" smooth="yes"/>
    </contour>
  </outline>
</glyph>
<glyph name="threequarters" format="1">
  <advance width="800"/>
  <unicode hex="00BE"/>
  <outline>
    <contour>
      <point x="663" y="256" type="line" smooth="yes"/>
      <point x="662" y="230" type="line" smooth="yes"/>
      <point x="662" y="157" type="line" smooth="yes"/>
      <point x="624" y="157" type="line" smooth="yes"/>
      <point x="600" y="155" type="line" smooth="yes"/>
    </contour>
    <contour>
      <point x="746" y="0" type="line" smooth="yes"/>
      <point x="746" y="83" type="line" smooth="yes"/>
      <point x="786" y="83" type="line" smooth="yes"/>
      <point x="786" y="157" type="line" smooth="yes"/>
      <point x="746" y="157" type="line" smooth="yes"/>
      <point x="746" y="390" type="line" smooth="yes"/>
      <point x="667" y="390" type="line" smooth="yes"/>
      <point x="513" y="142" type="line" smooth="yes"/>
      <point x="513" y="83" type="line" smooth="yes"/>
      <point x="662" y="83" type="line" smooth="yes"/>
      <point x="662" y="0" type="line" smooth="yes"/>
    </contour>
    <contour>
      <point x="102" y="515" type="line" smooth="yes"/>
      <point x="18" y="515" type="line" smooth="yes"/>
      <point x="18" y="508" type="line" smooth="yes"/>
      <point x="33" y="440" type="line" smooth="yes"/>
      <point x="77" y="398" type="line" smooth="yes"/>
      <point x="150" y="383" type="line" smooth="yes"/>
      <point x="226" y="401" type="line" smooth="yes"/>
      <point x="268" y="445" type="line" smooth="yes"/>
      <point x="281" y="495" type="line" smooth="yes"/>
      <point x="281" y="504" type="line" smooth="yes"/>
      <point x="275" y="541" type="line" smooth="yes"/>
      <point x="258" y="569" type="line" smooth="yes"/>
      <point x="234" y="589" type="line" smooth="yes"/>
      <point x="257" y="608" type="line" smooth="yes"/>
      <point x="273" y="636" type="line" smooth="yes"/>
      <point x="279" y="673" type="line" smooth="yes"/>
      <point x="279" y="682" type="line" smooth="yes"/>
      <point x="267" y="729" type="line" smooth="yes"/>
      <point x="226" y="769" type="line" smooth="yes"/>
      <point x="150" y="786" type="line" smooth="yes"/>
      <point x="77" y="772" type="line" smooth="yes"/>
      <point x="35" y="730" type="line" smooth="yes"/>
      <point x="21" y="660" type="line" smooth="yes"/>
      <point x="21" y="650" type="line" smooth="yes"/>
      <point x="105" y="650" type="line" smooth="yes"/>
      <point x="110" y="687" type="line" smooth="yes"/>
      <point x="125" y="707" type="line" smooth="yes"/>
      <point x="147" y="713" type="line" smooth="yes"/>
      <point x="152" y="713" type="line" smooth="yes"/>
      <point x="174" y="708" type="line" smooth="yes"/>
      <point x="189" y="694" type="line" smooth="yes"/>
      <point x="195" y="673" type="line" smooth="yes"/>
      <point x="195" y="667" type="line" smooth="yes"/>
      <point x="190" y="644" type="line" smooth="yes"/>
      <point x="175" y="630" type="line" smooth="yes"/>
      <point x="152" y="626" type="line" smooth="yes"/>
      <point x="100" y="626" type="line" smooth="yes"/>
      <point x="100" y="552" type="line" smooth="yes"/>
      <point x="153" y="552" type="line" smooth="yes"/>
      <point x="177" y="547" type="line" smooth="yes"/>
      <point x="192" y="533" type="line" smooth="yes"/>
      <point x="198" y="509" type="line" smooth="yes"/>
      <point x="198" y="504" type="line" smooth="yes"/>
      <point x="191" y="477" type="line" smooth="yes"/>
      <point x="175" y="461" type="line" smooth="yes"/>
      <point x="152" y="456" type="line" smooth="yes"/>
      <point x="147" y="456" type="line" smooth="yes"/>
      <point x="124" y="461" type="line" smooth="yes"/>
      <point x="108" y="480" type="line" smooth="yes"/>
    </contour>
    <contour>
      <point x="164" y="0" type="line" smooth="yes"/>
      <point x="740" y="780" type="line" smooth="yes"/>
      <point x="636" y="780" type="line" smooth="yes"/>
      <point x="60" y="0" type="line" smooth="yes"/>
    </contour>
  </outline>
</glyph>
<glyph name="questiondown" format="1">
  <advance width="470"/>
  <unicode hex="00BF"/>
  <outline>
    <contour>
      <point x="180" y="416" type="line" smooth="yes"/>
      <point x="294" y="416" type="line" smooth="yes"/>
      <point x="294" y="530" type="line" smooth="yes"/>
      <point x="180" y="530" type="line" smooth="yes"/>
    </contour>
    <contour>
      <point x="231" y="-121" type="line" smooth="yes"/>
      <point x="171" y="-108" type="line" smooth="yes"/>
      <point x="138" y="-72" type="line" smooth="yes"/>
      <point x="128" y="-17" type="line" smooth="yes"/>
      <point x="167" y="87" type="line" smooth="yes"/>
      <point x="239" y="189" type="line" smooth="yes"/>
      <point x="272" y="327" type="line" smooth="yes"/>
      <point x="202" y="327" type="line" smooth="yes"/>
      <point x="152" y="204" type="line" smooth="yes"/>
      <point x="69" y="115" type="line" smooth="yes"/>
      <point x="25" y="-26" type="line" smooth="yes"/>
      <point x="46" y="-120" type="line" smooth="yes"/>
      <point x="112" y="-186" type="line" smooth="yes"/>
      <point x="231" y="-212" type="line" smooth="yes"/>
      <point x="360" y="-179" type="line" smooth="yes"/>
      <point x="426" y="-89" type="line" smooth="yes"/>
      <point x="445" y="46" type="line" smooth="yes"/>
      <point x="445" y="60" type="line" smooth="yes"/>
      <point x="343" y="60" type="line" smooth="yes"/>
      <point x="333" y="-39" type="line" smooth="yes"/>
      <point x="299" y="-100" type="line" smooth="yes"/>
    </contour>
  </outline>
</glyph>
<glyph name="Atilde" format="1">
  <advance width="621"/>
  <unicode hex="00C3"/>
  <outline>
    <contour>
      <point x="412" y="940" type="line" smooth="yes"/>
      <point x="407" y="917" type="line" smooth="yes"/>
      <point x="395" y="904" type="line" smooth="yes"/>
      <point x="377" y="901" type="line" smooth="yes"/>
      <point x="337" y="914" type="line" smooth="yes"/>
      <point x="291" y="939" type="line" smooth="yes"/>
      <point x="235" y="952" type="line" smooth="yes"/>
      <point x="191" y="942" type="line" smooth="yes"/>
      <point x="160" y="909" type="line" smooth="yes"/>
      <point x="148" y="850" type="line" smooth="yes"/>
      <point x="210" y="850" type="line" smooth="yes"/>
      <point x="215" y="873" type="line" smooth="yes"/>
      <point x="227" y="886" type="line" smooth="yes"/>
      <point x="245" y="889" type="line" smooth="yes"/>
      <point x="285" y="876" type="line" smooth="yes"/>
      <point x="331" y="851" type="line" smooth="yes"/>
      <point x="387" y="838" type="line" smooth="yes"/>
      <point x="431" y="848" type="line" smooth="yes"/>
      <point x="462" y="881" type="line" smooth="yes"/>
      <point x="474" y="940" type="line" smooth="yes"/>
    </contour>
    <contour>
      <point x="311" y="669" type="line" smooth="yes"/>
      <point x="413" y="280" type="line" smooth="yes"/>
      <point x="209" y="280" type="line" smooth="yes"/>
    </contour>
    <contour>
      <point x="238" y="786" type="line" smooth="yes"/>
      <point x="23" y="0" type="line" smooth="yes"/>
      <point x="136" y="0" type="line" smooth="yes"/>
      <point x="185" y="188" type="line" smooth="yes"/>
      <point x="437" y="188" type="line" smooth="yes"/>
      <point x="486" y="0" type="line" smooth="yes"/>
      <point x="598" y="0" type="line" smooth="yes"/>
      <point x="383" y="786" type="line" smooth="yes"/>
    </contour>
  </outline>
</glyph>
<glyph name="Aring" format="1">
  <advance width="621"/>
  <unicode hex="00C5"/>
  <outline>
    <contour>
      <point x="257" y="864" type="line" smooth="yes"/>
      <point x="264" y="891" type="line" smooth="yes"/>
      <point x="284" y="910" type="line" smooth="yes"/>
      <point x="311" y="918" type="line" smooth="yes"/>
      <point x="338" y="910" type="line" smooth="yes"/>
      <point x="358" y="891" type="line" smooth="yes"/>
      <point x="365" y="864" type="line" smooth="yes"/>
      <point x="358" y="836" type="line" smooth="yes"/>
      <point x="338" y="817" type="line" smooth="yes"/>
      <point x="311" y="809" type="line" smooth="yes"/>
      <point x="284" y="817" type="line" smooth="yes"/>
      <point x="264" y="836" type="line" smooth="yes"/>
    </contour>
    <contour>
      <point x="311" y="669" type="line" smooth="yes"/>
      <point x="413" y="280" type="line" smooth="yes"/>
      <point x="209" y="280" type="line" smooth="yes"/>
    </contour>
    <contour>
      <point x="213" y="864" type="line" smooth="yes"/>
      <point x="217" y="834" type="line" smooth="yes"/>
      <point x="230" y="807" type="line" smooth="yes"/>
      <point x="250" y="786" type="line" smooth="yes"/>
      <point x="238" y="786" type="line" smooth="yes"/>
      <point x="23" y="0" type="line" smooth="yes"/>
      <point x="136" y="0" type="line" smooth="yes"/>
      <point x="185" y="188" type="line" smooth="yes"/>
      <point x="437" y="188" type="line" smooth="yes"/>
      <point x="486" y="0" type="line" smooth="yes"/>
      <point x="598" y="0" type="line" smooth="yes"/>
      <point x="383" y="786" type="line" smooth="yes"/>
      <point x="371" y="786" type="line" smooth="yes"/>
      <point x="391" y="807" type="line" smooth="yes"/>
      <point x="404" y="834" type="line" smooth="yes"/>
      <point x="409" y="864" type="line" smooth="yes"/>
      <point x="396" y="913" type="line" smooth="yes"/>
      <point x="360" y="949" type="line" smooth="yes"/>
      <point x="311" y="962" type="line" smooth="yes"/>
      <point x="262" y="949" type="line" smooth="yes"/>
      <point x="226" y="913" type="line" smooth="yes"/>
    </contour>
  </outline>
</glyph>
<glyph name="Ccedilla" format="1">
  <advance width="630"/>
  <unicode hex="00C7"/>
  <outline>
    <contour>
      <point x="239" y="-191" type="line" smooth="yes"/>
      <point x="263" y="-202" type="line" smooth="yes"/>
      <point x="297" y="-210" type="line" smooth="yes"/>
      <point x="336" y="-213" type="line" smooth="yes"/>
      <point x="394" y="-204" type="line" smooth="yes"/>
      <point x="432" y="-177" type="line" smooth="yes"/>
      <point x="445" y="-131" type="line" smooth="yes"/>
      <point x="430" y="-85" type="line" smooth="yes"/>
      <point x="393" y="-59" type="line" smooth="yes"/>
      <point x="343" y="-50" type="line" smooth="yes"/>
      <point x="358" y="-11" type="line" smooth="yes"/>
      <point x="483" y="25" type="line" smooth="yes"/>
      <point x="558" y="111" type="line" smooth="yes"/>
      <point x="583" y="249" type="line" smooth="yes"/>
      <point x="583" y="259" type="line" smooth="yes"/>
      <point x="478" y="259" type="line" smooth="yes"/>
      <point x="463" y="162" type="line" smooth="yes"/>
      <point x="416" y="101" type="line" smooth="yes"/>
      <point x="332" y="80" type="line" smooth="yes"/>
      <point x="325" y="80" type="line" smooth="yes"/>
      <point x="227" y="111" type="line" smooth="yes"/>
      <point x="173" y="207" type="line" smooth="yes"/>
      <point x="157" y="370" type="line" smooth="yes"/>
      <point x="157" y="410" type="line" smooth="yes"/>
      <point x="174" y="573" type="line" smooth="yes"/>
      <point x="228" y="669" type="line" smooth="yes"/>
      <point x="325" y="700" type="line" smooth="yes"/>
      <point x="332" y="700" type="line" smooth="yes"/>
      <point x="417" y="677" type="line" smooth="yes"/>
      <point x="464" y="608" type="line" smooth="yes"/>
      <point x="478" y="491" type="line" smooth="yes"/>
      <point x="583" y="491" type="line" smooth="yes"/>
      <point x="583" y="522" type="line" smooth="yes"/>
      <point x="555" y="674" type="line" smooth="yes"/>
      <point x="469" y="763" type="line" smooth="yes"/>
      <point x="325" y="792" type="line" smooth="yes"/>
      <point x="171" y="753" type="line" smooth="yes"/>
      <point x="80" y="629" type="line" smooth="yes"/>
      <point x="50" y="410" type="line" smooth="yes"/>
      <point x="50" y="370" type="line" smooth="yes"/>
      <point x="77" y="159" type="line" smooth="yes"/>
      <point x="160" y="35" type="line" smooth="yes"/>
      <point x="300" y="-11" type="line" smooth="yes"/>
      <point x="275" y="-77" type="line" smooth="yes"/>
      <point x="292" y="-102" type="line" smooth="yes"/>
      <point x="297" y="-101" type="line" smooth="yes"/>
      <point x="309" y="-100" type="line" smooth="yes"/>
      <point x="324" y="-99" type="line" smooth="yes"/>
      <point x="355" y="-102" type="line" smooth="yes"/>
      <point x="374" y="-110" type="line" smooth="yes"/>
      <point x="381" y="-126" type="line" smooth="yes"/>
      <point x="375" y="-143" type="line" smooth="yes"/>
      <point x="357" y="-152" type="line" smooth="yes"/>
      <point x="327" y="-155" type="line" smooth="yes"/>
      <point x="301" y="-153" type="line" smooth="yes"/>
      <point x="276" y="-147" type="line" smooth="yes"/>
      <point x="257" y="-139" type="line" smooth="yes"/>
    </contour>
  </outline>
</glyph>
<glyph name="Ecircumflex" format="1">
  <advance width="557"/>
  <unicode hex="00CA"/>
  <outline>
    <contour>
      <point x="232" y="840" type="line" smooth="yes"/>
      <point x="298" y="897" type="line" smooth="yes"/>
      <point x="364" y="840" type="line" smooth="yes"/>
      <point x="460" y="840" type="line" smooth="yes"/>
      <point x="347" y="950" type="line" smooth="yes"/>
      <point x="249" y="950" type="line" smooth="yes"/>
      <point x="136" y="840" type="line" smooth="yes"/>
    </contour>
    <contour>
      <point x="67" y="780" type="line" smooth="yes"/>
      <point x="67" y="0" type="line" smooth="yes"/>
      <point x="517" y="0" type="line" smooth="yes"/>
      <point x="517" y="92" type="line" smooth="yes"/>
      <point x="171" y="92" type="line" smooth="yes"/>
      <point x="171" y="352" type="line" smooth="yes"/>
      <point x="467" y="352" type="line" smooth="yes"/>
      <point x="467" y="444" type="line" smooth="yes"/>
      <point x="171" y="444" type="line" smooth="yes"/>
      <point x="171" y="688" type="line" smooth="yes"/>
      <point x="517" y="688" type="line" smooth="yes"/>
      <point x="517" y="780" type="line" smooth="yes"/>
    </contour>
  </outline>
</glyph>
<glyph name="Icircumflex" format="1">
  <advance width="248"/>
  <unicode hex="00CE"/>
  <outline>
    <contour>
      <point x="58" y="840" type="line" smooth="yes"/>
      <point x="124" y="897" type="line" smooth="yes"/>
      <point x="190" y="840" type="line" smooth="yes"/>
      <point x="286" y="840" type="line" smooth="yes"/>
      <point x="173" y="950" type="line" smooth="yes"/>
      <point x="75" y="950" type="line" smooth="yes"/>
      <point x="-38" y="840" type="line" smooth="yes"/>
    </contour>
    <contour>
      <point x="176" y="780" type="line" smooth="yes"/>
      <point x="72" y="780" type="line" smooth="yes"/>
      <point x="72" y="0" type="line" smooth="yes"/>
      <point x="176" y="0" type="line" smooth="yes"/>
    </contour>
  </outline>
</glyph>
<glyph name="Ntilde" format="1">
  <advance width="667"/>
  <unicode hex="00D1"/>
  <outline>
    <contour>
      <point x="435" y="940" type="line" smooth="yes"/>
      <point x="430" y="917" type="line" smooth="yes"/>
      <point x="418" y="904" type="line" smooth="yes"/>
      <point x="400" y="901" type="line" smooth="yes"/>
      <point x="360" y="914" type="line" smooth="yes"/>
      <point x="314" y="939" type="line" smooth="yes"/>
      <point x="258" y="952" type="line" smooth="yes"/>
      <point x="214" y="942" type="line" smooth="yes"/>
      <point x="183" y="909" type="line" smooth="yes"/>
      <point x="171" y="850" type="line" smooth="yes"/>
      <point x="233" y="850" type="line" smooth="yes"/>
      <point x="238" y="873" type="line" smooth="yes"/>
      <point x="250" y="886" type="line" smooth="yes"/>
      <point x="268" y="889" type="line" smooth="yes"/>
      <point x="308" y="876" type="line" smooth="yes"/>
      <point x="354" y="851" type="line" smooth="yes"/>
      <point x="410" y="838" type="line" smooth="yes"/>
      <point x="454" y="848" type="line" smooth="yes"/>
      <point x="485" y="881" type="line" smooth="yes"/>
      <point x="497" y="940" type="line" smooth="yes"/>
    </contour>
    <contour>
      <point x="600" y="780" type="line" smooth="yes"/>
      <point x="501" y="780" type="line" smooth="yes"/>
      <point x="501" y="357" type="line" smooth="yes"/>
      <point x="505" y="184" type="line" smooth="yes"/>
      <point x="178" y="780" type="line" smooth="yes"/>
      <point x="67" y="780" type="line" smooth="yes"/>
      <point x="67" y="0" type="line" smooth="yes"/>
      <point x="166" y="0" type="line" smooth="yes"/>
      <point x="166" y="423" type="line" smooth="yes"/>
      <point x="162" y="596" type="line" smooth="yes"/>
      <point x="489" y="0" type="line" smooth="yes"/>
      <point x="600" y="0" type="line" smooth="yes"/>
    </contour>
  </outline>
</glyph>
<glyph name="Ograve" format="1">
  <advance width="657"/>
  <unicode hex="00D2"/>
  <outline>
    <contour>
      <point x="215" y="950" type="line" smooth="yes"/>
      <point x="278" y="840" type="line" smooth="yes"/>
      <point x="380" y="840" type="line" smooth="yes"/>
      <point x="322" y="950" type="line" smooth="yes"/>
    </contour>
    <contour>
      <point x="325" y="80" type="line" smooth="yes"/>
      <point x="228" y="111" type="line" smooth="yes"/>
      <point x="174" y="207" type="line" smooth="yes"/>
      <point x="157" y="370" type="line" smooth="yes"/>
      <point x="157" y="410" type="line" smooth="yes"/>
      <point x="174" y="573" type="line" smooth="yes"/>
      <point x="228" y="669" type="line" smooth="yes"/>
      <point x="325" y="700" type="line" smooth="yes"/>
      <point x="332" y="700" type="line" smooth="yes"/>
      <point x="429" y="669" type="line" smooth="yes"/>
      <point x="483" y="573" type="line" smooth="yes"/>
      <point x="500" y="410" type="line" smooth="yes"/>
      <point x="500" y="370" type="line" smooth="yes"/>
      <point x="483" y="207" type="line" smooth="yes"/>
      <point x="429" y="111" type="line" smooth="yes"/>
      <point x="332" y="80" type="line" smooth="yes"/>
    </contour>
    <contour>
      <point x="329" y="-12" type="line" smooth="yes"/>
      <point x="484" y="27" type="line" smooth="yes"/>
      <point x="576" y="151" type="line" smooth="yes"/>
      <point x="607" y="370" type="line" smooth="yes"/>
      <point x="607" y="410" type="line" smooth="yes"/>
      <point x="576" y="629" type="line" smooth="yes"/>
      <point x="484" y="753" type="line" smooth="yes"/>
      <point x="329" y="792" type="line" smooth="yes"/>
      <point x="173" y="753" type="line" smooth="yes"/>
      <point x="81" y="629" type="line" smooth="yes"/>
      <point x="50" y="410" type="line" smooth="yes"/>
      <point x="50" y="370" type="line" smooth="yes"/>
      <point x="81" y="151" type="line" smooth="yes"/>
      <point x="173" y="27" type="line" smooth="yes"/>
    </contour>
  </outline>
</glyph>
<glyph name="Otilde" format="1">
  <advance width="657"/>
  <unicode hex="00D5"/>
  <outline>
    <contour>
      <point x="430" y="940" type="line" smooth="yes"/>
      <point x="425" y="917" type="line" smooth="yes"/>
      <point x="413" y="904" type="line" smooth="yes"/>
      <point x="395" y="901" type="line" smooth="yes"/>
      <point x="355" y="914" type="line" smooth="yes"/>
      <point x="309" y="939" type="line" smooth="yes"/>
      <point x="253" y="952" type="line" smooth="yes"/>
      <point x="209" y="942" type="line" smooth="yes"/>
      <point x="178" y="909" type="line" smooth="yes"/>
      <point x="166" y="850" type="line" smooth="yes"/>
      <point x="228" y="850" type="line" smooth="yes"/>
      <point x="233" y="873" type="line" smooth="yes"/>
      <point x="245" y="886" type="line" smooth="yes"/>
      <point x="263" y="889" type="line" smooth="yes"/>
      <point x="303" y="876" type="line" smooth="yes"/>
      <point x="349" y="851" type="line" smooth="yes"/>
      <point x="405" y="838" type="line" smooth="yes"/>
      <point x="449" y="848" type="line" smooth="yes"/>
      <point x="480" y="881" type="line" smooth="yes"/>
      <point x="492" y="940" type="line" smooth="yes"/>
    </contour>
    <contour>
      <point x="325" y="80" type="line" smooth="yes"/>
      <point x="228" y="111" type="line" smooth="yes"/>
      <point x="174" y="207" type="line" smooth="yes"/>
      <point x="157" y="370" type="line" smooth="yes"/>
      <point x="157" y="410" type="line" smooth="yes"/>
      <point x="174" y="573" type="line" smooth="yes"/>
      <point x="228" y="669" type="line" smooth="yes"/>
      <point x="325" y="700" type="line" smooth="yes"/>
      <point x="332" y="700" type="line" smooth="yes"/>
      <point x="429" y="669" type="line" smooth="yes"/>
      <point x="483" y="573" type="line" smooth="yes"/>
      <point x="500" y="410" type="line" smooth="yes"/>
      <point x="500" y="370" type="line" smooth="yes"/>
      <point x="483" y="207" type="line" smooth="yes"/>
      <point x="429" y="111" type="line" smooth="yes"/>
      <point x="332" y="80" type="line" smooth="yes"/>
    </contour>
    <contour>
      <point x="329" y="-12" type="line" smooth="yes"/>
      <point x="484" y="27" type="line" smooth="yes"/>
      <point x="576" y="151" type="line" smooth="yes"/>
      <point x="607" y="370" type="line" smooth="yes"/>
      <point x="607" y="410" type="line" smooth="yes"/>
      <point x="576" y="629" type="line" smooth="yes"/>
      <point x="484" y="753" type="line" smooth="yes"/>
      <point x="329" y="792" type="line" smooth="yes"/>
      <point x="173" y="753" type="line" smooth="yes"/>
      <point x="81" y="629" type="line" smooth="yes"/>
      <point x="50" y="410" type="line" smooth="yes"/>
      <point x="50" y="370" type="line" smooth="yes"/>
      <point x="81" y="151" type="line" smooth="yes"/>
      <point x="173" y="27" type="line" smooth="yes"/>
    </contour>
  </outline>
</glyph>
<glyph name="Oslash" format="1">
  <advance width="649"/>
  <unicode hex="00D8"/>
  <outline>
    <contour>
      <point x="157" y="370" type="line" smooth="yes"/>
      <point x="157" y="410" type="line" smooth="yes"/>
      <point x="174" y="573" type="line" smooth="yes"/>
      <point x="228" y="669" type="line" smooth="yes"/>
      <point x="325" y="700" type="line" smooth="yes"/>
      <point x="332" y="700" type="line" smooth="yes"/>
      <point x="379" y="694" type="line" smooth="yes"/>
      <point x="418" y="677" type="line" smooth="yes"/>
      <point x="449" y="647" type="line" smooth="yes"/>
      <point x="174" y="204" type="line" smooth="yes"/>
      <point x="164" y="252" type="line" smooth="yes"/>
      <point x="159" y="307" type="line" smooth="yes"/>
    </contour>
    <contour>
      <point x="500" y="410" type="line" smooth="yes"/>
      <point x="500" y="370" type="line" smooth="yes"/>
      <point x="483" y="207" type="line" smooth="yes"/>
      <point x="429" y="111" type="line" smooth="yes"/>
      <point x="332" y="80" type="line" smooth="yes"/>
      <point x="325" y="80" type="line" smooth="yes"/>
      <point x="276" y="86" type="line" smooth="yes"/>
      <point x="236" y="105" type="line" smooth="yes"/>
      <point x="205" y="136" type="line" smooth="yes"/>
      <point x="480" y="582" type="line" smooth="yes"/>
      <point x="491" y="533" type="line" smooth="yes"/>
      <point x="498" y="476" type="line" smooth="yes"/>
    </contour>
    <contour>
      <point x="50" y="410" type="line" smooth="yes"/>
      <point x="50" y="370" type="line" smooth="yes"/>
      <point x="56" y="258" type="line" smooth="yes"/>
      <point x="75" y="167" type="line" smooth="yes"/>
      <point x="107" y="95" type="line" smooth="yes"/>
      <point x="48" y="0" type="line" smooth="yes"/>
      <point x="121" y="0" type="line" smooth="yes"/>
      <point x="149" y="45" type="line" smooth="yes"/>
      <point x="198" y="13" type="line" smooth="yes"/>
      <point x="258" y="-6" type="line" smooth="yes"/>
      <point x="329" y="-12" type="line" smooth="yes"/>
      <point x="484" y="27" type="line" smooth="yes"/>
      <point x="576" y="151" type="line" smooth="yes"/>
      <point x="607" y="370" type="line" smooth="yes"/>
      <point x="607" y="410" type="line" smooth="yes"/>
      <point x="600" y="525" type="line" smooth="yes"/>
      <point x="580" y="617" type="line" smooth="yes"/>
      <point x="547" y="689" type="line" smooth="yes"/>
      <point x="603" y="780" type="line" smooth="yes"/>
      <point x="531" y="780" type="line" smooth="yes"/>
      <point x="505" y="737" type="line" smooth="yes"/>
      <point x="456" y="768" type="line" smooth="yes"/>
      <point x="397" y="786" type="line" smooth="yes"/>
      <point x="329" y="792" type="line" smooth="yes"/>
      <point x="173" y="753" type="line" smooth="yes"/>
      <point x="81" y="629" type="line" smooth="yes"/>
    </contour>
  </outline>
</glyph>
<glyph name="Uacute" format="1">
  <advance width="647"/>
  <unicode hex="00DA"/>
  <outline>
    <contour>
      <point x="331" y="950" type="line" smooth="yes"/>
      <point x="273" y="840" type="line" smooth="yes"/>
      <point x="375" y="840" type="line" smooth="yes"/>
      <point x="438" y="950" type="line" smooth="yes"/>
    </contour>
    <contour>
      <point x="324" y="-12" type="line" smooth="yes"/>
      <point x="473" y="14" type="line" smooth="yes"/>
      <point x="558" y="96" type="line" smooth="yes"/>
      <point x="585" y="243" type="line" smooth="yes"/>
      <point x="585" y="780" type="line" smooth="yes"/>
      <point x="481" y="780" type="line" smooth="yes"/>
      <point x="481" y="248" type="line" smooth="yes"/>
      <point x="465" y="149" type="line" smooth="yes"/>
      <point x="413" y="96" type="line" smooth="yes"/>
      <point x="324" y="80" type="line" smooth="yes"/>
      <point x="234" y="96" type="line" smooth="yes"/>
      <point x="183" y="149" type="line" smooth="yes"/>
      <point x="166" y="248" type="line" smooth="yes"/>
      <point x="166" y="780" type="line" smooth="yes"/>
      <point x="62" y="780" type="line" smooth="yes"/>
      <point x="62" y="243" type="line" smooth="yes"/>
      <point x="89" y="96" type="line" smooth="yes"/>
      <point x="175" y="14" type="line" smooth="yes"/>
    </contour>
  </outline>
</glyph>
<glyph name="Udieresis" format="1">
  <advance width="647"/>
  <unicode hex="00DC"/>
  <outline>
    <contour>
      <point x="455" y="936" type="line" smooth="yes"/>
      <point x="356" y="936" type="line" smooth="yes"/>
      <point x="356" y="854" type="line" smooth="yes"/>
      <point x="455" y="854" type="line" smooth="yes"/>
    </contour>
    <contour>
      <point x="292" y="936" type="line" smooth="yes"/>
      <point x="193" y="936" type="line" smooth="yes"/>
      <point x="193" y="854" type="line" smooth="yes"/>
      <point x="292" y="854" type="line" smooth="yes"/>
    </contour>
    <contour>
      <point x="324" y="-12" type="line" smooth="yes"/>
      <point x="473" y="14" type="line" smooth="yes"/>
      <point x="558" y="96" type="line" smooth="yes"/>
      <point x="585" y="243" type="line" smooth="yes"/>
      <point x="585" y="780" type="line" smooth="yes"/>
      <point x="481" y="780" type="line" smooth="yes"/>
      <point x="481" y="248" type="line" smooth="yes"/>
      <point x="465" y="149" type="line" smooth="yes"/>
      <point x="413" y="96" type="line" smooth="yes"/>
      <point x="324" y="80" type="line" smooth="yes"/>
      <point x="234" y="96" type="line" smooth="yes"/>
      <point x="183" y="149" type="line" smooth="yes"/>
      <point x="166" y="248" type="line" smooth="yes"/>
      <point x="166" y="780" type="line" smooth="yes"/>
      <point x="62" y="780" type="line" smooth="yes"/>
      <point x="62" y="243" type="line" smooth="yes"/>
      <point x="89" y="96" type="line" smooth="yes"/>
      <point x="175" y="14" type="line" smooth="yes"/>
    </contour>
  </outline>
</glyph>
<glyph name="Yacute" format="1">
  <advance width="594"/>
  <unicode hex="00DD"/>
  <outline>
    <contour>
      <point x="304" y="950" type="line" smooth="yes"/>
      <point x="246" y="840" type="line" smooth="yes"/>
      <point x="348" y="840" type="line" smooth="yes"/>
      <point x="411" y="950" type="line" smooth="yes"/>
    </contour>
    <contour>
      <point x="349" y="237" type="line" smooth="yes"/>
      <point x="578" y="780" type="line" smooth="yes"/>
      <point x="465" y="780" type="line" smooth="yes"/>
      <point x="297" y="366" type="line" smooth="yes"/>
      <point x="129" y="780" type="line" smooth="yes"/>
      <point x="16" y="780" type="line" smooth="yes"/>
      <point x="245" y="237" type="line" smooth="yes"/>
      <point x="245" y="0" type="line" smooth="yes"/>
      <point x="349" y="0" type="line" smooth="yes"/>
    </contour>
  </outline>
</glyph>
<glyph name="Thorn" format="1">
  <advance width="586"/>
  <unicode hex="00DE"/>
  <outline>
    <contour>
      <point x="171" y="244" type="line" smooth="yes"/>
      <point x="171" y="536" type="line" smooth="yes"/>
      <point x="301" y="536" type="line" smooth="yes"/>
      <point x="364" y="526" type="line" smooth="yes"/>
      <point x="419" y="485" type="line" smooth="yes"/>
      <point x="442" y="396" type="line" smooth="yes"/>
      <point x="442" y="384" type="line" smooth="yes"/>
      <point x="419" y="295" type="line" smooth="yes"/>
      <point x="364" y="254" type="line" smooth="yes"/>
      <point x="301" y="244" type="line" smooth="yes"/>
    </contour>
    <contour>
      <point x="171" y="780" type="line" smooth="yes"/>
      <point x="67" y="780" type="line" smooth="yes"/>
      <point x="67" y="0" type="line" smooth="yes"/>
      <point x="171" y="0" type="line" smooth="yes"/>
      <point x="171" y="152" type="line" smooth="yes"/>
      <point x="298" y="152" type="line" smooth="yes"/>
      <point x="415" y="169" type="line" smooth="yes"/>
      <point x="509" y="236" type="line" smooth="yes"/>
      <point x="548" y="380" type="line" smooth="yes"/>
      <point x="548" y="400" type="line" smooth="yes"/>
      <point x="509" y="544" type="line" smooth="yes"/>
      <point x="415" y="611" type="line" smooth="yes"/>
      <point x="298" y="628" type="line" smooth="yes"/>
      <point x="171" y="628" type="line" smooth="yes"/>
    </contour>
  </outline>
</glyph>
<glyph name="germandbls" format="1">
  <advance width="592"/>
  <unicode hex="00DF"/>
  <outline>
    <contour>
      <point x="270" y="358" type="line" smooth="yes"/>
      <point x="352" y="303" type="line" smooth="yes"/>
      <point x="417" y="254" type="line" smooth="yes"/>
      <point x="455" y="209" type="line" smooth="yes"/>
      <point x="467" y="161" type="line" smooth="yes"/>
      <point x="461" y="116" type="line" smooth="yes"/>
      <point x="437" y="82" type="line" smooth="yes"/>
      <point x="384" y="68" type="line" smooth="yes"/>
      <point x="332" y="82" type="line" smooth="yes"/>
      <point x="307" y="117" type="line" smooth="yes"/>
      <point x="301" y="164" type="line" smooth="yes"/>
      <point x="213" y="164" type="line" smooth="yes"/>
      <point x="213" y="158" type="line" smooth="yes"/>
      <point x="226" y="77" type="line" smooth="yes"/>
      <point x="277" y="14" type="line" smooth="yes"/>
      <point x="386" y="-12" type="line" smooth="yes"/>
      <point x="493" y="14" type="line" smooth="yes"/>
      <point x="550" y="79" type="line" smooth="yes"/>
      <point x="567" y="161" type="line" smooth="yes"/>
      <point x="567" y="167" type="line" smooth="yes"/>
      <point x="550" y="242" type="line" smooth="yes"/>
      <point x="500" y="308" type="line" smooth="yes"/>
      <point x="419" y="370" type="line" smooth="yes"/>
      <point x="379" y="397" type="line" smooth="yes"/>
      <point x="446" y="453" type="line" smooth="yes"/>
      <point x="486" y="517" type="line" smooth="yes"/>
      <point x="500" y="596" type="line" smooth="yes"/>
      <point x="500" y="604" type="line" smooth="yes"/>
      <point x="477" y="710" type="line" smooth="yes"/>
      <point x="404" y="784" type="line" smooth="yes"/>
      <point x="280" y="812" type="line" smooth="yes"/>
      <point x="153" y="785" type="line" smooth="yes"/>
      <point x="81" y="711" type="line" smooth="yes"/>
      <point x="59" y="604" type="line" smooth="yes"/>
      <point x="59" y="0" type="line" smooth="yes"/>
      <point x="159" y="0" type="line" smooth="yes"/>
      <point x="159" y="597" type="line" smooth="yes"/>
      <point x="171" y="661" type="line" smooth="yes"/>
      <point x="211" y="705" type="line" smooth="yes"/>
      <point x="280" y="722" type="line" smooth="yes"/>
      <point x="348" y="706" type="line" smooth="yes"/>
      <point x="388" y="661" type="line" smooth="yes"/>
      <point x="400" y="593" type="line" smooth="yes"/>
      <point x="386" y="526" type="line" smooth="yes"/>
      <point x="342" y="471" type="line" smooth="yes"/>
      <point x="270" y="422" type="line" smooth="yes"/>
    </contour>
  </outline>
</glyph>
<glyph name="atilde" format="1">
  <advance width="525"/>
  <unicode hex="00E3"/>
  <outline>
    <contour>
      <point x="362" y="755" type="line" smooth="yes"/>
      <point x="357" y="731" type="line" smooth="yes"/>
      <point x="345" y="718" type="line" smooth="yes"/>
      <point x="328" y="714" type="line" smooth="yes"/>
      <point x="287" y="728" type="line" smooth="yes"/>
      <point x="239" y="754" type="line" smooth="yes"/>
      <point x="182" y="768" type="line" smooth="yes"/>
      <point x="135" y="755" type="line" smooth="yes"/>
      <point x="103" y="715" type="line" smooth="yes"/>
      <point x="91" y="645" type="line" smooth="yes"/>
      <point x="164" y="645" type="line" smooth="yes"/>
      <point x="169" y="669" type="line" smooth="yes"/>
      <point x="181" y="682" type="line" smooth="yes"/>
      <point x="198" y="686" type="line" smooth="yes"/>
      <point x="239" y="672" type="line" smooth="yes"/>
      <point x="287" y="646" type="line" smooth="yes"/>
      <point x="344" y="632" type="line" smooth="yes"/>
      <point x="391" y="645" type="line" smooth="yes"/>
      <point x="423" y="685" type="line" smooth="yes"/>
      <point x="435" y="755" type="line" smooth="yes"/>
    </contour>
    <contour>
      <point x="228" y="72" type="line" smooth="yes"/>
      <point x="177" y="83" type="line" smooth="yes"/>
      <point x="148" y="112" type="line" smooth="yes"/>
      <point x="139" y="150" type="line" smooth="yes"/>
      <point x="139" y="158" type="line" smooth="yes"/>
      <point x="150" y="201" type="line" smooth="yes"/>
      <point x="182" y="231" type="line" smooth="yes"/>
      <point x="234" y="248" type="line" smooth="yes"/>
      <point x="366" y="270" type="line" smooth="yes"/>
      <point x="366" y="141" type="line" smooth="yes"/>
      <point x="340" y="111" type="line" smooth="yes"/>
      <point x="295" y="84" type="line" smooth="yes"/>
    </contour>
    <contour>
      <point x="386" y="0" type="line" smooth="yes"/>
      <point x="473" y="0" type="line" smooth="yes"/>
      <point x="466" y="150" type="line" smooth="yes"/>
      <point x="466" y="343" type="line" smooth="yes"/>
      <point x="448" y="448" type="line" smooth="yes"/>
      <point x="385" y="517" type="line" smooth="yes"/>
      <point x="263" y="542" type="line" smooth="yes"/>
      <point x="138" y="515" type="line" smooth="yes"/>
      <point x="76" y="447" type="line" smooth="yes"/>
      <point x="60" y="364" type="line" smooth="yes"/>
      <point x="60" y="355" type="line" smooth="yes"/>
      <point x="155" y="355" type="line" smooth="yes"/>
      <point x="163" y="408" type="line" smooth="yes"/>
      <point x="195" y="447" type="line" smooth="yes"/>
      <point x="260" y="462" type="line" smooth="yes"/>
      <point x="323" y="449" type="line" smooth="yes"/>
      <point x="357" y="409" type="line" smooth="yes"/>
      <point x="366" y="343" type="line" smooth="yes"/>
      <point x="366" y="335" type="line" smooth="yes"/>
      <point x="219" y="312" type="line" smooth="yes"/>
      <point x="130" y="289" type="line" smooth="yes"/>
      <point x="65" y="239" type="line" smooth="yes"/>
      <point x="40" y="148" type="line" smooth="yes"/>
      <point x="40" y="138" type="line" smooth="yes"/>
      <point x="57" y="61" type="line" smooth="yes"/>
      <point x="109" y="8" type="line" smooth="yes"/>
      <point x="196" y="-12" type="line" smooth="yes"/>
      <point x="273" y="-1" type="line" smooth="yes"/>
      <point x="332" y="27" type="line" smooth="yes"/>
      <point x="376" y="68" type="line" smooth="yes"/>
    </contour>
  </outline>
</glyph>
<glyph name="ae" format="1">
  <advance width="867"/>
  <unicode hex="00E6"/>
  <outline>
    <contour>
      <point x="597" y="462" type="line" smooth="yes"/>
      <point x="668" y="443" type="line" smooth="yes"/>
      <point x="711" y="389" type="line" smooth="yes"/>
      <point x="728" y="303" type="line" smooth="yes"/>
      <point x="467" y="303" type="line" smooth="yes"/>
      <point x="483" y="389" type="line" smooth="yes"/>
      <point x="526" y="443" type="line" smooth="yes"/>
    </contour>
    <contour>
      <point x="371" y="147" type="line" smooth="yes"/>
      <point x="347" y="115" type="line" smooth="yes"/>
      <point x="300" y="84" type="line" smooth="yes"/>
      <point x="228" y="70" type="line" smooth="yes"/>
      <point x="177" y="81" type="line" smooth="yes"/>
      <point x="148" y="110" type="line" smooth="yes"/>
      <point x="139" y="148" type="line" smooth="yes"/>
      <point x="139" y="156" type="line" smooth="yes"/>
      <point x="150" y="199" type="line" smooth="yes"/>
      <point x="182" y="229" type="line" smooth="yes"/>
      <point x="234" y="246" type="line" smooth="yes"/>
      <point x="366" y="268" type="line" smooth="yes"/>
      <point x="366" y="253" type="line" smooth="yes"/>
      <point x="367" y="219" type="line" smooth="yes"/>
      <point x="371" y="186" type="line" smooth="yes"/>
      <point x="378" y="155" type="line" smooth="yes"/>
    </contour>
    <contour>
      <point x="829" y="227" type="line" smooth="yes"/>
      <point x="829" y="277" type="line" smooth="yes"/>
      <point x="805" y="412" type="line" smooth="yes"/>
      <point x="730" y="506" type="line" smooth="yes"/>
      <point x="599" y="542" type="line" smooth="yes"/>
      <point x="526" y="532" type="line" smooth="yes"/>
      <point x="470" y="503" type="line" smooth="yes"/>
      <point x="429" y="459" type="line" smooth="yes"/>
      <point x="396" y="503" type="line" smooth="yes"/>
      <point x="342" y="532" type="line" smooth="yes"/>
      <point x="263" y="542" type="line" smooth="yes"/>
      <point x="138" y="515" type="line" smooth="yes"/>
      <point x="76" y="447" type="line" smooth="yes"/>
      <point x="60" y="364" type="line" smooth="yes"/>
      <point x="60" y="355" type="line" smooth="yes"/>
      <point x="155" y="355" type="line" smooth="yes"/>
      <point x="163" y="408" type="line" smooth="yes"/>
      <point x="195" y="447" type="line" smooth="yes"/>
      <point x="260" y="462" type="line" smooth="yes"/>
      <point x="323" y="449" type="line" smooth="yes"/>
      <point x="357" y="409" type="line" smooth="yes"/>
      <point x="366" y="343" type="line" smooth="yes"/>
      <point x="366" y="335" type="line" smooth="yes"/>
      <point x="220" y="312" type="line" smooth="yes"/>
      <point x="131" y="289" type="line" smooth="yes"/>
      <point x="66" y="239" type="line" smooth="yes"/>
      <point x="40" y="148" type="line" smooth="yes"/>
      <point x="40" y="138" type="line" smooth="yes"/>
      <point x="58" y="61" type="line" smooth="yes"/>
      <point x="112" y="8" type="line" smooth="yes"/>
      <point x="202" y="-12" type="line" smooth="yes"/>
      <point x="288" y="0" type="line" smooth="yes"/>
      <point x="359" y="33" type="line" smooth="yes"/>
      <point x="412" y="79" type="line" smooth="yes"/>
      <point x="458" y="31" type="line" smooth="yes"/>
      <point x="523" y="-1" type="line" smooth="yes"/>
      <point x="605" y="-12" type="line" smooth="yes"/>
      <point x="730" y="14" type="line" smooth="yes"/>
      <point x="804" y="80" type="line" smooth="yes"/>
      <point x="829" y="166" type="line" smooth="yes"/>
      <point x="829" y="170" type="line" smooth="yes"/>
      <point x="734" y="170" type="line" smooth="yes"/>
      <point x="720" y="122" type="line" smooth="yes"/>
      <point x="678" y="84" type="line" smooth="yes"/>
      <point x="605" y="68" type="line" smooth="yes"/>
      <point x="529" y="86" type="line" smooth="yes"/>
      <point x="484" y="140" type="line" smooth="yes"/>
      <point x="467" y="227" type="line" smooth="yes"/>
    </contour>
  </outline>
</glyph>
<glyph name="ccedilla" format="1">
  <advance width="523"/>
  <unicode hex="00E7"/>
  <outline>
    <contour>
      <point x="180" y="-191" type="line" smooth="yes"/>
      <point x="204" y="-202" type="line" smooth="yes"/>
      <point x="238" y="-210" type="line" smooth="yes"/>
      <point x="277" y="-213" type="line" smooth="yes"/>
      <point x="335" y="-204" type="line" smooth="yes"/>
      <point x="373" y="-177" type="line" smooth="yes"/>
      <point x="386" y="-131" type="line" smooth="yes"/>
      <point x="371" y="-85" type="line" smooth="yes"/>
      <point x="334" y="-59" type="line" smooth="yes"/>
      <point x="284" y="-50" type="line" smooth="yes"/>
      <point x="299" y="-11" type="line" smooth="yes"/>
      <point x="403" y="21" type="line" smooth="yes"/>
      <point x="463" y="87" type="line" smooth="yes"/>
      <point x="482" y="170" type="line" smooth="yes"/>
      <point x="482" y="188" type="line" smooth="yes"/>
      <point x="386" y="188" type="line" smooth="yes"/>
      <point x="375" y="132" type="line" smooth="yes"/>
      <point x="338" y="92" type="line" smooth="yes"/>
      <point x="272" y="76" type="line" smooth="yes"/>
      <point x="199" y="98" type="line" smooth="yes"/>
      <point x="156" y="159" type="line" smooth="yes"/>
      <point x="143" y="251" type="line" smooth="yes"/>
      <point x="143" y="279" type="line" smooth="yes"/>
      <point x="156" y="371" type="line" smooth="yes"/>
      <point x="199" y="432" type="line" smooth="yes"/>
      <point x="272" y="454" type="line" smooth="yes"/>
      <point x="337" y="438" type="line" smooth="yes"/>
      <point x="374" y="395" type="line" smooth="yes"/>
      <point x="386" y="332" type="line" smooth="yes"/>
      <point x="482" y="332" type="line" smooth="yes"/>
      <point x="482" y="353" type="line" smooth="yes"/>
      <point x="460" y="445" type="line" smooth="yes"/>
      <point x="391" y="515" type="line" smooth="yes"/>
      <point x="270" y="542" type="line" smooth="yes"/>
      <point x="140" y="507" type="line" smooth="yes"/>
      <point x="66" y="413" type="line" smooth="yes"/>
      <point x="42" y="279" type="line" smooth="yes"/>
      <point x="42" y="251" type="line" smooth="yes"/>
      <point x="63" y="124" type="line" smooth="yes"/>
      <point x="128" y="32" type="line" smooth="yes"/>
      <point x="241" y="-10" type="line" smooth="yes"/>
      <point x="216" y="-77" type="line" smooth="yes"/>
      <point x="233" y="-102" type="line" smooth="yes"/>
      <point x="238" y="-101" type="line" smooth="yes"/>
      <point x="250" y="-100" type="line" smooth="yes"/>
      <point x="265" y="-99" type="line" smooth="yes"/>
      <point x="296" y="-102" type="line" smooth="yes"/>
      <point x="315" y="-110" type="line" smooth="yes"/>
      <point x="322" y="-126" type="line" smooth="yes"/>
      <point x="316" y="-143" type="line" smooth="yes"/>
      <point x="298" y="-152" type="line" smooth="yes"/>
      <point x="268" y="-155" type="line" smooth="yes"/>
      <point x="242" y="-153" type="line" smooth="yes"/>
      <point x="217" y="-147" type="line" smooth="yes"/>
      <point x="198" y="-139" type="line" smooth="yes"/>
    </contour>
  </outline>
</glyph>
<glyph name="eacute" format="1">
  <advance width="548"/>
  <unicode hex="00E9"/>
  <outline>
    <contour>
      <point x="316" y="780" type="line" smooth="yes"/>
      <point x="225" y="607" type="line" smooth="yes"/>
      <point x="327" y="607" type="line" smooth="yes"/>
      <point x="426" y="780" type="line" smooth="yes"/>
    </contour>
    <contour>
      <point x="274" y="462" type="line" smooth="yes"/>
      <point x="345" y="443" type="line" smooth="yes"/>
      <point x="388" y="389" type="line" smooth="yes"/>
      <point x="405" y="303" type="line" smooth="yes"/>
      <point x="143" y="303" type="line" smooth="yes"/>
      <point x="159" y="389" type="line" smooth="yes"/>
      <point x="202" y="443" type="line" smooth="yes"/>
    </contour>
    <contour>
      <point x="506" y="227" type="line" smooth="yes"/>
      <point x="506" y="277" type="line" smooth="yes"/>
      <point x="482" y="412" type="line" smooth="yes"/>
      <point x="406" y="506" type="line" smooth="yes"/>
      <point x="276" y="542" type="line" smooth="yes"/>
      <point x="144" y="506" type="line" smooth="yes"/>
      <point x="67" y="412" type="line" smooth="yes"/>
      <point x="42" y="277" type="line" smooth="yes"/>
      <point x="42" y="253" type="line" smooth="yes"/>
      <point x="67" y="118" type="line" smooth="yes"/>
      <point x="145" y="24" type="line" smooth="yes"/>
      <point x="281" y="-12" type="line" smooth="yes"/>
      <point x="406" y="14" type="line" smooth="yes"/>
      <point x="481" y="80" type="line" smooth="yes"/>
      <point x="506" y="166" type="line" smooth="yes"/>
      <point x="506" y="170" type="line" smooth="yes"/>
      <point x="410" y="170" type="line" smooth="yes"/>
      <point x="396" y="122" type="line" smooth="yes"/>
      <point x="354" y="84" type="line" smooth="yes"/>
      <point x="282" y="68" type="line" smooth="yes"/>
      <point x="206" y="86" type="line" smooth="yes"/>
      <point x="161" y="140" type="line" smooth="yes"/>
      <point x="143" y="227" type="line" smooth="yes"/>
    </contour>
  </outline>
</glyph>
<glyph name="iacute" format="1">
  <advance width="234"/>
  <unicode hex="00ED"/>
  <outline>
    <contour>
      <point x="157" y="780" type="line" smooth="yes"/>
      <point x="66" y="607" type="line" smooth="yes"/>
      <point x="168" y="607" type="line" smooth="yes"/>
      <point x="267" y="780" type="line" smooth="yes"/>
    </contour>
    <contour>
      <point x="66" y="0" type="line" smooth="yes"/>
      <point x="168" y="0" type="line" smooth="yes"/>
      <point x="168" y="530" type="line" smooth="yes"/>
      <point x="66" y="530" type="line" smooth="yes"/>
    </contour>
  </outline>
</glyph>
<glyph name="eth" format="1">
  <advance width="548"/>
  <unicode hex="00F0"/>
  <outline>
    <contour>
      <point x="274" y="76" type="line" smooth="yes"/>
      <point x="200" y="98" type="line" smooth="yes"/>
      <point x="157" y="159" type="line" smooth="yes"/>
      <point x="143" y="251" type="line" smooth="yes"/>
      <point x="143" y="279" type="line" smooth="yes"/>
      <point x="157" y="371" type="line" smooth="yes"/>
      <point x="200" y="432" type="line" smooth="yes"/>
      <point x="274" y="454" type="line" smooth="yes"/>
      <point x="348" y="432" type="line" smooth="yes"/>
      <point x="391" y="371" type="line" smooth="yes"/>
      <point x="405" y="279" type="line" smooth="yes"/>
      <point x="405" y="251" type="line" smooth="yes"/>
      <point x="391" y="159" type="line" smooth="yes"/>
      <point x="348" y="98" type="line" smooth="yes"/>
    </contour>
    <contour>
      <point x="42" y="721" type="line" smooth="yes"/>
      <point x="93" y="714" type="line" smooth="yes"/>
      <point x="142" y="702" type="line" smooth="yes"/>
      <point x="189" y="687" type="line" smooth="yes"/>
      <point x="77" y="623" type="line" smooth="yes"/>
      <point x="77" y="557" type="line" smooth="yes"/>
      <point x="250" y="655" type="line" smooth="yes"/>
      <point x="273" y="639" type="line" smooth="yes"/>
      <point x="294" y="621" type="line" smooth="yes"/>
      <point x="315" y="601" type="line" smooth="yes"/>
      <point x="337" y="574" type="line" smooth="yes"/>
      <point x="355" y="545" type="line" smooth="yes"/>
      <point x="371" y="513" type="line" smooth="yes"/>
      <point x="339" y="529" type="line" smooth="yes"/>
      <point x="303" y="539" type="line" smooth="yes"/>
      <point x="262" y="542" type="line" smooth="yes"/>
      <point x="139" y="507" type="line" smooth="yes"/>
      <point x="66" y="413" type="line" smooth="yes"/>
      <point x="42" y="279" type="line" smooth="yes"/>
      <point x="42" y="251" type="line" smooth="yes"/>
      <point x="66" y="117" type="line" smooth="yes"/>
      <point x="142" y="23" type="line" smooth="yes"/>
      <point x="274" y="-12" type="line" smooth="yes"/>
      <point x="406" y="23" type="line" smooth="yes"/>
      <point x="482" y="117" type="line" smooth="yes"/>
      <point x="506" y="251" type="line" smooth="yes"/>
      <point x="506" y="279" type="line" smooth="yes"/>
      <point x="497" y="407" type="line" smooth="yes"/>
      <point x="463" y="540" type="line" smooth="yes"/>
      <point x="394" y="659" type="line" smooth="yes"/>
      <point x="378" y="676" type="line" smooth="yes"/>
      <point x="361" y="693" type="line" smooth="yes"/>
      <point x="344" y="708" type="line" smooth="yes"/>
      <point x="409" y="745" type="line" smooth="yes"/>
      <point x="409" y="812" type="line" smooth="yes"/>
      <point x="290" y="745" type="line" smooth="yes"/>
      <point x="213" y="779" type="line" smooth="yes"/>
      <point x="130" y="801" type="line" smooth="yes"/>
      <point x="42" y="812" type="line" smooth="yes"/>
    </contour>
  </outline>
</glyph>
<glyph name="ntilde" format="1">
  <advance width="545"/>
  <unicode hex="00F1"/>
  <outline>
    <contour>
      <point x="375" y="755" type="line" smooth="yes"/>
      <point x="370" y="731" type="line" smooth="yes"/>
      <point x="358" y="718" type="line" smooth="yes"/>
      <point x="341" y="714" type="line" smooth="yes"/>
      <point x="300" y="728" type="line" smooth="yes"/>
      <point x="252" y="754" type="line" smooth="yes"/>
      <point x="195" y="768" type="line" smooth="yes"/>
      <point x="148" y="755" type="line" smooth="yes"/>
      <point x="116" y="715" type="line" smooth="yes"/>
      <point x="104" y="645" type="line" smooth="yes"/>
      <point x="177" y="645" type="line" smooth="yes"/>
      <point x="182" y="669" type="line" smooth="yes"/>
      <point x="194" y="682" type="line" smooth="yes"/>
      <point x="211" y="686" type="line" smooth="yes"/>
      <point x="252" y="672" type="line" smooth="yes"/>
      <point x="300" y="646" type="line" smooth="yes"/>
      <point x="357" y="632" type="line" smooth="yes"/>
      <point x="404" y="645" type="line" smooth="yes"/>
      <point x="436" y="685" type="line" smooth="yes"/>
      <point x="448" y="755" type="line" smooth="yes"/>
    </contour>
    <contour>
      <point x="489" y="0" type="line" smooth="yes"/>
      <point x="489" y="367" type="line" smooth="yes"/>
      <point x="472" y="456" type="line" smooth="yes"/>
      <point x="418" y="518" type="line" smooth="yes"/>
      <point x="327" y="542" type="line" smooth="yes"/>
      <point x="250" y="531" type="line" smooth="yes"/>
      <point x="192" y="500" type="line" smooth="yes"/>
      <point x="152" y="457" type="line" smooth="yes"/>
      <point x="141" y="530" type="line" smooth="yes"/>
      <point x="55" y="530" type="line" smooth="yes"/>
      <point x="62" y="380" type="line" smooth="yes"/>
      <point x="62" y="0" type="line" smooth="yes"/>
      <point x="162" y="0" type="line" smooth="yes"/>
      <point x="162" y="383" type="line" smooth="yes"/>
      <point x="187" y="414" type="line" smooth="yes"/>
      <point x="229" y="442" type="line" smooth="yes"/>
      <point x="290" y="454" type="line" smooth="yes"/>
      <point x="345" y="442" type="line" smooth="yes"/>
      <point x="379" y="407" type="line" smooth="yes"/>
      <point x="390" y="351" type="line" smooth="yes"/>
      <point x="390" y="0" type="line" smooth="yes"/>
    </contour>
  </outline>
</glyph>
<glyph name="ocircumflex" format="1">
  <advance width="548"/>
  <unicode hex="00F4"/>
  <outline>
    <contour>
      <point x="189" y="607" type="line" smooth="yes"/>
      <point x="274" y="709" type="line" smooth="yes"/>
      <point x="359" y="607" type="line" smooth="yes"/>
      <point x="453" y="607" type="line" smooth="yes"/>
      <point x="321" y="780" type="line" smooth="yes"/>
      <point x="227" y="780" type="line" smooth="yes"/>
      <point x="95" y="607" type="line" smooth="yes"/>
    </contour>
    <contour>
      <point x="274" y="76" type="line" smooth="yes"/>
      <point x="200" y="98" type="line" smooth="yes"/>
      <point x="157" y="159" type="line" smooth="yes"/>
      <point x="143" y="251" type="line" smooth="yes"/>
      <point x="143" y="279" type="line" smooth="yes"/>
      <point x="157" y="371" type="line" smooth="yes"/>
      <point x="200" y="432" type="line" smooth="yes"/>
      <point x="274" y="454" type="line" smooth="yes"/>
      <point x="348" y="432" type="line" smooth="yes"/>
      <point x="391" y="371" type="line" smooth="yes"/>
      <point x="405" y="279" type="line" smooth="yes"/>
      <point x="405" y="251" type="line" smooth="yes"/>
      <point x="391" y="159" type="line" smooth="yes"/>
      <point x="348" y="98" type="line" smooth="yes"/>
    </contour>
    <contour>
      <point x="274" y="-12" type="line" smooth="yes"/>
      <point x="406" y="23" type="line" smooth="yes"/>
      <point x="482" y="117" type="line" smooth="yes"/>
      <point x="506" y="251" type="line" smooth="yes"/>
      <point x="506" y="279" type="line" smooth="yes"/>
      <point x="482" y="413" type="line" smooth="yes"/>
      <point x="406" y="507" type="line" smooth="yes"/>
      <point x="274" y="542" type="line" smooth="yes"/>
      <point x="142" y="507" type="line" smooth="yes"/>
      <point x="66" y="413" type="line" smooth="yes"/>
      <point x="42" y="279" type="line" smooth="yes"/>
      <point x="42" y="251" type="line" smooth="yes"/>
      <point x="66" y="117" type="line" smooth="yes"/>
      <point x="142" y="23" type="line" smooth="yes"/>
    </contour>
  </outline>
</glyph>
<glyph name="otilde" format="1">
  <advance width="548"/>
  <unicode hex="00F5"/>
  <outline>
    <contour>
      <point x="373" y="755" type="line" smooth="yes"/>
      <point x="368" y="731" type="line" smooth="yes"/>
      <point x="356" y="718" type="line" smooth="yes"/>
      <point x="339" y="714" type="line" smooth="yes"/>
      <point x="298" y="728" type="line" smooth="yes"/>
      <point x="250" y="754" type="line" smooth="yes"/>
      <point x="193" y="768" type="line" smooth="yes"/>
      <point x="146" y="755" type="line" smooth="yes"/>
      <point x="114" y="715" type="line" smooth="yes"/>
      <point x="102" y="645" type="line" smooth="yes"/>
      <point x="175" y="645" type="line" smooth="yes"/>
      <point x="180" y="669" type="line" smooth="yes"/>
      <point x="192" y="682" type="line" smooth="yes"/>
      <point x="209" y="686" type="line" smooth="yes"/>
      <point x="250" y="672" type="line" smooth="yes"/>
      <point x="298" y="646" type="line" smooth="yes"/>
      <point x="355" y="632" type="line" smooth="yes"/>
      <point x="402" y="645" type="line" smooth="yes"/>
      <point x="434" y="685" type="line" smooth="yes"/>
      <point x="446" y="755" type="line" smooth="yes"/>
    </contour>
    <contour>
      <point x="274" y="76" type="line" smooth="yes"/>
      <point x="200" y="98" type="line" smooth="yes"/>
      <point x="157" y="159" type="line" smooth="yes"/>
      <point x="143" y="251" type="line" smooth="yes"/>
      <point x="143" y="279" type="line" smooth="yes"/>
      <point x="157" y="371" type="line" smooth="yes"/>
      <point x="200" y="432" type="line" smooth="yes"/>
      <point x="274" y="454" type="line" smooth="yes"/>
      <point x="348" y="432" type="line" smooth="yes"/>
      <point x="391" y="371" type="line" smooth="yes"/>
      <point x="405" y="279" type="line" smooth="yes"/>
      <point x="405" y="251" type="line" smooth="yes"/>
      <point x="391" y="159" type="line" smooth="yes"/>
      <point x="348" y="98" type="line" smooth="yes"/>
    </contour>
    <contour>
      <point x="274" y="-12" type="line" smooth="yes"/>
      <point x="406" y="23" type="line" smooth="yes"/>
      <point x="482" y="117" type="line" smooth="yes"/>
      <point x="506" y="251" type="line" smooth="yes"/>
      <point x="506" y="279" type="line" smooth="yes"/>
      <point x="482" y="413" type="line" smooth="yes"/>
      <point x="406" y="507" type="line" smooth="yes"/>
      <point x="274" y="542" type="line" smooth="yes"/>
      <point x="142" y="507" type="line" smooth="yes"/>
      <point x="66" y="413" type="line" smooth="yes"/>
      <point x="42" y="279" type="line" smooth="yes"/>
      <point x="42" y="251" type="line" smooth="yes"/>
      <point x="66" y="117" type="line" smooth="yes"/>
      <point x="142" y="23" type="line" smooth="yes"/>
    </contour>
  </outline>
</glyph>
<glyph name="oslash" format="1">
  <advance width="548"/>
  <unicode hex="00F8"/>
  <outline>
    <contour>
      <point x="143" y="251" type="line" smooth="yes"/>
      <point x="143" y="279" type="line" smooth="yes"/>
      <point x="157" y="371" type="line" smooth="yes"/>
      <point x="200" y="432" type="line" smooth="yes"/>
      <point x="274" y="454" type="line" smooth="yes"/>
      <point x="308" y="450" type="line" smooth="yes"/>
      <point x="337" y="439" type="line" smooth="yes"/>
      <point x="360" y="421" type="line" smooth="yes"/>
      <point x="158" y="154" type="line" smooth="yes"/>
      <point x="150" y="182" type="line" smooth="yes"/>
      <point x="145" y="215" type="line" smooth="yes"/>
    </contour>
    <contour>
      <point x="405" y="279" type="line" smooth="yes"/>
      <point x="405" y="251" type="line" smooth="yes"/>
      <point x="391" y="159" type="line" smooth="yes"/>
      <point x="348" y="98" type="line" smooth="yes"/>
      <point x="274" y="76" type="line" smooth="yes"/>
      <point x="240" y="80" type="line" smooth="yes"/>
      <point x="211" y="91" type="line" smooth="yes"/>
      <point x="187" y="109" type="line" smooth="yes"/>
      <point x="389" y="376" type="line" smooth="yes"/>
      <point x="398" y="347" type="line" smooth="yes"/>
      <point x="403" y="315" type="line" smooth="yes"/>
    </contour>
    <contour>
      <point x="506" y="530" type="line" smooth="yes"/>
      <point x="443" y="530" type="line" smooth="yes"/>
      <point x="418" y="497" type="line" smooth="yes"/>
      <point x="378" y="521" type="line" smooth="yes"/>
      <point x="330" y="537" type="line" smooth="yes"/>
      <point x="274" y="542" type="line" smooth="yes"/>
      <point x="142" y="507" type="line" smooth="yes"/>
      <point x="66" y="413" type="line" smooth="yes"/>
      <point x="42" y="279" type="line" smooth="yes"/>
      <point x="42" y="251" type="line" smooth="yes"/>
      <point x="47" y="182" type="line" smooth="yes"/>
      <point x="65" y="120" type="line" smooth="yes"/>
      <point x="94" y="68" type="line" smooth="yes"/>
      <point x="42" y="0" type="line" smooth="yes"/>
      <point x="105" y="0" type="line" smooth="yes"/>
      <point x="129" y="32" type="line" smooth="yes"/>
      <point x="169" y="8" type="line" smooth="yes"/>
      <point x="217" y="-7" type="line" smooth="yes"/>
      <point x="274" y="-12" type="line" smooth="yes"/>
      <point x="406" y="23" type="line" smooth="yes"/>
      <point x="482" y="117" type="line" smooth="yes"/>
      <point x="506" y="251" type="line" smooth="yes"/>
      <point x="506" y="279" type="line" smooth="yes"/>
      <point x="500" y="348" type="line" smooth="yes"/>
      <point x="483" y="409" type="line" smooth="yes"/>
      <point x="454" y="461" type="line" smooth="yes"/>
    </contour>
  </outline>
</glyph>
<glyph name="uacute" format="1">
  <advance width="545"/>
  <unicode hex="00FA"/>
  <outline>
    <contour>
      <point x="310" y="780" type="line" smooth="yes"/>
      <point x="219" y="607" type="line" smooth="yes"/>
      <point x="321" y="607" type="line" smooth="yes"/>
      <point x="420" y="780" type="line" smooth="yes"/>
    </contour>
    <contour>
      <point x="56" y="530" type="line" smooth="yes"/>
      <point x="56" y="163" type="line" smooth="yes"/>
      <point x="74" y="74" type="line" smooth="yes"/>
      <point x="127" y="12" type="line" smooth="yes"/>
      <point x="218" y="-12" type="line" smooth="yes"/>
      <point x="295" y="-1" type="line" smooth="yes"/>
      <point x="353" y="30" type="line" smooth="yes"/>
      <point x="393" y="73" type="line" smooth="yes"/>
      <point x="404" y="0" type="line" smooth="yes"/>
      <point x="491" y="0" type="line" smooth="yes"/>
      <point x="484" y="150" type="line" smooth="yes"/>
      <point x="484" y="530" type="line" smooth="yes"/>
      <point x="384" y="530" type="line" smooth="yes"/>
      <point x="384" y="147" type="line" smooth="yes"/>
      <point x="358" y="116" type="line" smooth="yes"/>
      <point x="316" y="88" type="line" smooth="yes"/>
      <point x="255" y="76" type="line" smooth="yes"/>
      <point x="201" y="88" type="line" smooth="yes"/>
      <point x="167" y="123" type="line" smooth="yes"/>
      <point x="156" y="179" type="line" smooth="yes"/>
      <point x="156" y="530" type="line" smooth="yes"/>
    </contour>
  </outline>
</glyph>
<glyph name="ucircumflex" format="1">
  <advance width="545"/>
  <unicode hex="00FB"/>
  <outline>
    <contour>
      <point x="185" y="607" type="line" smooth="yes"/>
      <point x="270" y="709" type="line" smooth="yes"/>
      <point x="355" y="607" type="line" smooth="yes"/>
      <point x="449" y="607" type="line" smooth="yes"/>
      <point x="317" y="780" type="line" smooth="yes"/>
      <point x="223" y="780" type="line" smooth="yes"/>
      <point x="91" y="607" type="line" smooth="yes"/>
    </contour>
    <contour>
      <point x="56" y="530" type="line" smooth="yes"/>
      <point x="56" y="163" type="line" smooth="yes"/>
      <point x="74" y="74" type="line" smooth="yes"/>
      <point x="127" y="12" type="line" smooth="yes"/>
      <point x="218" y="-12" type="line" smooth="yes"/>
      <point x="295" y="-1" type="line" smooth="yes"/>
      <point x="353" y="30" type="line" smooth="yes"/>
      <point x="393" y="73" type="line" smooth="yes"/>
      <point x="404" y="0" type="line" smooth="yes"/>
      <point x="491" y="0" type="line" smooth="yes"/>
      <point x="484" y="150" type="line" smooth="yes"/>
      <point x="484" y="530" type="line" smooth="yes"/>
      <point x="384" y="530" type="line" smooth="yes"/>
      <point x="384" y="147" type="line" smooth="yes"/>
      <point x="358" y="116" type="line" smooth="yes"/>
      <point x="316" y="88" type="line" smooth="yes"/>
      <point x="255" y="76" type="line" smooth="yes"/>
      <point x="201" y="88" type="line" smooth="yes"/>
      <point x="167" y="123" type="line" smooth="yes"/>
      <point x="156" y="179" type="line" smooth="yes"/>
      <point x="156" y="530" type="line" smooth="yes"/>
    </contour>
  </outline>
</glyph>
<glyph name="udieresis" format="1">
  <advance width="545"/>
  <unicode hex="00FC"/>
  <outline>
    <contour>
      <point x="236" y="754" type="line" smooth="yes"/>
      <point x="120" y="754" type="line" smooth="yes"/>
      <point x="120" y="639" type="line" smooth="yes"/>
      <point x="236" y="639" type="line" smooth="yes"/>
    </contour>
    <contour>
      <point x="420" y="754" type="line" smooth="yes"/>
      <point x="304" y="754" type="line" smooth="yes"/>
      <point x="304" y="639" type="line" smooth="yes"/>
      <point x="420" y="639" type="line" smooth="yes"/>
    </contour>
    <contour>
      <point x="56" y="530" type="line" smooth="yes"/>
      <point x="56" y="163" type="line" smooth="yes"/>
      <point x="74" y="74" type="line" smooth="yes"/>
      <point x="127" y="12" type="line" smooth="yes"/>
      <point x="218" y="-12" type="line" smooth="yes"/>
      <point x="295" y="-1" type="line" smooth="yes"/>
      <point x="353" y="30" type="line" smooth="yes"/>
      <point x="393" y="73" type="line" smooth="yes"/>
      <point x="404" y="0" type="line" smooth="yes"/>
      <point x="491" y="0" type="line" smooth="yes"/>
      <point x="484" y="150" type="line" smooth="yes"/>
      <point x="484" y="530" type="line" smooth="yes"/>
      <point x="384" y="530" type="line" smooth="yes"/>
      <point x="384" y="147" type="line" smooth="yes"/>
      <point x="358" y="116" type="line" smooth="yes"/>
      <point x="316" y="88" type="line" smooth="yes"/>
      <point x="255" y="76" type="line" smooth="yes"/>
      <point x="201" y="88" type="line" smooth="yes"/>
      <point x="167" y="123" type="line" smooth="yes"/>
      <point x="156" y="179" type="line" smooth="yes"/>
      <point x="156" y="530" type="line" smooth="yes"/>
    </contour>
  </outline>
</glyph>
<glyph name="thorn" format="1">
  <advance width="550"/>
  <unicode hex="00FE"/>
  <outline>
    <contour>
      <point x="161" y="383" type="line" smooth="yes"/>
      <point x="186" y="414" type="line" smooth="yes"/>
      <point x="226" y="442" type="line" smooth="yes"/>
      <point x="281" y="454" type="line" smooth="yes"/>
      <point x="352" y="433" type="line" smooth="yes"/>
      <point x="394" y="372" type="line" smooth="yes"/>
      <point x="407" y="279" type="line" smooth="yes"/>
      <point x="407" y="251" type="line" smooth="yes"/>
      <point x="394" y="158" type="line" smooth="yes"/>
      <point x="352" y="97" type="line" smooth="yes"/>
      <point x="281" y="76" type="line" smooth="yes"/>
      <point x="226" y="88" type="line" smooth="yes"/>
      <point x="186" y="116" type="line" smooth="yes"/>
      <point x="161" y="147" type="line" smooth="yes"/>
    </contour>
    <contour>
      <point x="61" y="800" type="line" smooth="yes"/>
      <point x="61" y="-200" type="line" smooth="yes"/>
      <point x="161" y="-200" type="line" smooth="yes"/>
      <point x="161" y="56" type="line" smooth="yes"/>
      <point x="196" y="21" type="line" smooth="yes"/>
      <point x="244" y="-3" type="line" smooth="yes"/>
      <point x="307" y="-12" type="line" smooth="yes"/>
      <point x="424" y="23" type="line" smooth="yes"/>
      <point x="488" y="117" type="line" smooth="yes"/>
      <point x="508" y="251" type="line" smooth="yes"/>
      <point x="508" y="279" type="line" smooth="yes"/>
      <point x="488" y="413" type="line" smooth="yes"/>
      <point x="424" y="507" type="line" smooth="yes"/>
      <point x="307" y="542" type="line" smooth="yes"/>
      <point x="244" y="533" type="line" smooth="yes"/>
      <point x="196" y="509" type="line" smooth="yes"/>
      <point x="161" y="474" type="line" smooth="yes"/>
      <point x="161" y="800" type="line" smooth="yes"/>
    </contour>
  </outline>
</glyph>
<glyph name="Abreve" format="1">
  <advance width="621"/>
  <unicode hex="0102"/>
  <outline>
    <contour>
      <point x="311" y="827" type="line" smooth="yes"/>
      <point x="406" y="844" type="line" smooth="yes"/>
      <point x="455" y="887" type="line" smooth="yes"/>
      <point x="470" y="950" type="line" smooth="yes"/>
      <point x="395" y="950" type="line" smooth="yes"/>
      <point x="386" y="918" type="line" smooth="yes"/>
      <point x="359" y="897" type="line" smooth="yes"/>
      <point x="311" y="890" type="line" smooth="yes"/>
      <point x="263" y="897" type="line" smooth="yes"/>
      <point x="236" y="918" type="line" smooth="yes"/>
      <point x="227" y="950" type="line" smooth="yes"/>
      <point x="152" y="950" type="line" smooth="yes"/>
      <point x="167" y="887" type="line" smooth="yes"/>
      <point x="216" y="844" type="line" smooth="yes"/>
    </contour>
    <contour>
      <point x="311" y="669" type="line" smooth="yes"/>
      <point x="413" y="280" type="line" smooth="yes"/>
      <point x="209" y="280" type="line" smooth="yes"/>
    </contour>
    <contour>
      <point x="238" y="786" type="line" smooth="yes"/>
      <point x="23" y="0" type="line" smooth="yes"/>
      <point x="136" y="0" type="line" smooth="yes"/>
      <point x="185" y="188" type="line" smooth="yes"/>
      <point x="437" y="188" type="line" smooth="yes"/>
      <point x="486" y="0" type="line" smooth="yes"/>
      <point x="598" y="0" type="line" smooth="yes"/>
      <point x="383" y="786" type="line" smooth="yes"/>
    </contour>
  </outline>
</glyph>
<glyph name="abreve" format="1">
  <advance width="525"/>
  <unicode hex="0103"/>
  <outline>
    <contour>
      <point x="228" y="72" type="line" smooth="yes"/>
      <point x="177" y="83" type="line" smooth="yes"/>
      <point x="148" y="112" type="line" smooth="yes"/>
      <point x="139" y="150" type="line" smooth="yes"/>
      <point x="139" y="158" type="line" smooth="yes"/>
      <point x="150" y="201" type="line" smooth="yes"/>
      <point x="182" y="231" type="line" smooth="yes"/>
      <point x="234" y="248" type="line" smooth="yes"/>
      <point x="366" y="270" type="line" smooth="yes"/>
      <point x="366" y="141" type="line" smooth="yes"/>
      <point x="340" y="111" type="line" smooth="yes"/>
      <point x="295" y="84" type="line" smooth="yes"/>
    </contour>
    <contour>
      <point x="263" y="595" type="line" smooth="yes"/>
      <point x="362" y="619" type="line" smooth="yes"/>
      <point x="417" y="684" type="line" smooth="yes"/>
      <point x="433" y="780" type="line" smooth="yes"/>
      <point x="356" y="780" type="line" smooth="yes"/>
      <point x="346" y="724" type="line" smooth="yes"/>
      <point x="315" y="688" type="line" smooth="yes"/>
      <point x="263" y="676" type="line" smooth="yes"/>
      <point x="211" y="688" type="line" smooth="yes"/>
      <point x="180" y="724" type="line" smooth="yes"/>
      <point x="170" y="780" type="line" smooth="yes"/>
      <point x="93" y="780" type="line" smooth="yes"/>
      <point x="109" y="684" type="line" smooth="yes"/>
      <point x="164" y="619" type="line" smooth="yes"/>
    </contour>
    <contour>
      <point x="386" y="0" type="line" smooth="yes"/>
      <point x="473" y="0" type="line" smooth="yes"/>
      <point x="466" y="150" type="line" smooth="yes"/>
      <point x="466" y="343" type="line" smooth="yes"/>
      <point x="448" y="448" type="line" smooth="yes"/>
      <point x="385" y="517" type="line" smooth="yes"/>
      <point x="263" y="542" type="line" smooth="yes"/>
      <point x="138" y="515" type="line" smooth="yes"/>
      <point x="76" y="447" type="line" smooth="yes"/>
      <point x="60" y="364" type="line" smooth="yes"/>
      <point x="60" y="355" type="line" smooth="yes"/>
      <point x="155" y="355" type="line" smooth="yes"/>
      <point x="163" y="408" type="line" smooth="yes"/>
      <point x="195" y="447" type="line" smooth="yes"/>
      <point x="260" y="462" type="line" smooth="yes"/>
      <point x="323" y="449" type="line" smooth="yes"/>
      <point x="357" y="409" type="line" smooth="yes"/>
      <point x="366" y="343" type="line" smooth="yes"/>
      <point x="366" y="335" type="line" smooth="yes"/>
      <point x="219" y="312" type="line" smooth="yes"/>
      <point x="130" y="289" type="line" smooth="yes"/>
      <point x="65" y="239" type="line" smooth="yes"/>
      <point x="40" y="148" type="line" smooth="yes"/>
      <point x="40" y="138" type="line" smooth="yes"/>
      <point x="57" y="61" type="line" smooth="yes"/>
      <point x="109" y="8" type="line" smooth="yes"/>
      <point x="196" y="-12" type="line" smooth="yes"/>
      <point x="273" y="-1" type="line" smooth="yes"/>
      <point x="332" y="27" type="line" smooth="yes"/>
      <point x="376" y="68" type="line" smooth="yes"/>
    </contour>
  </outline>
</glyph>
<glyph name="Aogonek" format="1">
  <advance width="621"/>
  <unicode hex="0104"/>
  <outline>
    <contour>
      <point x="311" y="669" type="line" smooth="yes"/>
      <point x="413" y="280" type="line" smooth="yes"/>
      <point x="209" y="280" type="line" smooth="yes"/>
    </contour>
    <contour>
      <point x="523" y="-91" type="line" smooth="yes"/>
      <point x="533" y="-52" type="line" smooth="yes"/>
      <point x="560" y="-22" type="line" smooth="yes"/>
      <point x="598" y="0" type="line" smooth="yes"/>
      <point x="383" y="786" type="line" smooth="yes"/>
      <point x="238" y="786" type="line" smooth="yes"/>
      <point x="23" y="0" type="line" smooth="yes"/>
      <point x="136" y="0" type="line" smooth="yes"/>
      <point x="185" y="188" type="line" smooth="yes"/>
      <point x="437" y="188" type="line" smooth="yes"/>
      <point x="487" y="-5" type="line" smooth="yes"/>
      <point x="463" y="-35" type="line" smooth="yes"/>
      <point x="448" y="-70" type="line" smooth="yes"/>
      <point x="442" y="-111" type="line" smooth="yes"/>
      <point x="457" y="-169" type="line" smooth="yes"/>
      <point x="499" y="-202" type="line" smooth="yes"/>
      <point x="561" y="-213" type="line" smooth="yes"/>
      <point x="596" y="-210" type="line" smooth="yes"/>
      <point x="628" y="-202" type="line" smooth="yes"/>
      <point x="654" y="-191" type="line" smooth="yes"/>
      <point x="629" y="-123" type="line" smooth="yes"/>
      <point x="615" y="-129" type="line" smooth="yes"/>
      <point x="596" y="-134" type="line" smooth="yes"/>
      <point x="574" y="-136" type="line" smooth="yes"/>
      <point x="546" y="-130" type="line" smooth="yes"/>
      <point x="529" y="-114" type="line" smooth="yes"/>
    </contour>
  </outline>
</glyph>
<glyph name="aogonek" format="1">
  <advance width="525"/>
  <unicode hex="0105"/>
  <outline>
    <contour>
      <point x="228" y="72" type="line" smooth="yes"/>
      <point x="177" y="83" type="line" smooth="yes"/>
      <point x="148" y="112" type="line" smooth="yes"/>
      <point x="139" y="150" type="line" smooth="yes"/>
      <point x="139" y="158" type="line" smooth="yes"/>
      <point x="150" y="201" type="line" smooth="yes"/>
      <point x="182" y="231" type="line" smooth="yes"/>
      <point x="234" y="248" type="line" smooth="yes"/>
      <point x="366" y="270" type="line" smooth="yes"/>
      <point x="366" y="141" type="line" smooth="yes"/>
      <point x="340" y="111" type="line" smooth="yes"/>
      <point x="295" y="84" type="line" smooth="yes"/>
    </contour>
    <contour>
      <point x="395" y="-91" type="line" smooth="yes"/>
      <point x="405" y="-52" type="line" smooth="yes"/>
      <point x="432" y="-22" type="line" smooth="yes"/>
      <point x="470" y="0" type="line" smooth="yes"/>
      <point x="473" y="0" type="line" smooth="yes"/>
      <point x="466" y="150" type="line" smooth="yes"/>
      <point x="466" y="343" type="line" smooth="yes"/>
      <point x="448" y="448" type="line" smooth="yes"/>
      <point x="385" y="517" type="line" smooth="yes"/>
      <point x="263" y="542" type="line" smooth="yes"/>
      <point x="138" y="515" type="line" smooth="yes"/>
      <point x="76" y="447" type="line" smooth="yes"/>
      <point x="60" y="364" type="line" smooth="yes"/>
      <point x="60" y="355" type="line" smooth="yes"/>
      <point x="155" y="355" type="line" smooth="yes"/>
      <point x="163" y="408" type="line" smooth="yes"/>
      <point x="195" y="447" type="line" smooth="yes"/>
      <point x="260" y="462" type="line" smooth="yes"/>
      <point x="323" y="449" type="line" smooth="yes"/>
      <point x="357" y="409" type="line" smooth="yes"/>
      <point x="366" y="343" type="line" smooth="yes"/>
      <point x="366" y="335" type="line" smooth="yes"/>
      <point x="219" y="312" type="line" smooth="yes"/>
      <point x="130" y="289" type="line" smooth="yes"/>
      <point x="65" y="239" type="line" smooth="yes"/>
      <point x="40" y="148" type="line" smooth="yes"/>
      <point x="40" y="138" type="line" smooth="yes"/>
      <point x="57" y="61" type="line" smooth="yes"/>
      <point x="109" y="8" type="line" smooth="yes"/>
      <point x="196" y="-12" type="line" smooth="yes"/>
      <point x="273" y="-1" type="line" smooth="yes"/>
      <point x="332" y="27" type="line" smooth="yes"/>
      <point x="376" y="68" type="line" smooth="yes"/>
      <point x="383" y="16" type="line" smooth="yes"/>
      <point x="347" y="-17" type="line" smooth="yes"/>
      <point x="323" y="-60" type="line" smooth="yes"/>
      <point x="314" y="-111" type="line" smooth="yes"/>
      <point x="329" y="-169" type="line" smooth="yes"/>
      <point x="371" y="-202" type="line" smooth="yes"/>
      <point x="433" y="-213" type="line" smooth="yes"/>
      <point x="468" y="-210" type="line" smooth="yes"/>
      <point x="500" y="-202" type="line" smooth="yes"/>
      <point x="526" y="-191" type="line" smooth="yes"/>
      <point x="501" y="-123" type="line" smooth="yes"/>
      <point x="487" y="-129" type="line" smooth="yes"/>
      <point x="468" y="-134" type="line" smooth="yes"/>
      <point x="446" y="-136" type="line" smooth="yes"/>
      <point x="418" y="-130" type="line" smooth="yes"/>
      <point x="401" y="-114" type="line" smooth="yes"/>
    </contour>
  </outline>
</glyph>
<glyph name="Cacute" format="1">
  <advance width="630"/>
  <unicode hex="0106"/>
  <outline>
    <contour>
      <point x="332" y="950" type="line" smooth="yes"/>
      <point x="274" y="840" type="line" smooth="yes"/>
      <point x="376" y="840" type="line" smooth="yes"/>
      <point x="439" y="950" type="line" smooth="yes"/>
    </contour>
    <contour>
      <point x="157" y="370" type="line" smooth="yes"/>
      <point x="157" y="410" type="line" smooth="yes"/>
      <point x="174" y="573" type="line" smooth="yes"/>
      <point x="228" y="669" type="line" smooth="yes"/>
      <point x="325" y="700" type="line" smooth="yes"/>
      <point x="332" y="700" type="line" smooth="yes"/>
      <point x="417" y="677" type="line" smooth="yes"/>
      <point x="464" y="608" type="line" smooth="yes"/>
      <point x="478" y="491" type="line" smooth="yes"/>
      <point x="583" y="491" type="line" smooth="yes"/>
      <point x="583" y="522" type="line" smooth="yes"/>
      <point x="555" y="674" type="line" smooth="yes"/>
      <point x="469" y="763" type="line" smooth="yes"/>
      <point x="325" y="792" type="line" smooth="yes"/>
      <point x="171" y="753" type="line" smooth="yes"/>
      <point x="80" y="629" type="line" smooth="yes"/>
      <point x="50" y="410" type="line" smooth="yes"/>
      <point x="50" y="370" type="line" smooth="yes"/>
      <point x="80" y="151" type="line" smooth="yes"/>
      <point x="171" y="27" type="line" smooth="yes"/>
      <point x="325" y="-12" type="line" smooth="yes"/>
      <point x="469" y="17" type="line" smooth="yes"/>
      <point x="555" y="104" type="line" smooth="yes"/>
      <point x="583" y="249" type="line" smooth="yes"/>
      <point x="583" y="259" type="line" smooth="yes"/>
      <point x="478" y="259" type="line" smooth="yes"/>
      <point x="463" y="162" type="line" smooth="yes"/>
      <point x="416" y="101" type="line" smooth="yes"/>
      <point x="332" y="80" type="line" smooth="yes"/>
      <point x="325" y="80" type="line" smooth="yes"/>
      <point x="227" y="111" type="line" smooth="yes"/>
      <point x="173" y="207" type="line" smooth="yes"/>
    </contour>
  </outline>
</glyph>
<glyph name="cacute" format="1">
  <advance width="523"/>
  <unicode hex="0107"/>
  <outline>
    <contour>
      <point x="310" y="780" type="line" smooth="yes"/>
      <point x="219" y="607" type="line" smooth="yes"/>
      <point x="321" y="607" type="line" smooth="yes"/>
      <point x="420" y="780" type="line" smooth="yes"/>
    </contour>
    <contour>
      <point x="143" y="251" type="line" smooth="yes"/>
      <point x="143" y="279" type="line" smooth="yes"/>
      <point x="156" y="371" type="line" smooth="yes"/>
      <point x="199" y="432" type="line" smooth="yes"/>
      <point x="272" y="454" type="line" smooth="yes"/>
      <point x="337" y="438" type="line" smooth="yes"/>
      <point x="374" y="395" type="line" smooth="yes"/>
      <point x="386" y="332" type="line" smooth="yes"/>
      <point x="482" y="332" type="line" smooth="yes"/>
      <point x="482" y="353" type="line" smooth="yes"/>
      <point x="460" y="445" type="line" smooth="yes"/>
      <point x="391" y="515" type="line" smooth="yes"/>
      <point x="270" y="542" type="line" smooth="yes"/>
      <point x="140" y="507" type="line" smooth="yes"/>
      <point x="66" y="413" type="line" smooth="yes"/>
      <point x="42" y="279" type="line" smooth="yes"/>
      <point x="42" y="251" type="line" smooth="yes"/>
      <point x="66" y="117" type="line" smooth="yes"/>
      <point x="140" y="23" type="line" smooth="yes"/>
      <point x="270" y="-12" type="line" smooth="yes"/>
      <point x="391" y="15" type="line" smooth="yes"/>
      <point x="460" y="81" type="line" smooth="yes"/>
      <point x="482" y="170" type="line" smooth="yes"/>
      <point x="482" y="188" type="line" smooth="yes"/>
      <point x="386" y="188" type="line" smooth="yes"/>
      <point x="375" y="132" type="line" smooth="yes"/>
      <point x="338" y="92" type="line" smooth="yes"/>
      <point x="272" y="76" type="line" smooth="yes"/>
      <point x="199" y="98" type="line" smooth="yes"/>
      <point x="156" y="159" type="line" smooth="yes"/>
    </contour>
  </outline>
</glyph>
<glyph name="Dcaron" format="1">
  <advance width="647"/>
  <unicode hex="010E"/>
  <outline>
    <contour>
      <point x="138" y="950" type="line" smooth="yes"/>
      <point x="251" y="840" type="line" smooth="yes"/>
      <point x="349" y="840" type="line" smooth="yes"/>
      <point x="462" y="950" type="line" smooth="yes"/>
      <point x="366" y="950" type="line" smooth="yes"/>
      <point x="300" y="892" type="line" smooth="yes"/>
      <point x="234" y="950" type="line" smooth="yes"/>
    </contour>
    <contour>
      <point x="171" y="92" type="line" smooth="yes"/>
      <point x="171" y="688" type="line" smooth="yes"/>
      <point x="279" y="688" type="line" smooth="yes"/>
      <point x="398" y="660" type="line" smooth="yes"/>
      <point x="467" y="570" type="line" smooth="yes"/>
      <point x="490" y="410" type="line" smooth="yes"/>
      <point x="490" y="370" type="line" smooth="yes"/>
      <point x="467" y="210" type="line" smooth="yes"/>
      <point x="398" y="120" type="line" smooth="yes"/>
      <point x="279" y="92" type="line" smooth="yes"/>
    </contour>
    <contour>
      <point x="597" y="370" type="line" smooth="yes"/>
      <point x="597" y="410" type="line" smooth="yes"/>
      <point x="562" y="626" type="line" smooth="yes"/>
      <point x="458" y="744" type="line" smooth="yes"/>
      <point x="286" y="780" type="line" smooth="yes"/>
      <point x="67" y="780" type="line" smooth="yes"/>
      <point x="67" y="0" type="line" smooth="yes"/>
      <point x="286" y="0" type="line" smooth="yes"/>
      <point x="458" y="36" type="line" smooth="yes"/>
      <point x="562" y="154" type="line" smooth="yes"/>
    </contour>
  </outline>
</glyph>
<glyph name="Dcroat" format="1">
  <advance width="707"/>
  <unicode hex="0110"/>
  <outline>
    <contour>
      <point x="231" y="688" type="line" smooth="yes"/>
      <point x="339" y="688" type="line" smooth="yes"/>
      <point x="458" y="660" type="line" smooth="yes"/>
      <point x="527" y="570" type="line" smooth="yes"/>
      <point x="550" y="410" type="line" smooth="yes"/>
      <point x="550" y="370" type="line" smooth="yes"/>
      <point x="527" y="210" type="line" smooth="yes"/>
      <point x="458" y="120" type="line" smooth="yes"/>
      <point x="339" y="92" type="line" smooth="yes"/>
      <point x="231" y="92" type="line" smooth="yes"/>
      <point x="231" y="352" type="line" smooth="yes"/>
      <point x="427" y="352" type="line" smooth="yes"/>
      <point x="427" y="444" type="line" smooth="yes"/>
      <point x="231" y="444" type="line" smooth="yes"/>
    </contour>
    <contour>
      <point x="16" y="352" type="line" smooth="yes"/>
      <point x="127" y="352" type="line" smooth="yes"/>
      <point x="127" y="0" type="line" smooth="yes"/>
      <point x="346" y="0" type="line" smooth="yes"/>
      <point x="518" y="36" type="line" smooth="yes"/>
      <point x="622" y="154" type="line" smooth="yes"/>
      <point x="657" y="370" type="line" smooth="yes"/>
      <point x="657" y="410" type="line" smooth="yes"/>
      <point x="622" y="626" type="line" smooth="yes"/>
      <point x="518" y="744" type="line" smooth="yes"/>
      <point x="346" y="780" type="line" smooth="yes"/>
      <point x="127" y="780" type="line" smooth="yes"/>
      <point x="127" y="444" type="line" smooth="yes"/>
      <point x="16" y="444" type="line" smooth="yes"/>
    </contour>
  </outline>
</glyph>
<glyph name="dcroat" format="1">
  <advance width="554"/>
  <unicode hex="0111"/>
  <outline>
    <contour>
      <point x="392" y="383" type="line" smooth="yes"/>
      <point x="392" y="147" type="line" smooth="yes"/>
      <point x="367" y="116" type="line" smooth="yes"/>
      <point x="328" y="88" type="line" smooth="yes"/>
      <point x="273" y="76" type="line" smooth="yes"/>
      <point x="202" y="97" type="line" smooth="yes"/>
      <point x="160" y="158" type="line" smooth="yes"/>
      <point x="147" y="251" type="line" smooth="yes"/>
      <point x="147" y="279" type="line" smooth="yes"/>
      <point x="160" y="372" type="line" smooth="yes"/>
      <point x="202" y="433" type="line" smooth="yes"/>
      <point x="273" y="454" type="line" smooth="yes"/>
      <point x="328" y="442" type="line" smooth="yes"/>
      <point x="367" y="414" type="line" smooth="yes"/>
    </contour>
    <contour>
      <point x="576" y="703" type="line" smooth="yes"/>
      <point x="493" y="703" type="line" smooth="yes"/>
      <point x="493" y="800" type="line" smooth="yes"/>
      <point x="392" y="800" type="line" smooth="yes"/>
      <point x="392" y="703" type="line" smooth="yes"/>
      <point x="266" y="703" type="line" smooth="yes"/>
      <point x="266" y="627" type="line" smooth="yes"/>
      <point x="392" y="627" type="line" smooth="yes"/>
      <point x="392" y="475" type="line" smooth="yes"/>
      <point x="356" y="510" type="line" smooth="yes"/>
      <point x="309" y="533" type="line" smooth="yes"/>
      <point x="247" y="542" type="line" smooth="yes"/>
      <point x="130" y="507" type="line" smooth="yes"/>
      <point x="66" y="413" type="line" smooth="yes"/>
      <point x="46" y="279" type="line" smooth="yes"/>
      <point x="46" y="251" type="line" smooth="yes"/>
      <point x="66" y="117" type="line" smooth="yes"/>
      <point x="130" y="23" type="line" smooth="yes"/>
      <point x="247" y="-12" type="line" smooth="yes"/>
      <point x="315" y="-1" type="line" smooth="yes"/>
      <point x="366" y="28" type="line" smooth="yes"/>
      <point x="402" y="69" type="line" smooth="yes"/>
      <point x="413" y="0" type="line" smooth="yes"/>
      <point x="500" y="0" type="line" smooth="yes"/>
      <point x="493" y="150" type="line" smooth="yes"/>
      <point x="493" y="627" type="line" smooth="yes"/>
      <point x="576" y="627" type="line" smooth="yes"/>
    </contour>
  </outline>
</glyph>
<glyph name="Ebreve" format="1">
  <advance width="557"/>
  <unicode hex="0114"/>
  <outline>
    <contour>
      <point x="67" y="780" type="line" smooth="yes"/>
      <point x="67" y="0" type="line" smooth="yes"/>
      <point x="517" y="0" type="line" smooth="yes"/>
      <point x="517" y="92" type="line" smooth="yes"/>
      <point x="171" y="92" type="line" smooth="yes"/>
      <point x="171" y="352" type="line" smooth="yes"/>
      <point x="467" y="352" type="line" smooth="yes"/>
      <point x="467" y="444" type="line" smooth="yes"/>
      <point x="171" y="444" type="line" smooth="yes"/>
      <point x="171" y="688" type="line" smooth="yes"/>
      <point x="517" y="688" type="line" smooth="yes"/>
      <point x="517" y="780" type="line" smooth="yes"/>
    </contour>
    <contour>
      <point x="298" y="827" type="line" smooth="yes"/>
      <point x="393" y="844" type="line" smooth="yes"/>
      <point x="442" y="887" type="line" smooth="yes"/>
      <point x="457" y="950" type="line" smooth="yes"/>
      <point x="382" y="950" type="line" smooth="yes"/>
      <point x="373" y="918" type="line" smooth="yes"/>
      <point x="346" y="897" type="line" smooth="yes"/>
      <point x="298" y="890" type="line" smooth="yes"/>
      <point x="250" y="897" type="line" smooth="yes"/>
      <point x="223" y="918" type="line" smooth="yes"/>
      <point x="214" y="950" type="line" smooth="yes"/>
      <point x="139" y="950" type="line" smooth="yes"/>
      <point x="154" y="887" type="line" smooth="yes"/>
      <point x="203" y="844" type="line" smooth="yes"/>
    </contour>
  </outline>
</glyph>
<glyph name="ebreve" format="1">
  <advance width="548"/>
  <unicode hex="0115"/>
  <outline>
    <contour>
      <point x="274" y="462" type="line" smooth="yes"/>
      <point x="345" y="443" type="line" smooth="yes"/>
      <point x="388" y="389" type="line" smooth="yes"/>
      <point x="405" y="303" type="line" smooth="yes"/>
      <point x="143" y="303" type="line" smooth="yes"/>
      <point x="159" y="389" type="line" smooth="yes"/>
      <point x="202" y="443" type="line" smooth="yes"/>
    </contour>
    <contour>
      <point x="276" y="595" type="line" smooth="yes"/>
      <point x="375" y="619" type="line" smooth="yes"/>
      <point x="430" y="684" type="line" smooth="yes"/>
      <point x="446" y="780" type="line" smooth="yes"/>
      <point x="369" y="780" type="line" smooth="yes"/>
      <point x="359" y="724" type="line" smooth="yes"/>
      <point x="328" y="688" type="line" smooth="yes"/>
      <point x="276" y="676" type="line" smooth="yes"/>
      <point x="224" y="688" type="line" smooth="yes"/>
      <point x="193" y="724" type="line" smooth="yes"/>
      <point x="183" y="780" type="line" smooth="yes"/>
      <point x="106" y="780" type="line" smooth="yes"/>
      <point x="122" y="684" type="line" smooth="yes"/>
      <point x="177" y="619" type="line" smooth="yes"/>
    </contour>
    <contour>
      <point x="506" y="227" type="line" smooth="yes"/>
      <point x="506" y="277" type="line" smooth="yes"/>
      <point x="482" y="412" type="line" smooth="yes"/>
      <point x="406" y="506" type="line" smooth="yes"/>
      <point x="276" y="542" type="line" smooth="yes"/>
      <point x="144" y="506" type="line" smooth="yes"/>
      <point x="67" y="412" type="line" smooth="yes"/>
      <point x="42" y="277" type="line" smooth="yes"/>
      <point x="42" y="253" type="line" smooth="yes"/>
      <point x="67" y="118" type="line" smooth="yes"/>
      <point x="145" y="24" type="line" smooth="yes"/>
      <point x="281" y="-12" type="line" smooth="yes"/>
      <point x="406" y="14" type="line" smooth="yes"/>
      <point x="481" y="80" type="line" smooth="yes"/>
      <point x="506" y="166" type="line" smooth="yes"/>
      <point x="506" y="170" type="line" smooth="yes"/>
      <point x="410" y="170" type="line" smooth="yes"/>
      <point x="396" y="122" type="line" smooth="yes"/>
      <point x="354" y="84" type="line" smooth="yes"/>
      <point x="282" y="68" type="line" smooth="yes"/>
      <point x="206" y="86" type="line" smooth="yes"/>
      <point x="161" y="140" type="line" smooth="yes"/>
      <point x="143" y="227" type="line" smooth="yes"/>
    </contour>
  </outline>
</glyph>
<glyph name="Eogonek" format="1">
  <advance width="557"/>
  <unicode hex="0118"/>
  <outline>
    <contour>
      <point x="67" y="780" type="line" smooth="yes"/>
      <point x="67" y="0" type="line" smooth="yes"/>
      <point x="411" y="0" type="line" smooth="yes"/>
      <point x="385" y="-31" type="line" smooth="yes"/>
      <point x="367" y="-68" type="line" smooth="yes"/>
      <point x="361" y="-111" type="line" smooth="yes"/>
      <point x="376" y="-169" type="line" smooth="yes"/>
      <point x="418" y="-202" type="line" smooth="yes"/>
      <point x="480" y="-213" type="line" smooth="yes"/>
      <point x="515" y="-210" type="line" smooth="yes"/>
      <point x="547" y="-202" type="line" smooth="yes"/>
      <point x="573" y="-191" type="line" smooth="yes"/>
      <point x="548" y="-123" type="line" smooth="yes"/>
      <point x="534" y="-129" type="line" smooth="yes"/>
      <point x="515" y="-134" type="line" smooth="yes"/>
      <point x="493" y="-136" type="line" smooth="yes"/>
      <point x="465" y="-130" type="line" smooth="yes"/>
      <point x="448" y="-114" type="line" smooth="yes"/>
      <point x="442" y="-91" type="line" smooth="yes"/>
      <point x="452" y="-52" type="line" smooth="yes"/>
      <point x="479" y="-22" type="line" smooth="yes"/>
      <point x="517" y="0" type="line" smooth="yes"/>
      <point x="517" y="92" type="line" smooth="yes"/>
      <point x="171" y="92" type="line" smooth="yes"/>
      <point x="171" y="352" type="line" smooth="yes"/>
      <point x="467" y="352" type="line" smooth="yes"/>
      <point x="467" y="444" type="line" smooth="yes"/>
      <point x="171" y="444" type="line" smooth="yes"/>
      <point x="171" y="688" type="line" smooth="yes"/>
      <point x="517" y="688" type="line" smooth="yes"/>
      <point x="517" y="780" type="line" smooth="yes"/>
    </contour>
  </outline>
</glyph>
<glyph name="eogonek" format="1">
  <advance width="548"/>
  <unicode hex="0119"/>
  <outline>
    <contour>
      <point x="274" y="462" type="line" smooth="yes"/>
      <point x="345" y="443" type="line" smooth="yes"/>
      <point x="388" y="389" type="line" smooth="yes"/>
      <point x="405" y="303" type="line" smooth="yes"/>
      <point x="143" y="303" type="line" smooth="yes"/>
      <point x="159" y="389" type="line" smooth="yes"/>
      <point x="202" y="443" type="line" smooth="yes"/>
    </contour>
    <contour>
      <point x="506" y="227" type="line" smooth="yes"/>
      <point x="506" y="277" type="line" smooth="yes"/>
      <point x="482" y="412" type="line" smooth="yes"/>
      <point x="406" y="506" type="line" smooth="yes"/>
      <point x="276" y="542" type="line" smooth="yes"/>
      <point x="144" y="506" type="line" smooth="yes"/>
      <point x="67" y="412" type="line" smooth="yes"/>
      <point x="42" y="277" type="line" smooth="yes"/>
      <point x="42" y="253" type="line" smooth="yes"/>
      <point x="64" y="125" type="line" smooth="yes"/>
      <point x="133" y="32" type="line" smooth="yes"/>
      <point x="252" y="-10" type="line" smooth="yes"/>
      <point x="231" y="-39" type="line" smooth="yes"/>
      <point x="218" y="-73" type="line" smooth="yes"/>
      <point x="213" y="-111" type="line" smooth="yes"/>
      <point x="228" y="-169" type="line" smooth="yes"/>
      <point x="270" y="-202" type="line" smooth="yes"/>
      <point x="332" y="-213" type="line" smooth="yes"/>
      <point x="367" y="-210" type="line" smooth="yes"/>
      <point x="399" y="-202" type="line" smooth="yes"/>
      <point x="425" y="-191" type="line" smooth="yes"/>
      <point x="400" y="-123" type="line" smooth="yes"/>
      <point x="386" y="-129" type="line" smooth="yes"/>
      <point x="367" y="-134" type="line" smooth="yes"/>
      <point x="345" y="-136" type="line" smooth="yes"/>
      <point x="317" y="-130" type="line" smooth="yes"/>
      <point x="300" y="-114" type="line" smooth="yes"/>
      <point x="294" y="-91" type="line" smooth="yes"/>
      <point x="304" y="-51" type="line" smooth="yes"/>
      <point x="330" y="-20" type="line" smooth="yes"/>
      <point x="369" y="0" type="line" smooth="yes"/>
      <point x="445" y="39" type="line" smooth="yes"/>
      <point x="491" y="98" type="line" smooth="yes"/>
      <point x="506" y="166" type="line" smooth="yes"/>
      <point x="506" y="170" type="line" smooth="yes"/>
      <point x="410" y="170" type="line" smooth="yes"/>
      <point x="396" y="122" type="line" smooth="yes"/>
      <point x="354" y="84" type="line" smooth="yes"/>
      <point x="282" y="68" type="line" smooth="yes"/>
      <point x="206" y="86" type="line" smooth="yes"/>
      <point x="161" y="140" type="line" smooth="yes"/>
      <point x="143" y="227" type="line" smooth="yes"/>
    </contour>
  </outline>
</glyph>
<glyph name="Ecaron" format="1">
  <advance width="557"/>
  <unicode hex="011A"/>
  <outline>
    <contour>
      <point x="136" y="950" type="line" smooth="yes"/>
      <point x="249" y="840" type="line" smooth="yes"/>
      <point x="347" y="840" type="line" smooth="yes"/>
      <point x="460" y="950" type="line" smooth="yes"/>
      <point x="364" y="950" type="line" smooth="yes"/>
      <point x="298" y="892" type="line" smooth="yes"/>
      <point x="232" y="950" type="line" smooth="yes"/>
    </contour>
    <contour>
      <point x="67" y="780" type="line" smooth="yes"/>
      <point x="67" y="0" type="line" smooth="yes"/>
      <point x="517" y="0" type="line" smooth="yes"/>
      <point x="517" y="92" type="line" smooth="yes"/>
      <point x="171" y="92" type="line" smooth="yes"/>
      <point x="171" y="352" type="line" smooth="yes"/>
      <point x="467" y="352" type="line" smooth="yes"/>
      <point x="467" y="444" type="line" smooth="yes"/>
      <point x="171" y="444" type="line" smooth="yes"/>
      <point x="171" y="688" type="line" smooth="yes"/>
      <point x="517" y="688" type="line" smooth="yes"/>
      <point x="517" y="780" type="line" smooth="yes"/>
    </contour>
  </outline>
</glyph>
<glyph name="Gcircumflex" format="1">
  <advance width="655"/>
  <unicode hex="011C"/>
  <outline>
    <contour>
      <point x="267" y="840" type="line" smooth="yes"/>
      <point x="333" y="897" type="line" smooth="yes"/>
      <point x="399" y="840" type="line" smooth="yes"/>
      <point x="495" y="840" type="line" smooth="yes"/>
      <point x="382" y="950" type="line" smooth="yes"/>
      <point x="284" y="950" type="line" smooth="yes"/>
      <point x="171" y="840" type="line" smooth="yes"/>
    </contour>
    <contour>
      <point x="343" y="-12" type="line" smooth="yes"/>
      <point x="454" y="1" type="line" smooth="yes"/>
      <point x="535" y="35" type="line" smooth="yes"/>
      <point x="593" y="79" type="line" smooth="yes"/>
      <point x="593" y="398" type="line" smooth="yes"/>
      <point x="366" y="398" type="line" smooth="yes"/>
      <point x="366" y="306" type="line" smooth="yes"/>
      <point x="489" y="306" type="line" smooth="yes"/>
      <point x="489" y="129" type="line" smooth="yes"/>
      <point x="455" y="105" type="line" smooth="yes"/>
      <point x="408" y="87" type="line" smooth="yes"/>
      <point x="348" y="80" type="line" smooth="yes"/>
      <point x="340" y="80" type="line" smooth="yes"/>
      <point x="233" y="111" type="line" smooth="yes"/>
      <point x="174" y="207" type="line" smooth="yes"/>
      <point x="156" y="370" type="line" smooth="yes"/>
      <point x="156" y="410" type="line" smooth="yes"/>
      <point x="174" y="573" type="line" smooth="yes"/>
      <point x="232" y="669" type="line" smooth="yes"/>
      <point x="332" y="700" type="line" smooth="yes"/>
      <point x="340" y="700" type="line" smooth="yes"/>
      <point x="426" y="677" type="line" smooth="yes"/>
      <point x="474" y="608" type="line" smooth="yes"/>
      <point x="488" y="491" type="line" smooth="yes"/>
      <point x="593" y="491" type="line" smooth="yes"/>
      <point x="593" y="522" type="line" smooth="yes"/>
      <point x="564" y="674" type="line" smooth="yes"/>
      <point x="477" y="763" type="line" smooth="yes"/>
      <point x="333" y="792" type="line" smooth="yes"/>
      <point x="177" y="753" type="line" smooth="yes"/>
      <point x="82" y="629" type="line" smooth="yes"/>
      <point x="50" y="410" type="line" smooth="yes"/>
      <point x="50" y="370" type="line" smooth="yes"/>
      <point x="82" y="151" type="line" smooth="yes"/>
      <point x="179" y="27" type="line" smooth="yes"/>
    </contour>
  </outline>
</glyph>
